<svg width="158" height="41" viewBox="0 0 158 41" fill="none" xmlns="http://www.w3.org/2000/svg">
<mask id="mask0_1_3188" style="mask-type:alpha" maskUnits="userSpaceOnUse" x="1" y="0" width="157" height="41">
<g clip-path="url(#clip0_1_3188)">
<g clip-path="url(#clip1_1_3188)">
<path d="M78.2215 -0.490695C78.7886 -0.75123 79.4412 -0.75123 80.0083 -0.490695L88.2182 3.28095C88.6539 3.48112 89.1443 3.52916 89.6105 3.41736L101.959 0.456853C102.752 0.266744 103.584 0.543753 104.104 1.17121L106.744 4.35104C107.206 4.90871 107.92 5.19426 108.64 5.10978L122.17 3.52182C123.503 3.36545 124.546 4.64608 124.124 5.91942C123.724 7.12421 124.641 8.36053 125.909 8.32895L137.502 8.0405C138.86 8.00671 139.403 9.78085 138.259 10.5128C137.165 11.2122 137.603 12.9023 138.899 12.983L146.022 13.4269C147.537 13.5211 147.794 15.6439 146.346 16.0973C144.97 16.5282 145.111 18.5201 146.535 18.7527L147.528 18.9149C149.323 19.2084 149.323 21.792 147.528 22.0855L146.535 22.2477C145.111 22.4804 144.97 24.4722 146.346 24.9031C147.794 25.3565 147.537 27.4793 146.022 27.5736L138.899 28.0175C137.603 28.0981 137.165 29.7882 138.259 30.4876C139.403 31.2196 138.86 32.9938 137.502 32.96L125.909 32.6715C124.641 32.6399 123.724 33.8763 124.124 35.0811C124.546 36.3544 123.503 37.635 122.17 37.4787L108.64 35.8907C107.92 35.8062 107.206 36.0918 106.744 36.6494L104.104 39.8293C103.584 40.4567 102.752 40.7337 101.959 40.5436L89.6105 37.5831C89.1443 37.4713 88.6539 37.5193 88.2182 37.7195L80.0083 41.4911C79.4412 41.7517 78.7886 41.7517 78.2215 41.4911L70.0116 37.7195C69.5759 37.5193 69.0855 37.4713 68.6192 37.5831L56.2712 40.5436C55.4783 40.7337 54.6462 40.4567 54.1254 39.8293L51.4863 36.6494C51.0235 36.0918 50.3098 35.8062 49.59 35.8907L36.0599 37.4787C34.7276 37.635 33.684 36.3544 34.1061 35.0811C34.5056 33.8763 33.5893 32.6399 32.3204 32.6715L20.7279 32.96C19.3698 32.9938 18.8268 31.2196 19.9714 30.4876C21.065 29.7882 20.6274 28.0981 19.3318 28.0175L12.2075 27.5736C10.6929 27.4793 10.4356 25.3565 11.8839 24.9031C13.2601 24.4722 13.119 22.4804 11.6957 22.2477L10.7025 22.0855C8.9061 21.792 8.9061 19.2084 10.7025 18.9149L11.6957 18.7527C13.119 18.5201 13.2601 16.5282 11.8839 16.0973C10.4356 15.6439 10.6929 13.5211 12.2075 13.4269L19.3318 12.983C20.6274 12.9023 21.065 11.2122 19.9714 10.5128C18.8268 9.78085 19.3698 8.00671 20.7279 8.0405L32.3204 8.32895C33.5893 8.36053 34.5056 7.12421 34.1061 5.91942C33.684 4.64608 34.7276 3.36545 36.0599 3.52182L49.59 5.10978C50.3098 5.19426 51.0235 4.90871 51.4863 4.35104L54.1254 1.17121C54.6462 0.543753 55.4783 0.266744 56.2712 0.456853L68.6192 3.41736C69.0855 3.52916 69.5759 3.48112 70.0116 3.28095L78.2215 -0.490695Z" fill="#63AB45"/>
</g>
</g>
</mask>
<g mask="url(#mask0_1_3188)">
<rect width="156.23" height="41" transform="translate(1)" fill="#63AB45" fill-opacity="0.3"/>
<path d="M41.3222 27.1709C41.0012 27.1709 40.7024 27.027 40.4257 26.7393C40.1601 26.4626 39.9387 26.0586 39.7616 25.5273C39.5956 25.0072 39.4739 24.3652 39.3964 23.6016C39.33 22.8268 39.3355 21.9469 39.413 20.9619C39.4573 20.3089 39.5458 19.6449 39.6786 18.9697C39.8114 18.2835 39.9609 17.625 40.1269 16.9941C40.2929 16.3522 40.47 15.749 40.6581 15.1846C40.8463 14.6201 41.0178 14.1221 41.1728 13.6904C41.3388 13.2477 41.4716 12.8936 41.5712 12.6279C41.6819 12.3623 41.7483 12.2074 41.7704 12.1631C41.8036 12.1077 41.8645 12.0524 41.953 11.9971C42.0527 11.9307 42.1633 11.8753 42.2851 11.8311C42.4179 11.7868 42.5562 11.7536 42.7001 11.7314C42.8551 11.6982 42.9989 11.6816 43.1318 11.6816C43.2424 11.6816 43.3476 11.6872 43.4472 11.6982C43.5357 11.7093 43.6243 11.7259 43.7128 11.748C43.8014 11.7702 43.8788 11.8034 43.9452 11.8477C43.8235 11.9251 43.7017 12.0469 43.58 12.2129C43.4693 12.3678 43.3642 12.5339 43.2646 12.7109C43.1428 12.9102 43.0322 13.126 42.9325 13.3584C42.7112 13.8232 42.4788 14.3877 42.2353 15.0518C41.9918 15.7158 41.7594 16.4242 41.538 17.1768C41.3277 17.9183 41.1396 18.6764 40.9736 19.4512C40.8186 20.2148 40.7135 20.9342 40.6581 21.6094C40.5696 22.9707 40.6194 23.9834 40.8075 24.6475C40.9957 25.3226 41.2613 25.6602 41.6044 25.6602C41.7704 25.6602 41.9475 25.555 42.1357 25.3447C42.3238 25.1344 42.512 24.8633 42.7001 24.5312C42.8993 24.1992 43.093 23.8285 43.2812 23.4189C43.4693 23.0094 43.6464 22.6055 43.8124 22.207C43.912 21.9525 44.0172 21.6702 44.1279 21.3604C44.2496 21.0394 44.3658 20.7129 44.4765 20.3809C44.5982 20.0488 44.7144 19.7223 44.8251 19.4014C44.9358 19.0693 45.0354 18.7705 45.1239 18.5049C45.1239 18.1729 45.1295 17.8242 45.1405 17.459C45.1516 17.0827 45.1738 16.7064 45.207 16.3301C45.2512 15.9427 45.3066 15.5664 45.373 15.2012C45.4394 14.8249 45.5279 14.4818 45.6386 14.1719C45.8599 13.5742 46.12 13.137 46.4189 12.8604C46.7177 12.5726 46.9778 12.4232 47.1991 12.4121C47.3541 12.4121 47.4648 12.4785 47.5312 12.6113C47.5976 12.7441 47.6252 12.9212 47.6142 13.1426C47.592 13.4303 47.5422 13.779 47.4648 14.1885C47.3873 14.5869 47.2932 15.0186 47.1825 15.4834C47.0829 15.9372 46.9667 16.402 46.8339 16.8779C46.7011 17.3428 46.5738 17.791 46.4521 18.2227C46.2529 19.3626 46.1311 20.3975 46.0868 21.3271C46.0426 22.2458 46.0481 23.0371 46.1034 23.7012C46.1698 24.3542 46.275 24.8577 46.4189 25.2119C46.5738 25.5771 46.7564 25.7598 46.9667 25.7598C47.2102 25.7598 47.4648 25.5938 47.7304 25.2617C48.0071 24.9297 48.2782 24.4925 48.5439 23.9502C48.8095 23.3968 49.0641 22.7715 49.3075 22.0742C49.5621 21.377 49.789 20.6631 49.9882 19.9326C50.1985 19.1911 50.37 18.4661 50.5029 17.7578C50.6357 17.0384 50.7242 16.391 50.7685 15.8154C50.8017 15.3395 50.8183 14.8691 50.8183 14.4043C50.8183 14.0059 50.8017 13.5798 50.7685 13.126C50.7353 12.6722 50.6744 12.2627 50.5859 11.8975C50.7297 11.7757 50.9234 11.6761 51.1669 11.5986C51.2887 11.5544 51.4215 11.5156 51.5654 11.4824C51.6539 11.4603 51.748 11.4437 51.8476 11.4326C51.9361 11.4215 52.0247 11.416 52.1132 11.416C52.2017 11.4049 52.2848 11.4105 52.3622 11.4326C52.4286 11.5876 52.4729 11.7868 52.495 12.0303C52.5282 12.2738 52.5504 12.5117 52.5614 12.7441C52.5725 13.0208 52.567 13.3086 52.5448 13.6074C52.4563 14.7806 52.3014 15.9316 52.08 17.0605C51.8697 18.1895 51.6096 19.263 51.2997 20.2812C50.9898 21.2884 50.6412 22.2181 50.2538 23.0703C49.8775 23.9115 49.4846 24.6419 49.0751 25.2617C48.6767 25.8815 48.2727 26.363 47.8632 26.7061C47.4648 27.0492 47.0829 27.2207 46.7177 27.2207C46.3303 27.2207 46.0204 27.0547 45.788 26.7227C45.5556 26.4017 45.3785 25.9922 45.2568 25.4941C45.135 25.0072 45.0575 24.4814 45.0243 23.917C44.9911 23.3525 44.9801 22.8324 44.9911 22.3564C44.7366 22.9762 44.4599 23.5739 44.1611 24.1494C43.8733 24.7249 43.5689 25.234 43.248 25.6768C42.9381 26.1305 42.6171 26.4902 42.2851 26.7559C41.9641 27.0326 41.6432 27.1709 41.3222 27.1709ZM61.9035 20.3477C61.981 20.2591 62.0584 20.2148 62.1359 20.2148C62.2244 20.2038 62.2908 20.2259 62.3351 20.2812C62.3905 20.3255 62.4126 20.3975 62.4015 20.4971C62.4015 20.5967 62.3573 20.7074 62.2687 20.8291C62.0584 21.1169 61.8149 21.4157 61.5382 21.7256C61.2616 22.0244 60.9627 22.3177 60.6418 22.6055C60.3319 22.8932 60.0164 23.1644 59.6955 23.4189C59.3745 23.6735 59.0646 23.8838 58.7658 24.0498C58.4338 24.238 58.1515 24.332 57.9191 24.332C57.6977 24.332 57.4764 24.1882 57.255 23.9004C57.0558 23.6458 56.9562 23.3747 56.9562 23.0869C56.9673 22.7881 57.0337 22.4173 57.1554 21.9746C57.2329 21.6979 57.338 21.3714 57.4709 20.9951C57.6147 20.6077 57.7254 20.237 57.8029 19.8828C57.8914 19.5286 57.9191 19.2298 57.8859 18.9863C57.8527 18.7318 57.7088 18.6045 57.4543 18.6045C57.2772 18.6045 57.0835 18.6654 56.8732 18.7871C56.674 18.9089 56.4692 19.0693 56.2589 19.2686C56.0597 19.4567 55.866 19.6725 55.6779 19.916C55.4897 20.1595 55.3237 20.3975 55.1798 20.6299C55.0913 21.0615 55.0028 21.4876 54.9142 21.9082C54.8367 22.2624 54.7537 22.6497 54.6652 23.0703C54.5877 23.4798 54.5102 23.8451 54.4328 24.166C54.3664 24.2214 54.2944 24.2601 54.217 24.2822C54.1395 24.3044 54.0675 24.3154 54.0011 24.3154C53.9237 24.3154 53.8462 24.3099 53.7687 24.2988C53.6802 24.2767 53.5972 24.2435 53.5197 24.1992C53.4533 24.1549 53.3869 24.0941 53.3205 24.0166C53.2541 23.9502 53.2043 23.8561 53.1711 23.7344C53.6691 21.6868 54.062 20.0433 54.3498 18.8037C54.6375 17.5641 54.8589 16.6178 55.0138 15.9648C55.1909 15.1901 55.3127 14.6533 55.3791 14.3545C55.4123 14.1442 55.4399 13.9395 55.4621 13.7402C55.4842 13.5632 55.4953 13.3805 55.4953 13.1924C55.4953 13.0042 55.4787 12.8327 55.4455 12.6777C55.534 12.6224 55.6281 12.5781 55.7277 12.5449C55.8384 12.5117 55.9435 12.484 56.0431 12.4619C56.1649 12.4287 56.2866 12.401 56.4084 12.3789C56.5301 12.3568 56.6408 12.3457 56.7404 12.3457C56.8289 12.3457 56.9119 12.3568 56.9894 12.3789C57.0669 12.39 57.1167 12.4232 57.1388 12.4785C57.2052 12.5339 57.2329 12.6445 57.2218 12.8105C57.2218 12.9766 57.2108 13.1481 57.1886 13.3252C57.1444 13.5355 57.0946 13.7624 57.0392 14.0059C56.8068 14.9023 56.5467 15.7767 56.2589 16.6289C55.9712 17.4701 55.7056 18.3721 55.4621 19.335C55.606 19.1136 55.7775 18.8867 55.9767 18.6543C56.1759 18.4219 56.3918 18.2116 56.6242 18.0234C56.8677 17.8242 57.1222 17.6637 57.3879 17.542C57.6535 17.4092 57.9357 17.3428 58.2345 17.3428C58.3895 17.3428 58.5334 17.3704 58.6662 17.4258C58.8101 17.4701 58.9318 17.5531 59.0314 17.6748C59.1421 17.7855 59.2251 17.9404 59.2804 18.1396C59.3358 18.3278 59.3579 18.5658 59.3468 18.8535C59.3468 19.0306 59.3247 19.2132 59.2804 19.4014C59.2472 19.5895 59.1974 19.7998 59.131 20.0322C59.0646 20.2536 58.9761 20.5026 58.8654 20.7793C58.7658 21.056 58.644 21.377 58.5002 21.7422C58.4005 21.9967 58.3231 22.2126 58.2677 22.3896C58.2124 22.5667 58.2235 22.7217 58.3009 22.8545C58.4005 23.0316 58.5942 23.0758 58.882 22.9873C59.1808 22.8877 59.6235 22.5999 60.2101 22.124C60.3429 22.0133 60.4923 21.875 60.6584 21.709C60.8244 21.543 60.9849 21.377 61.1398 21.2109C61.2948 21.0339 61.4386 20.8678 61.5714 20.7129C61.7043 20.5579 61.8149 20.4362 61.9035 20.3477ZM70.2826 20.6963C70.1277 20.9176 69.9285 21.1943 69.685 21.5264C69.4415 21.8473 69.1869 22.1738 68.9213 22.5059C68.6667 22.8268 68.4122 23.1257 68.1576 23.4023C67.9141 23.668 67.7094 23.8561 67.5434 23.9668C67.4327 24.0332 67.3054 24.0885 67.1615 24.1328C67.0176 24.1771 66.8682 24.2048 66.7133 24.2158C66.5694 24.2269 66.4311 24.2158 66.2982 24.1826C66.1654 24.1605 66.0492 24.1162 65.9496 24.0498C65.85 23.9723 65.767 23.8617 65.7006 23.7178C65.6452 23.596 65.5899 23.4355 65.5346 23.2363C65.4903 23.0371 65.4737 22.7881 65.4848 22.4893C65.2191 22.932 64.9258 23.2751 64.6049 23.5186C64.2839 23.751 63.9796 23.9225 63.6918 24.0332C63.3598 24.1549 63.0277 24.2269 62.6957 24.249C62.5408 24.249 62.3747 24.1937 62.1977 24.083C62.0206 23.9834 61.8712 23.8229 61.7494 23.6016C61.6277 23.3691 61.5502 23.0758 61.517 22.7217C61.4838 22.3564 61.5281 21.9248 61.6498 21.4268C61.8048 20.7516 62.0482 20.1374 62.3803 19.584C62.7234 19.0306 63.0941 18.5602 63.4926 18.1729C63.891 17.7744 64.2839 17.4756 64.6713 17.2764C65.0587 17.0771 65.3796 16.9886 65.6342 17.0107C65.933 17.0661 66.1765 17.1546 66.3647 17.2764C66.5196 17.387 66.6192 17.5531 66.6635 17.7744C66.7188 17.9847 66.6303 18.2669 66.3979 18.6211C66.5528 18.5879 66.6801 18.5658 66.7797 18.5547C66.8904 18.5436 66.9734 18.5381 67.0287 18.5381C67.0951 18.5381 67.1394 18.5436 67.1615 18.5547C67.1726 18.5768 67.1781 18.6266 67.1781 18.7041C67.1781 18.7705 67.1615 18.8978 67.1283 19.0859C67.0951 19.2741 67.0453 19.5286 66.9789 19.8496C66.9125 20.1706 66.824 20.5856 66.7133 21.0947C66.6911 21.1943 66.669 21.2884 66.6469 21.377C66.6358 21.4544 66.6192 21.5374 66.5971 21.626C66.586 21.7035 66.5694 21.7975 66.5473 21.9082C66.5251 22.0189 66.4975 22.1572 66.4643 22.3232C66.4532 22.4229 66.4477 22.5335 66.4477 22.6553C66.4587 22.766 66.4809 22.8711 66.5141 22.9707C66.5473 23.0703 66.5971 23.1533 66.6635 23.2197C66.741 23.2751 66.8461 23.3027 66.9789 23.3027C67.0896 23.3027 67.2335 23.2363 67.4105 23.1035C67.5876 22.9596 67.7758 22.7826 67.975 22.5723C68.1742 22.3509 68.379 22.113 68.5893 21.8584C68.8106 21.5928 69.0154 21.3382 69.2035 21.0947C69.3917 20.8512 69.5577 20.6354 69.7016 20.4473C69.8565 20.2591 69.9672 20.1208 70.0336 20.0322C70.1221 19.9326 70.2107 19.8773 70.2992 19.8662C70.3878 19.8441 70.4542 19.8662 70.4984 19.9326C70.5427 19.999 70.5482 20.0986 70.515 20.2314C70.4929 20.3643 70.4154 20.5192 70.2826 20.6963ZM65.4184 21.4268C65.4737 21.2054 65.5401 20.9453 65.6176 20.6465C65.6951 20.3477 65.7615 20.0599 65.8168 19.7832C65.8721 19.5065 65.9109 19.2796 65.933 19.1025C65.9662 18.9144 65.9607 18.8258 65.9164 18.8369C65.8611 18.848 65.8002 18.8646 65.7338 18.8867C65.6785 18.9089 65.6065 18.9255 65.518 18.9365C65.4294 18.9476 65.3409 18.9642 65.2523 18.9863C65.3409 18.8092 65.3907 18.6654 65.4018 18.5547C65.4239 18.4329 65.4294 18.3389 65.4184 18.2725C65.4073 18.195 65.3852 18.1341 65.352 18.0898C65.2302 17.9902 65.0144 18.0732 64.7045 18.3389C64.4057 18.5934 64.057 19.0693 63.6586 19.7666C63.4926 20.0544 63.3598 20.3643 63.2602 20.6963C63.1605 21.0173 63.0886 21.3216 63.0443 21.6094C63.0111 21.8971 63.0056 22.1517 63.0277 22.373C63.0499 22.5833 63.0941 22.7217 63.1605 22.7881C63.2823 22.9098 63.4206 22.9707 63.5756 22.9707C63.7305 22.9596 63.8855 22.9154 64.0404 22.8379C64.2064 22.7493 64.3669 22.6387 64.5219 22.5059C64.6879 22.373 64.8318 22.2347 64.9535 22.0908C65.0863 21.9469 65.1915 21.8141 65.2689 21.6924C65.3575 21.5706 65.4073 21.4821 65.4184 21.4268ZM75.8063 19.7998C75.8506 19.7334 75.9059 19.6947 75.9723 19.6836C76.0498 19.6615 76.1107 19.667 76.1549 19.7002C76.1992 19.7334 76.2213 19.7887 76.2213 19.8662C76.2324 19.9437 76.2047 20.0488 76.1383 20.1816C75.917 20.6022 75.6237 21.056 75.2584 21.543C74.9043 22.0299 74.528 22.4893 74.1295 22.9209C73.7311 23.3415 73.3437 23.6901 72.9674 23.9668C72.5911 24.2435 72.2757 24.3818 72.0211 24.3818C71.6559 24.3818 71.3515 24.3099 71.108 24.166C70.8646 24.0221 70.6709 23.8451 70.527 23.6348C70.3942 23.4245 70.3001 23.1976 70.2448 22.9541C70.1894 22.6995 70.1728 22.4671 70.195 22.2568C70.206 22.0798 70.2448 21.7643 70.3112 21.3105C70.3776 20.8457 70.4661 20.3145 70.5768 19.7168C70.6875 19.1081 70.8092 18.4606 70.942 17.7744C71.0859 17.0771 71.2353 16.4076 71.3903 15.7656C71.2021 15.7878 71.014 15.8099 70.8258 15.832C70.6377 15.8542 70.4661 15.8652 70.3112 15.8652C69.957 15.8652 69.625 15.8265 69.3151 15.749C68.9941 15.6605 68.7562 15.5775 68.6012 15.5C68.5127 15.4557 68.4739 15.3949 68.485 15.3174C68.4961 15.2288 68.5293 15.1458 68.5846 15.0684C68.6399 14.9798 68.7119 14.9079 68.8004 14.8525C68.8779 14.7861 68.9498 14.7529 69.0163 14.7529C69.2265 14.7751 69.4534 14.7972 69.6969 14.8193C69.9404 14.8304 70.206 14.8304 70.4938 14.8193C70.7041 14.8083 70.9033 14.7917 71.0914 14.7695C71.2907 14.7474 71.4843 14.7197 71.6725 14.6865C71.8164 14.1553 71.9547 13.696 72.0875 13.3086C72.2314 12.9102 72.3587 12.6335 72.4694 12.4785C72.5026 12.4232 72.5745 12.3789 72.6852 12.3457C72.8069 12.3014 72.9342 12.2738 73.067 12.2627C73.1998 12.2406 73.3271 12.2406 73.4489 12.2627C73.5706 12.2738 73.6592 12.3125 73.7145 12.3789C73.7698 12.4674 73.792 12.6943 73.7809 13.0596C73.7698 13.4248 73.709 13.8896 73.5983 14.4541C74.0631 14.4541 74.4726 14.4818 74.8268 14.5371C75.192 14.5814 75.5019 14.6367 75.7565 14.7031C76.011 14.7585 76.2158 14.8193 76.3707 14.8857C76.5257 14.9411 76.6419 14.9798 76.7194 15.002C76.7968 15.0241 76.8356 15.0794 76.8356 15.168C76.8467 15.2565 76.8301 15.3506 76.7858 15.4502C76.7526 15.5387 76.6917 15.6162 76.6032 15.6826C76.5146 15.749 76.415 15.7712 76.3043 15.749C76.1937 15.738 76.0664 15.7158 75.9225 15.6826C75.7897 15.6494 75.6237 15.6217 75.4245 15.5996C75.2363 15.5775 75.0094 15.5553 74.7438 15.5332C74.4782 15.5111 74.1683 15.5 73.8141 15.5C73.7477 15.5 73.6702 15.5055 73.5817 15.5166C73.5042 15.5166 73.4212 15.5166 73.3327 15.5166C73.2884 15.6937 73.2441 15.8708 73.1998 16.0479C73.1666 16.2139 73.1168 16.391 73.0504 16.5791C72.9066 17.0218 72.7405 17.5033 72.5524 18.0234C72.3864 18.4772 72.1871 18.9974 71.9547 19.584C71.7223 20.1706 71.4622 20.7959 71.1745 21.46C71.108 21.9359 71.1136 22.3011 71.1911 22.5557C71.2796 22.7992 71.3847 22.9762 71.5065 23.0869C71.6504 23.2087 71.8274 23.2751 72.0377 23.2861C72.2038 23.3083 72.403 23.2529 72.6354 23.1201C72.8789 22.9762 73.1279 22.7881 73.3825 22.5557C73.637 22.3232 73.8916 22.0687 74.1461 21.792C74.4118 21.5153 74.6552 21.2441 74.8766 20.9785C75.098 20.7129 75.2916 20.4749 75.4577 20.2646C75.6237 20.0433 75.7399 19.8883 75.8063 19.7998ZM82.9855 27.1709C82.6645 27.1709 82.3657 27.027 82.089 26.7393C81.8234 26.4626 81.602 26.0586 81.4249 25.5273C81.2589 25.0072 81.1372 24.3652 81.0597 23.6016C80.9933 22.8268 80.9988 21.9469 81.0763 20.9619C81.1206 20.3089 81.2091 19.6449 81.3419 18.9697C81.4747 18.2835 81.6241 17.625 81.7902 16.9941C81.9562 16.3522 82.1333 15.749 82.3214 15.1846C82.5096 14.6201 82.6811 14.1221 82.8361 13.6904C83.0021 13.2477 83.1349 12.8936 83.2345 12.6279C83.3452 12.3623 83.4116 12.2074 83.4337 12.1631C83.4669 12.1077 83.5278 12.0524 83.6163 11.9971C83.7159 11.9307 83.8266 11.8753 83.9484 11.8311C84.0812 11.7868 84.2195 11.7536 84.3634 11.7314C84.5183 11.6982 84.6622 11.6816 84.795 11.6816C84.9057 11.6816 85.0109 11.6872 85.1105 11.6982C85.199 11.7093 85.2876 11.7259 85.3761 11.748C85.4646 11.7702 85.5421 11.8034 85.6085 11.8477C85.4868 11.9251 85.365 12.0469 85.2433 12.2129C85.1326 12.3678 85.0275 12.5339 84.9279 12.7109C84.8061 12.9102 84.6954 13.126 84.5958 13.3584C84.3745 13.8232 84.142 14.3877 83.8986 15.0518C83.6551 15.7158 83.4226 16.4242 83.2013 17.1768C82.991 17.9183 82.8029 18.6764 82.6368 19.4512C82.4819 20.2148 82.3767 20.9342 82.3214 21.6094C82.2329 22.9707 82.2827 23.9834 82.4708 24.6475C82.659 25.3226 82.9246 25.6602 83.2677 25.6602C83.4337 25.6602 83.6108 25.555 83.7989 25.3447C83.9871 25.1344 84.1752 24.8633 84.3634 24.5312C84.5626 24.1992 84.7563 23.8285 84.9445 23.4189C85.1326 23.0094 85.3097 22.6055 85.4757 22.207C85.5753 21.9525 85.6805 21.6702 85.7911 21.3604C85.9129 21.0394 86.0291 20.7129 86.1398 20.3809C86.2615 20.0488 86.3777 19.7223 86.4884 19.4014C86.5991 19.0693 86.6987 18.7705 86.7872 18.5049C86.7872 18.1729 86.7928 17.8242 86.8038 17.459C86.8149 17.0827 86.837 16.7064 86.8702 16.3301C86.9145 15.9427 86.9698 15.5664 87.0363 15.2012C87.1027 14.8249 87.1912 14.4818 87.3019 14.1719C87.5232 13.5742 87.7833 13.137 88.0821 12.8604C88.381 12.5726 88.6411 12.4232 88.8624 12.4121C89.0174 12.4121 89.128 12.4785 89.1945 12.6113C89.2609 12.7441 89.2885 12.9212 89.2775 13.1426C89.2553 13.4303 89.2055 13.779 89.128 14.1885C89.0506 14.5869 88.9565 15.0186 88.8458 15.4834C88.7462 15.9372 88.63 16.402 88.4972 16.8779C88.3644 17.3428 88.2371 17.791 88.1154 18.2227C87.9161 19.3626 87.7944 20.3975 87.7501 21.3271C87.7058 22.2458 87.7114 23.0371 87.7667 23.7012C87.8331 24.3542 87.9383 24.8577 88.0821 25.2119C88.2371 25.5771 88.4197 25.7598 88.63 25.7598C88.8735 25.7598 89.128 25.5938 89.3937 25.2617C89.6704 24.9297 89.9415 24.4925 90.2071 23.9502C90.4728 23.3968 90.7273 22.7715 90.9708 22.0742C91.2254 21.377 91.4523 20.6631 91.6515 19.9326C91.8618 19.1911 92.0333 18.4661 92.1661 17.7578C92.2989 17.0384 92.3875 16.391 92.4318 15.8154C92.465 15.3395 92.4816 14.8691 92.4816 14.4043C92.4816 14.0059 92.465 13.5798 92.4318 13.126C92.3986 12.6722 92.3377 12.2627 92.2491 11.8975C92.393 11.7757 92.5867 11.6761 92.8302 11.5986C92.9519 11.5544 93.0848 11.5156 93.2286 11.4824C93.3172 11.4603 93.4113 11.4437 93.5109 11.4326C93.5994 11.4215 93.6879 11.416 93.7765 11.416C93.865 11.4049 93.948 11.4105 94.0255 11.4326C94.0919 11.5876 94.1362 11.7868 94.1583 12.0303C94.1915 12.2738 94.2137 12.5117 94.2247 12.7441C94.2358 13.0208 94.2303 13.3086 94.2081 13.6074C94.1196 14.7806 93.9646 15.9316 93.7433 17.0605C93.533 18.1895 93.2729 19.263 92.963 20.2812C92.6531 21.2884 92.3045 22.2181 91.9171 23.0703C91.5408 23.9115 91.1479 24.6419 90.7384 25.2617C90.34 25.8815 89.936 26.363 89.5265 26.7061C89.128 27.0492 88.7462 27.2207 88.381 27.2207C87.9936 27.2207 87.6837 27.0547 87.4513 26.7227C87.2189 26.4017 87.0418 25.9922 86.92 25.4941C86.7983 25.0072 86.7208 24.4814 86.6876 23.917C86.6544 23.3525 86.6433 22.8324 86.6544 22.3564C86.3999 22.9762 86.1232 23.5739 85.8243 24.1494C85.5366 24.7249 85.2322 25.234 84.9113 25.6768C84.6014 26.1305 84.2804 26.4902 83.9484 26.7559C83.6274 27.0326 83.3064 27.1709 82.9855 27.1709ZM102.521 20.5469C102.189 21.0339 101.813 21.5098 101.392 21.9746C100.971 22.4284 100.523 22.8379 100.047 23.2031C99.5824 23.5573 99.1009 23.8451 98.6029 24.0664C98.1159 24.2878 97.64 24.3984 97.1752 24.3984C96.9317 24.3984 96.666 24.3376 96.3783 24.2158C96.1016 24.1051 95.847 23.9281 95.6146 23.6846C95.3822 23.4411 95.194 23.1257 95.0502 22.7383C94.9173 22.3509 94.8786 21.8805 94.9339 21.3271C94.9782 20.8734 95.1166 20.3975 95.349 19.8994C95.5925 19.3903 95.8858 18.9255 96.2289 18.5049C96.583 18.0843 96.9759 17.7357 97.4076 17.459C97.8503 17.1823 98.293 17.0439 98.7357 17.0439C99.1563 17.0439 99.4606 17.1491 99.6488 17.3594C99.8369 17.5697 99.92 17.8298 99.8978 18.1396C99.8646 18.4827 99.765 18.7982 99.599 19.0859C99.444 19.3737 99.2559 19.6338 99.0345 19.8662C98.8132 20.0986 98.5752 20.3089 98.3207 20.4971C98.0772 20.6852 97.8448 20.8568 97.6234 21.0117C97.3799 21.1777 97.1475 21.3382 96.9261 21.4932C96.7048 21.637 96.5111 21.7699 96.3451 21.8916C96.3561 22.1683 96.406 22.4007 96.4945 22.5889C96.583 22.777 96.6937 22.932 96.8265 23.0537C96.9593 23.1644 97.1088 23.2474 97.2748 23.3027C97.4519 23.347 97.6289 23.3691 97.806 23.3691C98.1823 23.3691 98.5752 23.2529 98.9847 23.0205C99.3942 22.777 99.7927 22.4893 100.18 22.1572C100.578 21.8141 100.944 21.46 101.276 21.0947C101.619 20.7295 101.901 20.4141 102.122 20.1484C102.2 20.0599 102.277 20.0101 102.355 19.999C102.443 19.9769 102.51 19.988 102.554 20.0322C102.609 20.0654 102.637 20.1318 102.637 20.2314C102.637 20.32 102.598 20.4251 102.521 20.5469ZM98.2709 17.9902C98.1381 17.9902 97.9776 18.0566 97.7894 18.1895C97.6123 18.3223 97.4353 18.516 97.2582 18.7705C97.0811 19.014 96.9151 19.3184 96.7601 19.6836C96.6052 20.0378 96.489 20.4473 96.4115 20.9121C96.5443 20.8125 96.6882 20.7129 96.8431 20.6133C96.9981 20.5026 97.153 20.3864 97.308 20.2646C97.7839 19.8994 98.1159 19.5785 98.3041 19.3018C98.4922 19.0251 98.5974 18.7871 98.6195 18.5879C98.6416 18.3776 98.6195 18.2282 98.5531 18.1396C98.4867 18.04 98.3926 17.9902 98.2709 17.9902ZM107.177 26.1416C107.077 26.0752 107.027 26.0033 107.027 25.9258C107.016 25.8483 107.033 25.7708 107.077 25.6934C107.121 25.6048 107.188 25.5163 107.276 25.4277C107.365 25.3503 107.47 25.151 107.592 24.8301C107.713 24.5202 107.841 24.1439 107.973 23.7012C108.117 23.2474 108.256 22.7549 108.389 22.2236C108.532 21.6924 108.665 21.1722 108.787 20.6631C108.909 20.154 109.014 19.6836 109.102 19.252C109.191 18.8203 109.257 18.4772 109.302 18.2227C109.357 17.9128 109.418 17.5752 109.484 17.21C109.54 16.889 109.6 16.5182 109.667 16.0977C109.733 15.666 109.794 15.1901 109.849 14.6699L111.178 14.0723C111.366 13.9837 111.499 14.0059 111.576 14.1387C111.653 14.2604 111.653 14.5205 111.576 14.9189C111.543 15.1182 111.482 15.4447 111.393 15.8984C111.305 16.3411 111.2 16.8337 111.078 17.376C110.967 17.9072 110.846 18.4551 110.713 19.0195C110.591 19.5729 110.469 20.0654 110.348 20.4971C110.237 20.9066 110.11 21.377 109.966 21.9082C109.711 22.8158 109.357 24.0553 108.903 25.627C109.058 25.8926 109.346 26.0254 109.766 26.0254C110.231 26.0254 110.768 25.8483 111.377 25.4941C111.997 25.14 112.594 24.6087 113.17 23.9004C113.745 23.1921 114.249 22.3066 114.681 21.2441C115.123 20.1706 115.4 18.9199 115.511 17.4922C115.566 16.7174 115.527 16.0368 115.394 15.4502C115.262 14.8636 115.057 14.3711 114.78 13.9727C114.514 13.5742 114.182 13.2754 113.784 13.0762C113.397 12.877 112.965 12.7773 112.489 12.7773C111.371 12.7773 110.215 13.2422 109.019 14.1719L108.936 12.7939C109.224 12.473 109.551 12.2295 109.916 12.0635C110.292 11.8864 110.641 11.7536 110.962 11.665C111.338 11.5654 111.72 11.5101 112.107 11.499C112.816 11.499 113.496 11.6374 114.149 11.9141C114.813 12.1797 115.383 12.5892 115.859 13.1426C116.346 13.696 116.717 14.3932 116.972 15.2344C117.226 16.0645 117.315 17.0384 117.237 18.1562C117.193 18.7982 117.06 19.4678 116.839 20.165C116.628 20.8512 116.346 21.5264 115.992 22.1904C115.649 22.8545 115.239 23.4854 114.764 24.083C114.288 24.6807 113.767 25.2008 113.203 25.6436C112.639 26.0973 112.035 26.4515 111.393 26.7061C110.751 26.9717 110.087 27.1045 109.401 27.1045C109.191 27.0934 108.964 27.0547 108.721 26.9883C108.51 26.9329 108.272 26.8389 108.007 26.7061C107.741 26.5732 107.464 26.3851 107.177 26.1416ZM123.292 21.3604C123.181 21.7809 123.032 22.1738 122.844 22.5391C122.656 22.9043 122.429 23.2197 122.163 23.4854C121.909 23.751 121.615 23.9557 121.283 24.0996C120.962 24.2546 120.608 24.332 120.221 24.332C119.767 24.332 119.407 24.2324 119.142 24.0332C118.887 23.8451 118.693 23.6071 118.561 23.3193C118.439 23.0316 118.367 22.7161 118.345 22.373C118.312 22.0299 118.295 21.709 118.295 21.4102C118.295 21.1999 118.323 20.9674 118.378 20.7129C118.422 20.4583 118.489 20.1982 118.577 19.9326C118.666 19.667 118.776 19.4014 118.909 19.1357C119.053 18.8701 119.219 18.6266 119.407 18.4053C119.474 18.2171 119.573 18.0511 119.706 17.9072C119.85 17.7633 120.01 17.6471 120.188 17.5586C120.376 17.459 120.575 17.387 120.785 17.3428C120.996 17.2874 121.2 17.2598 121.399 17.2598C121.433 17.2598 121.46 17.2653 121.482 17.2764C121.516 17.2874 121.549 17.2985 121.582 17.3096C121.726 17.3206 121.903 17.376 122.113 17.4756C122.335 17.5752 122.545 17.7246 122.744 17.9238C122.955 18.123 123.132 18.3776 123.275 18.6875C123.419 18.9863 123.491 19.3516 123.491 19.7832C123.491 19.8717 123.486 19.9824 123.475 20.1152C123.464 20.237 123.453 20.3421 123.441 20.4307C123.696 20.3311 123.962 20.2093 124.238 20.0654C124.515 19.9215 124.781 19.7721 125.035 19.6172C125.301 19.4512 125.544 19.2852 125.766 19.1191C125.987 18.9531 126.164 18.8037 126.297 18.6709C126.408 18.5713 126.502 18.516 126.579 18.5049C126.657 18.4938 126.712 18.516 126.745 18.5713C126.778 18.6266 126.784 18.7041 126.762 18.8037C126.74 18.9033 126.679 19.014 126.579 19.1357C126.524 19.2021 126.38 19.335 126.148 19.5342C125.926 19.7334 125.661 19.9492 125.351 20.1816C125.041 20.4141 124.703 20.641 124.338 20.8623C123.973 21.0837 123.624 21.2497 123.292 21.3604ZM120.486 18.8369C120.453 18.9365 120.437 19.0417 120.437 19.1523C120.437 19.3294 120.448 19.5176 120.47 19.7168C120.492 19.9049 120.547 20.0765 120.636 20.2314C120.724 20.3864 120.863 20.5192 121.051 20.6299C121.25 20.7295 121.521 20.7793 121.864 20.7793C121.92 20.7793 121.975 20.7793 122.03 20.7793C122.086 20.7682 122.141 20.7572 122.196 20.7461C122.23 20.6022 122.257 20.4749 122.279 20.3643C122.313 20.2425 122.329 20.1374 122.329 20.0488C122.351 19.8385 122.351 19.6227 122.329 19.4014C122.307 19.18 122.263 18.9808 122.196 18.8037C122.141 18.6156 122.064 18.4661 121.964 18.3555C121.875 18.2337 121.765 18.1729 121.632 18.1729C121.422 18.1729 121.217 18.2337 121.018 18.3555C120.83 18.4661 120.652 18.6266 120.486 18.8369ZM119.424 21.7588C119.424 21.958 119.435 22.1572 119.457 22.3564C119.479 22.5446 119.524 22.7161 119.59 22.8711C119.656 23.015 119.745 23.1367 119.856 23.2363C119.966 23.3249 120.11 23.3691 120.287 23.3691C120.486 23.3691 120.669 23.3249 120.835 23.2363C121.001 23.1367 121.15 23.015 121.283 22.8711C121.416 22.7161 121.532 22.5446 121.632 22.3564C121.743 22.1572 121.837 21.9525 121.914 21.7422C121.837 21.7533 121.759 21.7643 121.682 21.7754C121.615 21.7754 121.538 21.7754 121.449 21.7754C121.029 21.7754 120.663 21.6536 120.354 21.4102C120.055 21.1556 119.822 20.8346 119.656 20.4473C119.59 20.6797 119.535 20.9066 119.49 21.1279C119.446 21.3493 119.424 21.5596 119.424 21.7588Z" fill="#63AB45"/>
</g>
<defs>
<clipPath id="clip0_1_3188">
<rect width="156.23" height="41" fill="white" transform="translate(1)"/>
</clipPath>
<clipPath id="clip1_1_3188">
<rect width="156.23" height="42.8027" fill="white" transform="translate(1 -0.901367)"/>
</clipPath>
</defs>
</svg>
