<svg width="128" height="39" viewBox="0 0 128 39" fill="none" xmlns="http://www.w3.org/2000/svg">
<mask id="mask0_12_2998" style="mask-type:alpha" maskUnits="userSpaceOnUse" x="0" y="0" width="128" height="39">
<g clip-path="url(#clip0_12_2998)">
<g clip-path="url(#clip1_12_2998)">
<path d="M97.4297 1.49821C97.4785 1.50187 97.5301 1.51834 97.5741 1.50828C97.808 1.45246 98.0409 1.38932 98.2601 1.33258C98.3264 1.45429 98.3975 1.58331 98.5203 1.80566C98.5748 1.56135 98.608 1.40853 98.645 1.24108C99.1702 1.11114 99.2939 1.53847 99.5648 1.856C99.5804 1.68763 99.5901 1.58513 99.5989 1.49455C99.7723 1.42866 99.9117 1.34631 100.062 1.32618C100.173 1.31153 100.359 1.27036 100.364 1.49363C100.369 1.71233 100.599 1.56592 100.726 1.69037C100.772 1.52841 100.766 1.37194 100.849 1.30513C100.958 1.21729 101.133 1.19167 101.285 1.15781C101.392 1.13402 101.462 1.40487 101.607 1.20265C101.63 1.26579 101.68 1.33258 101.67 1.39115C101.663 1.43781 101.583 1.4735 101.528 1.52108C101.728 1.72606 102.026 1.27311 102.189 1.61625C102.214 1.55952 102.229 1.49546 102.268 1.44879C102.362 1.33808 102.524 1.34906 102.543 1.46069C102.583 1.69128 102.691 1.79194 102.941 1.83404C103.033 1.84959 103.098 1.99599 103.185 2.09299C103.712 1.97678 103.712 1.97678 103.904 2.32176C103.944 2.17352 103.975 2.05456 104.014 1.90724C104.446 2.30803 104.821 1.91639 105.224 1.85965C105.268 1.96763 105.305 2.06005 105.353 2.17992C105.402 2.08109 105.439 2.00697 105.501 1.88436C105.593 1.93469 105.677 1.99508 105.77 2.0262C105.877 2.06096 105.994 2.0692 106.133 2.09482C106.146 1.96397 106.155 1.86148 106.162 1.78005C106.371 1.62266 106.653 1.71324 107.061 2.04724C107.187 1.91639 107.316 1.78462 107.454 1.64279C107.532 1.68305 107.645 1.72972 107.641 1.7407C107.555 1.98136 107.863 1.91364 107.923 2.04907C107.6 2.21744 107.276 2.3858 106.952 2.55509C106.97 2.58895 106.986 2.62372 107.004 2.65758C107.109 2.63287 107.22 2.57523 107.318 2.59078C107.446 2.61183 107.557 2.70424 107.684 2.74268C107.953 2.8232 108.03 2.7564 108.028 2.40503C108.027 2.28241 108.329 2.19548 108.071 2.05273C108.152 2.0445 108.234 2.03535 108.315 2.0271C108.325 2.13143 108.337 2.23574 108.353 2.38764C108.46 2.40228 108.59 2.41966 108.798 2.44804C108.727 2.34371 108.696 2.2998 108.657 2.24031C108.958 2.15338 109.262 2.06646 109.61 1.9658C109.692 2.09299 109.783 2.23208 109.891 2.40045C110.509 2.38032 110.966 2.67588 111.272 3.2176C111.4 3.15994 111.499 3.08125 111.601 3.07942C111.715 3.07759 111.845 3.03916 111.926 3.23131C112.062 3.54701 112.106 3.52414 112.5 3.45734C112.681 3.42714 112.867 3.43354 113.044 3.42256C113.181 3.03367 112.725 3.27067 112.658 3.08308C112.843 3.04739 113.026 3.01079 113.218 2.97327C113.479 3.11968 113.337 3.35759 113.352 3.58819C113.483 3.55159 113.597 3.51864 113.727 3.48296C113.713 3.34296 113.697 3.17733 113.68 3.01262C113.816 3.15903 114.182 3.05746 114.11 3.35302C114.109 3.35577 114.196 3.38962 114.203 3.38047C114.383 3.17733 114.448 3.57446 114.605 3.44636C114.818 3.26975 115.032 3.32831 115.254 3.43171C115.49 3.54152 115.672 3.69891 115.802 3.90662C115.918 4.09055 116.035 4.27265 116.167 4.47853C116.007 4.48128 115.829 4.48403 115.65 4.48768C115.881 4.79789 115.983 4.82442 116.479 4.71645C116.566 4.69723 116.66 4.69174 116.751 4.69266C116.791 4.69357 116.832 4.72652 116.9 4.75763C116.6 5.03488 116.175 4.9443 115.775 5.109C116.135 5.18678 116.432 5.26822 116.719 5.40823C117.024 5.55555 117.46 5.55098 117.82 5.50522C117.998 5.48235 118.002 5.56653 118.075 5.61229C118.231 5.71019 117.969 5.92157 118.204 6.00485C118.33 6.04968 118.452 6.10367 118.576 6.15034C118.591 6.15582 118.613 6.14393 118.655 6.13386C118.66 6.08262 118.685 6.01765 118.666 5.96549C118.647 5.90785 118.586 5.86209 118.516 5.77608C118.634 5.67451 118.738 5.55921 118.867 5.47686C119.065 5.35058 119.143 5.38993 119.303 5.62601C119.378 5.73673 119.489 5.82732 119.561 5.93896C119.612 6.0204 119.626 6.12106 119.68 6.28576C119.454 6.21256 119.27 6.15308 119.051 6.0817C118.978 6.1668 118.885 6.27478 118.793 6.38276C119.045 6.55113 118.737 6.65178 118.725 6.79087C118.713 6.91715 118.601 7.03611 118.485 7.24474C118.728 7.22919 118.876 7.2548 118.983 7.20539C119.199 7.10748 119.404 7.12029 119.575 7.24107C119.838 7.425 119.962 7.34905 120.101 7.11388C120.172 6.99402 120.321 6.88237 120.509 7.06447C120.59 7.14409 120.758 7.15232 120.948 7.2118C120.759 7.30605 120.612 7.37925 120.473 7.4488C120.752 7.54488 120.881 7.89352 121.252 7.88253C121.434 8.25404 121.943 8.42515 122.053 8.79575C122.142 9.08948 122.541 9.10596 122.54 9.40518C122.741 9.1517 123.101 9.46649 123.301 9.21667C123.375 9.40335 123.443 9.57629 123.524 9.78401C123.634 9.74374 123.735 9.70623 123.842 9.66689C123.992 9.84166 123.992 9.84166 123.876 9.97983C123.962 10.0786 124.047 10.1775 124.141 10.2882C124.03 10.3431 123.93 10.3934 123.534 10.4804C123.429 10.5462 123.612 10.6103 123.749 10.4347C123.796 10.3751 123.784 10.2772 123.799 10.1967C123.717 10.2086 123.635 10.2196 123.554 10.2315C123.62 10.4804 123.293 10.334 123.534 10.4804C123.806 10.5618 123.857 10.6899 123.616 10.7064C123.451 10.7173 123.459 10.8281 123.613 10.9571C123.67 11.0056 123.713 11.0669 123.763 11.1227C123.689 11.1538 123.618 11.1905 123.541 11.2124C123.477 11.2307 123.355 11.2179 123.347 11.2426C123.225 11.6315 122.823 11.4824 122.524 11.6014C122.568 11.712 122.615 11.8246 122.661 11.9362C122.618 11.9619 122.574 11.9875 122.531 12.0131C122.615 12.079 122.698 12.1448 122.783 12.2107C122.844 12.4724 123.118 12.3937 123.234 12.3626C123.399 12.3187 123.506 12.3196 123.621 12.4139C123.678 12.4605 123.722 12.521 123.773 12.5749C123.684 12.6216 123.596 12.6683 123.551 12.6929C123.664 12.8156 123.793 12.9556 123.961 13.1359C123.608 13.2201 123.359 13.2795 123.002 13.3646C123.284 13.501 123.477 13.5933 123.707 13.7041C123.588 13.8294 123.475 13.9475 123.361 14.0655C123.64 14.1442 123.698 14.1826 123.892 14.4224C123.739 14.5423 123.588 14.664 123.432 14.7802C123.39 14.8113 123.334 14.8287 123.285 14.8525C123.471 14.9523 123.241 15.0511 123.281 15.1252C123.33 15.2157 123.611 15.1682 123.502 15.3622C123.441 15.4701 123.306 15.5342 123.479 15.6531C123.496 15.665 123.459 15.7904 123.415 15.8142C123.242 15.9067 123.059 15.9871 122.874 16.0567C122.801 16.0842 122.686 16.0338 122.763 16.183C122.801 16.258 122.726 16.3797 122.766 16.4529C122.847 16.603 122.971 16.7338 123.076 16.872C122.866 16.7594 122.607 17.1776 122.418 16.8208C122.39 16.8748 122.362 16.9278 122.334 16.9819C122.587 17.0888 122.627 17.4897 123.014 17.4045C123.032 17.4933 123.064 17.5812 123.097 17.6681C123.195 17.6279 123.294 17.5922 123.389 17.5464C123.411 17.5354 123.416 17.4933 123.438 17.4476C123.289 17.4357 123.158 17.4247 123.014 17.4045C123.043 17.2224 123.059 17.0468 123.076 16.872C123.258 17.0367 123.635 17.0313 123.614 17.3753C123.768 17.3616 123.919 17.4668 124.072 17.3964C124.135 17.367 124.184 17.314 124.26 17.2572C124.376 17.3204 124.501 17.3881 124.686 17.4897C124.582 17.5528 124.487 17.5866 124.432 17.6508C124.355 17.7404 124.309 17.8521 124.223 18.0003C124.097 18.0396 123.907 18.1 123.727 18.1559C123.758 18.2885 123.79 18.4221 123.821 18.5575C123.471 18.7735 122.975 18.6792 122.725 19.0626C122.887 19.1752 123.036 19.3418 123.219 19.3866C123.38 19.425 123.576 19.3143 123.751 19.4424C123.812 19.4864 123.915 19.4826 124.079 19.5183C123.801 19.6052 123.611 19.6656 123.39 19.7352C123.383 19.8066 123.344 19.9008 123.373 19.9722C123.46 20.1882 123.503 20.3757 123.461 20.5341C123.69 20.7719 124.276 20.7564 124.1 21.3182C123.835 21.1728 123.584 21.0336 123.31 20.8827C123.299 20.9879 123.289 21.0904 123.276 21.2322C123.424 21.2597 123.602 21.2926 123.781 21.3256C123.674 21.6669 123.552 21.9972 123.277 22.2562C123.621 22.4959 123.747 21.9332 123.984 22.1528C124.167 22.323 124.463 21.934 124.532 22.302C124.617 22.2378 124.691 22.1811 124.758 22.1299C124.487 21.9761 124.212 21.8206 123.913 21.6504C124.174 21.5717 124.329 21.5991 124.691 21.6376C125.065 21.6779 125.436 21.7025 125.78 21.8654C125.947 21.9442 125.952 21.935 126.099 22.2791C125.988 22.2617 125.889 22.2718 125.831 22.2324C125.648 22.108 125.484 21.9652 125.31 21.8288C125.244 21.924 125.186 22.0109 125.124 22.0961C125.049 22.1985 124.91 22.2983 124.911 22.3989C124.912 22.5316 125.023 22.6643 125.107 22.8363C125.02 23.0797 124.822 22.8271 124.685 22.8537C124.366 22.9159 124.152 22.7979 123.896 22.6542C123.823 22.7247 123.732 22.8116 123.646 22.894C123.702 22.9607 123.726 22.9946 123.755 23.0248C123.929 23.2005 124.155 22.7979 124.291 23.0532C124.403 23.2618 124.621 23.1951 124.779 23.2747C124.917 23.3433 125.065 23.3954 125.299 23.4915C125.101 23.5079 124.985 23.5181 124.81 23.5335C124.795 23.6287 124.775 23.7468 124.742 23.9408C124.922 23.8877 125.037 23.8255 125.149 23.831C125.238 23.8365 125.324 23.9234 125.46 24.004C125.431 23.6535 125.408 23.3707 125.378 23.0111C125.618 23.174 125.789 23.2893 126.002 23.4339C125.89 23.5519 125.774 23.6745 125.628 23.8273C125.691 23.9682 125.766 24.1393 125.838 24.3013C125.713 24.4843 125.553 24.6656 125.456 24.8714C125.377 25.0398 125.41 25.0526 124.977 25.2511C124.954 25.1688 124.932 25.0901 124.895 24.9583C124.798 25.0324 124.728 25.1166 124.636 25.145C124.567 25.167 124.467 25.1011 124.385 25.1057C124.298 25.1103 124.185 25.1303 124.138 25.1834C124.098 25.2292 124.171 25.3564 124.13 25.4012C124.084 25.4533 123.932 25.4341 123.894 25.4864C123.861 25.5321 123.937 25.6337 123.945 25.7114C123.952 25.7846 123.934 25.8606 123.927 25.9356C123.668 25.8578 123.714 26.1982 123.534 26.1818C123.131 26.1442 122.812 26.5222 122.396 26.3556C122.087 26.232 121.741 26.1351 121.501 25.9374C121.277 25.7535 121.083 25.6848 120.805 25.7223C120.64 26.104 121.087 25.8917 121.163 26.039C121.116 26.1507 120.887 26.2458 121.094 26.3922C121.303 26.5395 121.274 26.7298 121.245 26.9797C121.07 26.9321 121.06 26.6933 120.858 26.6383C120.844 26.7921 120.834 26.8946 120.821 27.0291C120.979 27.0309 121.111 27.0318 121.245 26.9797C121.506 27.0053 121.403 27.1993 121.321 27.2816C121.167 27.4362 121.198 27.5598 121.245 27.7383C121.279 27.8692 121.193 28.0365 121.121 28.1711C121.095 28.2205 120.961 28.2232 120.875 28.247C120.893 28.2955 120.941 28.3669 120.923 28.3861C120.881 28.4291 120.793 28.4346 120.748 28.4767C120.655 28.5637 120.581 28.6689 120.49 28.7577C120.394 28.8519 120.285 28.9361 120.18 29.0267C120.344 29.173 120.505 29.1447 120.671 29.0147C120.74 28.9607 120.821 28.905 120.906 28.8884C121.098 28.8519 121.218 28.9626 121.314 29.0953C120.926 29.3762 121.501 29.5427 121.42 29.788C121.413 29.8081 121.415 29.8319 121.382 29.8163C121.259 29.8721 121.171 29.9609 121.066 30.068C121.178 30.2711 121.283 30.4624 121.392 30.6627C121.446 30.6216 121.462 30.6033 121.483 30.595C121.585 30.5575 121.689 30.5227 121.79 30.4871C121.791 30.305 121.791 30.3049 121.382 29.8163C121.548 29.7577 121.684 29.6617 121.856 29.5391C122.027 29.7459 122.159 30.1192 122.622 30.0863C122.672 30.2445 122.757 30.3691 122.941 30.4385C122.96 30.4459 122.91 30.6692 122.851 30.7717C122.741 30.962 122.644 30.7854 122.536 30.746C122.453 30.7158 122.352 30.7259 122.261 30.7186C122.257 30.7406 122.171 31.134 122.171 31.134C122.192 31.3537 122.055 31.3435 121.862 31.3618C121.682 31.3793 121.449 31.446 121.597 31.7462C121.653 31.8615 121.495 32.0619 121.419 32.265C121.197 32.1451 120.988 32.0326 120.769 31.9136C120.617 31.9886 120.456 32.1332 120.297 32.1296C120.079 32.1251 120.022 32.2202 119.953 32.3739C119.72 32.2138 119.492 32.0564 119.244 31.8853C119.122 32.2101 119.015 32.5002 118.898 32.8131C118.829 32.7702 118.767 32.7326 118.607 32.6338C118.685 32.8196 118.752 32.9193 118.764 33.0245C118.778 33.1526 118.745 33.2843 118.73 33.4399C118.542 33.4473 118.318 33.3979 118.188 33.4766C118.01 33.5818 117.904 33.7858 117.697 34.032C118.047 33.9807 118.3 34.0292 118.411 34.2351C118.514 34.4273 118.7 34.6267 118.549 34.9296C118.411 34.8674 118.284 34.7723 118.15 34.7613C118.001 34.7494 117.844 34.8382 117.69 34.839C117.533 34.84 117.375 34.8455 117.233 34.7054C117.086 34.5609 116.867 34.4675 116.665 34.3797C116.627 34.3633 116.522 34.4721 116.4 34.5554C116.571 34.6039 116.709 34.6423 116.941 34.7082C116.77 34.8198 116.661 34.8921 116.553 34.9636C116.627 35.0019 116.719 35.0513 116.916 35.1539C116.694 35.1501 116.58 35.1484 116.42 35.1456C116.373 34.9562 116.32 34.7631 116.281 34.5673C116.248 34.3989 116.099 34.4685 116.01 34.4099C115.889 34.3367 115.656 34.3156 115.637 34.2461C115.503 33.7721 115.157 34.0503 114.907 34.0284C114.764 34.0192 114.789 33.805 114.602 33.8344C114.614 33.9725 114.438 34.1226 114.717 34.2114C114.885 34.2653 115.025 34.3568 115.323 34.3852C115.39 34.3916 115.492 34.398 115.516 34.4364C115.684 34.6954 115.84 34.43 116.011 34.4108C115.96 34.6679 116.037 34.9361 115.768 35.0513C115.51 34.9324 115.274 34.8226 115 34.6954C114.949 34.8711 114.914 34.9901 114.881 35.1045C114.857 35.1126 114.83 35.1291 114.822 35.1236C114.698 35.0312 114.585 34.9196 114.447 34.8463C114.332 34.7851 114.177 34.7878 114.059 34.7292C113.921 34.6606 113.794 34.5646 113.681 34.4629C113.652 34.4364 113.667 34.3367 113.699 34.2928C113.787 34.1711 113.857 34.0274 113.848 33.9396C113.842 33.8782 113.842 33.8161 113.834 33.6184C113.691 33.8315 113.576 33.934 113.552 34.0512C113.418 34.6817 113.252 34.7475 112.55 34.4264C112.541 34.4227 112.514 34.452 112.476 34.4813C112.438 34.8299 112.995 34.8565 112.959 35.2353C112.731 35.2655 112.411 35.1255 112.204 35.4018C112.17 35.4466 111.925 35.4183 111.834 35.356C111.737 35.2902 111.714 35.1401 111.646 35.034C111.629 35.0074 111.563 35.0019 111.518 34.9974C111.352 34.9809 111.185 34.969 110.994 34.9525C110.982 35.0761 110.973 35.1785 110.959 35.3249C110.509 35.3195 110.07 35.2874 109.666 35.4906C109.586 35.5308 109.393 35.3872 109.237 35.3213C109.254 35.5079 109.268 35.6727 109.288 35.8913C108.829 35.5071 108.574 35.4421 108.143 35.5656C108.19 35.6544 108.236 35.7431 108.282 35.8319C108.215 35.8594 108.166 35.8942 108.149 35.884C107.935 35.7651 107.783 35.4494 107.449 35.7129C107.432 35.7267 107.257 35.6398 107.256 35.5985C107.252 35.3222 107.021 35.4577 106.838 35.3945C106.883 35.5089 106.96 35.604 106.937 35.669C106.905 35.7605 106.805 35.8905 106.72 35.8986C106.33 35.9344 106.129 36.2153 106.033 36.4587C105.924 36.7314 105.741 36.596 105.585 36.6444C105.468 36.8036 105.485 36.9555 105.637 37.0974C105.404 37.2081 105.458 37.3537 105.615 37.5312C105.351 37.5092 105.123 37.4908 104.723 37.457C104.995 37.3637 105.13 37.3179 105.305 37.2585C105 36.8878 105.094 36.4385 104.554 36.2318C104.56 36.434 104.565 36.5859 104.572 36.811C104.455 36.8796 104.252 36.9986 104.072 37.1047C104.103 37.1916 104.136 37.2832 104.17 37.3747C104.138 37.3939 104.107 37.4122 104.076 37.4314C103.996 37.3445 103.933 37.2255 103.831 37.1797C103.719 37.1303 103.572 37.1495 103.377 37.1331C103.451 37.2786 103.495 37.3692 103.542 37.4625C103.349 37.49 103.147 37.5174 102.947 37.5485C102.926 37.5522 102.91 37.575 102.889 37.5906C102.795 37.4945 102.701 37.3985 102.58 37.2758C102.504 37.3133 102.42 37.3426 102.35 37.3902C102.15 37.5266 101.986 37.7563 101.642 37.5888C101.771 37.4625 101.887 37.3491 102.023 37.2155C101.659 36.9465 101.387 37.3408 101.122 37.1899C101.163 37.3765 101.193 37.5147 101.247 37.7636C100.989 37.5723 100.733 37.5458 100.711 37.2859C100.428 37.3491 100.144 37.4112 99.862 37.4772C99.8191 37.4872 99.748 37.5129 99.747 37.5339C99.7431 37.6656 99.6759 37.7773 99.5414 37.7023C99.4586 37.6556 99.4576 37.49 99.4108 37.3509C99.3105 37.3097 99.1468 37.2741 99.026 37.188C98.6167 36.8961 98.3361 36.8073 97.734 36.8338C97.8197 37.1862 98.1295 37.3664 98.532 37.6638C98.2504 37.5961 98.1237 37.5687 97.999 37.5339C97.9162 37.511 97.7875 37.4333 97.7642 37.4552C97.619 37.5888 97.4414 37.5852 97.3106 37.4982C97.2208 37.4387 97.2091 37.2841 97.1593 37.1651C97.2452 37.0864 97.6151 37.177 97.377 36.8613C97.09 36.9153 96.8089 36.9739 96.8099 37.4085C96.5786 37.2722 96.4029 37.1541 96.2136 37.0617C96.0067 36.9611 95.8223 36.8384 95.5382 36.972C95.2972 37.0855 95.0737 37.0297 94.6901 36.8421C94.5066 36.7525 94.5124 36.9163 94.3622 36.918C94.7067 37.2172 95.1468 37.3774 95.3528 37.7727C95.2181 37.942 95.0112 37.9209 94.9301 37.8221C94.7731 37.6327 94.5593 37.5787 94.3456 37.5027C94.2968 37.4854 94.2334 37.4497 94.1963 37.4635C94.0704 37.5119 93.9601 37.5933 93.8322 37.6346C93.7453 37.6629 93.7482 37.4708 93.5648 37.5504C93.3315 37.651 93.5307 37.4396 93.3423 37.3774C93.6126 37.3646 93.7473 37.3582 93.8986 37.3509C93.555 36.951 93.555 36.951 93.2457 37.0636C93.1813 36.9647 93.111 36.8559 93.0397 36.746C92.7947 36.9309 92.5908 37.0864 92.3907 37.2374C92.2239 37.2237 92.0618 37.2099 91.8344 37.1916C91.9212 37.0233 91.9916 36.8888 92.0794 36.7204C91.8686 36.703 91.7066 36.6893 91.4928 36.6719C91.4714 36.9016 91.4479 37.1524 91.4167 37.4781C91.3064 37.3902 91.2644 37.3564 91.1971 37.3024C91.0848 37.3774 90.9638 37.4598 90.8486 37.5366C90.594 37.3985 90.3626 37.2731 90.0718 37.1157C90.266 37.0955 90.4105 37.0801 90.592 37.0608C90.4446 36.9748 90.3344 36.9107 90.2095 36.8384C89.9566 37.069 89.6854 37.3161 89.4111 37.565C89.1593 37.4414 88.8957 37.3719 88.7377 37.2155C88.6029 37.0818 88.5903 36.8476 88.5064 36.6088C88.3063 36.8211 88.1726 36.9959 87.9998 37.1303C87.9305 37.1843 87.7646 37.1258 87.665 37.1651C87.6006 37.1907 87.5977 37.3253 87.5323 37.3664C87.4445 37.4214 87.3235 37.4323 87.1595 37.479C87.1097 37.328 87.0531 37.1541 86.9936 36.9739C86.978 36.9776 86.9282 36.9757 86.9117 36.9959C86.8453 37.0772 86.8004 37.1752 86.7253 37.2484C86.6862 37.2859 86.5915 37.3087 86.5378 37.2932C86.4949 37.2804 86.4373 37.1734 86.4549 37.1514C86.6432 36.9098 86.5467 36.7753 86.2568 36.7542C86.0469 36.7387 85.9025 36.7131 85.8732 36.4871C85.8693 36.455 85.6575 36.4258 85.5433 36.4276C85.1364 36.4331 84.9294 36.402 84.6152 36.272C84.5322 36.2382 84.4385 36.2263 84.3575 36.1915C84.2755 36.1568 84.2024 36.1055 84.1975 36.1028C84.0315 36.1933 83.8685 36.2821 83.7241 36.3608C83.7475 36.4395 83.7475 36.5035 83.7729 36.5145C83.9691 36.5932 84.1613 36.6673 84.1213 36.9428C83.9242 36.9345 83.6743 37.0608 83.688 36.6527C83.5944 36.7085 83.5358 36.768 83.4684 36.7781C83.3757 36.7917 83.2703 36.7817 83.1804 36.7552C83.079 36.725 82.9892 36.6655 82.8936 36.6179C82.8526 36.6902 82.8263 36.8073 82.7666 36.8238C82.6652 36.8513 82.509 36.8531 82.4349 36.7992C82.2865 36.6902 82.1772 36.5365 82.0522 36.401C81.8317 36.6417 81.5487 36.4185 81.2793 36.5045C81.1983 36.6344 81.0997 36.7936 80.9904 36.9693C80.9426 36.9263 80.8781 36.8942 80.8587 36.8467C80.76 36.6052 80.6283 36.3901 80.3151 36.2126C80.2643 36.3123 80.2106 36.4166 80.1657 36.5045C80.1784 36.5154 80.277 36.6015 80.4712 36.7707C80.1501 36.7442 79.9715 36.7296 79.747 36.7104C79.8026 36.6536 79.8407 36.6152 79.9334 36.5219C79.7168 36.4916 79.5411 36.466 79.3166 36.4349C79.4445 36.6289 79.5343 36.7661 79.668 36.9684C79.4562 36.9675 79.3244 36.9665 79.1781 36.9657C79.1674 36.8146 79.1585 36.6929 79.1487 36.5557C79.0512 36.5877 78.8404 36.4569 78.9546 36.6655C79.0512 36.843 78.8491 36.8128 78.8452 36.833C78.7555 36.7479 78.6354 36.6335 78.5398 36.542C78.5818 36.5127 78.6871 36.4395 78.8911 36.2968C78.6071 36.3279 78.4627 36.3425 78.3192 36.3599C78.1894 36.3764 78.0606 36.3964 77.9279 36.4157C77.8752 36.316 77.8058 36.1851 77.7375 36.0561C77.3627 36.1851 77.2222 36.4267 77.2779 36.8092C76.9909 36.6738 76.7625 36.5648 76.5088 36.445C76.7157 36.3141 76.8045 36.2172 76.6328 36.0488C76.496 35.9151 76.339 35.8804 76.1935 35.9682C76.0374 36.0624 75.9193 36.2089 75.8959 36.2299C75.4557 36.3599 75.2742 35.9097 74.9638 36.1568C74.7472 36.0872 74.5305 36.0176 74.262 35.9307C74.1489 36.0863 74.0005 36.2912 73.819 36.542C73.6785 36.4871 73.5174 36.4248 73.3583 36.3635C73.5565 36.1668 73.7184 36.0057 73.9449 35.7815C73.7194 35.7367 73.5935 35.7111 73.4852 35.6892C73.4443 35.7202 73.4257 35.734 73.4071 35.7486C73.7233 36.0323 73.3838 36.0351 73.2227 36.1568C72.7943 36.4806 72.6937 36.4752 72.4077 36.0167C72.2789 35.9783 72.4194 36.4614 72.1374 36.1284C71.948 36.3352 71.7577 36.5438 71.4864 36.8403C71.461 36.6234 71.4581 36.5118 71.4318 36.4047C71.4025 36.2858 71.3527 36.1714 71.3137 36.0597C71.0873 36.2281 70.8891 36.3764 70.691 36.5237C70.6334 36.1604 70.2342 36.3151 70.0576 36.1768C69.7658 35.949 69.7814 36.2089 69.6867 36.3077C69.3159 36.3316 68.9352 36.1174 68.5683 36.3425C68.5371 36.3617 68.4424 36.3077 68.3858 36.2766C68.2315 36.1924 68.0803 36.1028 67.9231 36.0222C67.7407 35.9051 67.8812 36.5035 67.5718 36.1522C67.5309 36.1055 67.2849 36.2062 67.1024 36.2455C67.0829 36.0936 67.0653 35.9555 67.0399 35.7651C66.7891 35.8786 66.59 35.9728 66.386 36.0588C66.1284 36.1668 66.7451 36.4514 66.1782 36.4908C66.2045 36.5118 66.1683 36.4733 66.1245 36.4496C66.0659 36.4193 65.9996 36.4002 65.8844 36.3572C65.8971 36.2189 65.9127 36.0561 65.9292 35.8822C65.8121 35.8721 65.6901 35.8603 65.6891 35.863C65.6267 36.2858 65.2588 36.4248 64.9084 36.5511C64.56 36.4038 64.6283 36.0515 64.4458 35.7587C64.559 35.6992 64.6829 35.6342 64.8693 35.5363C64.7152 35.4037 64.5337 35.2161 64.5102 35.2307C64.2331 35.4083 64.1598 35.1767 63.9901 35.0175C63.9539 35.1575 63.9246 35.2691 63.8944 35.3862C63.7646 35.5656 63.3449 35.174 63.3049 35.6516C63.706 35.6671 64.114 35.6627 64.2789 36.0872C64.1569 36.0972 64.0222 36.1091 63.8749 36.1211C63.8436 36.2382 63.8114 36.3572 63.7792 36.477C63.7529 36.4752 63.7275 36.4733 63.7012 36.4724C63.6934 36.3581 63.6864 36.2437 63.6777 36.1091C63.4757 36.0341 63.2775 35.9582 63.218 36.2711C63.1839 36.262 63.1487 36.2574 63.1185 36.2428C62.8179 36.0991 62.5094 35.9893 62.2411 35.7696C62.0644 35.625 61.7121 35.6571 61.4144 35.6827C61.594 35.7678 61.7746 35.853 62.0205 35.9692C61.797 36.1101 61.4456 35.9334 61.4446 36.2647C61.2446 36.2976 61.0455 36.3297 60.7868 36.3718C60.6913 36.2391 60.5741 36.0762 60.457 35.9115C60.1359 36.1668 59.8607 36.3041 59.4576 36.1412C59.3112 36.0817 59.0701 36.2034 58.8769 36.2574C58.6398 36.3233 58.4338 36.4843 58.1537 36.4212C58.0981 36.4083 57.98 36.4743 57.9575 36.5273C57.8736 36.7269 57.7555 36.6811 57.653 36.5639C57.5701 36.4687 57.5281 36.3452 57.4471 36.1951C57.3964 36.3544 57.3554 36.4843 57.3017 36.6536C57.0781 36.5283 56.8908 36.4221 56.6137 36.2666C56.6752 36.4093 56.6927 36.4962 56.7454 36.5594C56.7884 36.6106 56.8732 36.6325 56.9679 36.6829C56.516 36.9309 56.516 36.9309 56.1413 37.4762C55.9997 37.3618 55.8641 37.2512 55.7207 37.1349C55.34 37.3051 54.9106 37.2923 54.5748 37.1193C54.3738 37.0159 54.2186 37.3033 54.1122 37.0882C54.0225 36.908 53.8633 37.2145 53.7345 37.0078C53.6398 36.8567 53.4007 37.0096 53.2309 37.0653C53.2104 37.0718 53.1822 37.0653 53.1587 37.0599C52.946 37.0132 52.7166 36.897 52.5243 36.9336C52.2608 36.9849 52.2023 36.7707 51.9153 36.7661C51.6167 36.865 51.3073 37.2658 50.7578 37.1166C50.7402 36.9903 50.7217 36.8531 50.6914 36.6325C50.2669 36.9886 49.7614 36.9711 49.3153 37.1166C49.2587 37.0086 49.1904 36.8796 49.0928 36.6939C48.9552 36.8367 48.8488 36.9482 48.7375 37.0636C48.4643 36.7771 48.2311 36.972 48.0056 37.1642C47.8982 37.0672 47.9842 36.8257 47.7157 36.8751C47.4424 36.9245 47.3371 36.7305 47.1867 36.5704C47.0881 36.735 46.9838 36.8851 46.7329 36.7954C46.5348 36.725 46.485 36.8467 46.4587 37.0123C46.2498 36.9949 46.04 36.9776 45.8068 36.9584C45.7804 36.8942 45.7433 36.8028 45.6984 36.6921C45.5881 36.8705 45.4895 37.0297 45.4134 37.1505C45.0757 37.2164 44.7683 37.2758 44.4218 37.3426C44.3701 37.1734 44.2998 36.9446 44.2169 36.6692C44.0656 36.7634 43.9319 36.8412 43.8041 36.9263C43.5747 37.0782 43.3288 37.2045 43.037 37.1459C42.6856 37.0755 42.5245 37.253 42.387 37.5329C42.2113 37.4589 42.0337 37.4076 41.8862 37.3161C41.452 37.0462 40.9825 36.9629 40.4965 37.1222C40.2467 37.2045 40.072 37.2045 39.8446 37.0653C39.6483 36.9455 39.3917 36.9144 39.2004 37.1166C39.0394 37.2859 38.7417 37.2493 38.6773 37.1734C38.4547 36.9098 38.1502 37.0772 38.0712 37.1514C37.7814 37.4241 37.4612 37.3518 37.1314 37.3243C37.0357 37.3161 36.9411 37.3087 36.8512 37.3014C36.7137 37.0032 36.577 36.9199 36.3769 37.0709C36.1944 37.2091 36.0041 37.2218 35.7991 37.2512C35.7582 37.2566 35.6927 37.3298 35.6917 37.3289C35.2711 36.9117 35.0623 37.4185 34.746 37.5202C34.7353 37.3756 34.7265 37.252 34.7168 37.1239C34.3303 37.2439 34.0248 37.4268 33.7691 37.6867C33.6052 37.5925 33.4392 37.4964 33.2558 37.3902C33.084 37.4589 32.8995 37.5312 32.7404 37.5943C32.4847 37.4954 32.3247 37.166 31.9606 37.4186C31.8612 37.4881 31.7313 37.1569 31.5771 37.3912C31.499 37.2576 31.3663 37.231 31.2141 37.2283C31.094 37.2264 30.974 37.2099 30.8744 37.2018C30.727 37.3079 30.5953 37.4021 30.4665 37.4954C30.5114 37.5504 30.5513 37.5998 30.6441 37.7132C30.4684 37.6986 30.3532 37.6986 30.2429 37.6785C29.6252 37.5641 29.6252 37.5631 29.148 37.8569C28.9293 37.7819 28.7497 37.554 28.4579 37.7792C28.3437 37.867 28.1036 37.8194 27.9221 37.8404C27.7982 37.8551 27.7025 37.7517 27.5395 37.8367C27.4039 37.9072 27.1686 37.823 26.8807 37.7992C26.9628 37.909 27.0027 37.9621 27.0311 37.9997C26.6661 38.0801 26.2951 38.1616 25.8852 38.2513C25.9379 38.1387 26.0463 38.018 26.0151 37.9475C25.9702 37.8469 25.8344 37.7434 25.7174 37.716C25.6256 37.694 25.4949 37.8825 25.3719 37.6135C25.3241 37.8331 25.2899 37.9914 25.2548 38.1497C24.9298 38.2851 24.6009 38.3529 24.1929 38.1634C24.3023 38.104 24.3803 38.0564 24.4623 38.018C24.5501 37.9777 24.598 38.2458 24.6936 38.0582C24.7599 37.9292 24.6565 37.8734 24.5072 37.8596C24.4545 37.8551 24.4105 37.7719 24.3823 37.7453C24.2895 37.8194 24.2095 37.9274 24.1031 37.9576C23.9558 37.9988 23.8035 37.9265 23.6288 38.0216C23.0852 38.3162 22.9642 38.287 22.5328 37.9182C22.484 37.8761 22.4264 37.8441 22.3835 37.8139C22.2107 37.9576 22.0545 38.0893 21.9014 38.2174C21.6496 38.0097 21.5354 37.7416 21.1518 37.9411C20.8082 38.1195 20.778 38.0728 20.4745 37.7224C20.3554 37.586 20.3056 37.6071 20.1465 37.8788C19.9299 37.8605 19.7025 37.8423 19.5307 37.8276C19.5298 37.695 19.477 37.5439 19.5366 37.4863C19.8762 37.156 19.8723 37.0864 19.478 36.9163C19.2096 36.8 18.9734 36.606 18.6953 36.5319C18.3917 36.4504 18.1673 36.2876 17.9243 36.1311C17.7037 35.9902 17.4685 35.8667 17.1816 35.7029C17.1552 35.7404 17.0937 35.8273 16.9893 35.9746C16.8039 35.7221 16.4672 35.7733 16.4408 35.4266C16.4203 35.1511 16.0172 35.109 15.8825 34.8336C15.7644 34.5911 15.1837 34.7677 15.0676 35.0697C15.053 35.1081 15.092 35.1639 15.1028 35.2124C15.1028 35.2143 15.0627 35.2252 15.0403 35.227C15.0168 35.2289 14.9856 35.2316 14.9691 35.2206C14.9134 35.1822 14.8627 35.1374 14.7709 35.0642C14.7456 35.1712 14.7162 35.2618 14.7055 35.3533C14.6958 35.4329 14.7065 35.5152 14.7084 35.5848C14.968 35.6663 15.1681 35.3405 15.4063 35.5821C15.416 35.7907 15.2638 35.873 15.0627 35.8877C14.9475 35.8969 14.8217 35.8759 14.7114 35.8411C14.4987 35.7733 14.2966 35.6306 14.0858 35.6214C13.8954 35.6141 13.6993 35.7423 13.5071 35.8136C13.4456 35.8365 13.388 35.8676 13.2865 35.9152C13.1859 35.7651 13.0942 35.6287 12.9771 35.4549C12.5652 35.6379 12.0987 35.5089 11.6361 35.4668C11.4927 35.4539 11.3355 35.3589 11.2281 35.2609C10.9978 35.0522 10.8114 34.8198 10.4806 34.699C10.3322 34.645 10.2697 34.3971 10.1526 34.2114C10.2014 33.9277 10.7295 34.3212 10.7392 33.8846C10.6377 33.8215 10.5128 33.7438 10.3917 33.6678C10.218 33.7849 10.0316 33.9103 9.80128 34.0668C9.74565 33.9203 9.71051 33.8298 9.67538 33.7383C9.41674 33.7173 9.15714 33.6952 8.90533 33.6742C8.85068 33.7694 8.80383 33.8508 8.75992 33.9277C8.3588 33.7867 8.30316 33.3677 7.91765 33.2843C7.89618 33.2798 7.88154 33.2103 7.88252 33.1709C7.88349 33.0904 7.89521 33.0099 7.90888 32.8726C8.0133 32.9678 8.05917 33.0099 8.1392 33.083C8.16458 32.9907 8.17238 32.9119 8.20654 32.8452C8.28852 32.6877 8.30609 32.5166 8.62035 32.6887C8.93169 32.8588 9.29963 32.707 9.58657 32.4746C9.66269 32.6219 9.71441 32.7225 9.76907 32.8296C10.1067 32.5533 10.4102 32.3053 10.6806 32.083C10.7674 32.0903 10.7997 32.0838 10.8143 32.0957C10.869 32.1369 10.9168 32.1845 11.0291 32.2851C11.0125 32.1451 11.032 32.007 10.9861 31.9859C10.8055 31.9027 10.6084 31.8359 10.4093 31.8011C10.1731 31.759 9.92911 31.7563 9.70173 31.7371C9.64707 31.6354 9.61096 31.4835 9.5485 31.4735C9.42552 31.4533 9.27914 31.4945 9.15714 31.5421C8.88776 31.6473 8.62718 31.7718 8.36368 31.889C8.08454 31.5577 7.57118 31.8706 7.31841 31.6025C7.13102 31.4039 6.99146 31.6556 6.78455 31.5385C6.53862 31.3985 6.59912 31.2941 6.62938 31.0955C6.80017 31.1926 6.9573 31.2814 7.11248 31.3691C7.18861 31.1285 7.39941 30.9986 7.65805 30.9738C7.81421 30.9592 8.03868 30.994 8.13335 31.0882C8.37734 31.3316 8.65842 31.2045 8.97072 31.1916C8.91315 31.1276 8.86142 31.0169 8.79603 31.0096C8.54033 30.9803 8.4193 30.864 8.391 30.5676C8.57253 30.6125 8.77066 30.6079 8.8458 30.6921C9.00976 30.8759 9.24107 30.5181 9.35721 30.7771C9.38453 30.7213 9.41284 30.6664 9.44017 30.6106C8.9961 30.488 8.68867 30.1101 8.20557 30.0661C8.17141 30.0634 8.13139 30.1183 8.00744 30.2126C8.07186 30.0286 8.10699 29.9271 8.15384 29.7925C8.16458 29.8026 8.13627 29.7559 8.10699 29.755C7.86007 29.7486 7.63267 29.7248 7.48335 29.5033C7.45309 29.4576 7.27546 29.4266 7.254 29.4522C7.0832 29.6498 7.04026 29.3451 6.91826 29.3891C6.96901 29.3241 7.02074 29.2591 7.0754 29.1886C6.80408 29.0907 6.5308 28.9919 6.25753 28.894C6.22142 28.6752 6.2829 28.496 6.42052 28.3028C6.52983 28.1501 6.88704 28.1546 6.76894 27.8636C6.97389 27.8032 7.17982 27.7429 7.41015 27.6752C7.30474 27.5616 7.24229 27.4939 7.17982 27.4262C6.97877 27.6989 6.91241 27.7254 6.66549 27.5918C6.37953 27.4381 6.10236 27.2716 5.86617 27.1361C5.88374 27.0483 5.92473 26.9403 5.90423 26.9294C5.5724 26.7564 5.29328 26.4947 4.89313 26.4362C4.82969 26.427 4.74673 26.3968 4.71745 26.352C4.6628 26.2678 4.64132 26.1671 4.60619 26.0728C4.69208 26.049 4.77698 26.0244 4.93412 25.9805C4.76527 25.8679 4.64328 25.7544 4.49494 25.6968C4.36025 25.6446 4.13578 25.7041 4.0577 25.6263C3.83909 25.4095 3.72197 25.7608 3.49847 25.6373C3.45748 25.4323 3.4038 25.1559 3.70049 25.069C4.01866 24.9757 4.29389 24.5914 4.71257 24.8998C4.90386 25.0416 5.13126 25.1432 5.33427 25.2593C5.40746 25.1359 5.45431 24.9473 5.58509 24.8604C5.78614 24.7268 5.74612 24.5768 5.77345 24.445C5.64462 24.3535 5.53824 24.6115 5.4953 24.4139C5.46602 24.283 5.4465 24.2135 5.29328 24.219C5.31084 24.1449 5.3694 24.0305 5.33817 24.003C5.22398 23.9051 5.07856 23.8374 4.84042 23.6956C5.14493 23.691 5.32645 23.6883 5.50994 23.6864C5.59583 23.5437 5.60754 23.4531 5.38013 23.4256C5.20153 23.4045 5.00341 23.6131 4.84628 23.3872C4.77601 23.4531 4.70574 23.5199 4.6306 23.5904C4.34561 23.4622 4.04111 23.3249 3.72099 23.1813C3.69561 23.2957 3.67316 23.3982 3.63804 23.562C3.49359 23.4989 3.36672 23.4073 3.233 23.3954C3.10027 23.3835 2.95974 23.4512 2.8348 23.4814C2.67475 23.1832 3.2818 23.1749 3.00756 22.8885C3.30913 22.7448 3.5297 22.9736 3.81956 23.0632C3.84201 22.8281 3.86152 22.6222 3.88592 22.3614C3.6595 22.3897 3.44577 22.4163 3.21641 22.4456C3.09832 22.0896 3.49847 21.903 3.5824 21.5232C3.39892 21.5845 3.28961 21.6385 3.17347 21.6531C3.06416 21.6669 2.94704 21.6394 2.76064 21.6239C2.827 21.7858 2.86408 21.8773 2.9041 21.9744C2.89044 21.9826 2.8514 22.0274 2.82309 22.0228C2.41221 21.9487 2.34877 21.8984 2.38977 21.5818C2.41319 21.3997 2.32243 21.1838 2.54007 21.0336C2.57715 21.008 2.54007 20.8891 2.53031 20.8131C2.51469 20.6942 2.49322 20.5762 2.47175 20.4398C2.6484 20.4306 2.78406 20.4233 3.02902 20.4114C2.8797 20.2605 2.78991 20.1699 2.6767 20.0563C2.6767 20.0573 2.66109 19.9859 2.68256 19.975C2.92752 19.8487 2.96851 19.608 3.09637 19.4141C3.23593 19.2036 3.00268 19.3005 2.9812 19.252C2.95485 19.1926 3.04855 19.0599 3.01829 19.0361C2.86116 18.9144 3.13931 18.7781 2.96559 18.6298C2.86799 18.5466 3.01439 18.3635 3.12565 18.2437C3.15297 18.2144 3.04464 18.1 3.03976 18.0232C3.03488 17.9536 3.06416 17.8594 3.11686 17.8145C3.31303 17.6479 3.31888 17.6535 3.16468 17.442C2.82797 17.5345 2.71476 17.5327 2.25605 17.4778C2.09502 17.4585 1.89593 17.4256 1.771 17.4897C1.41965 17.6681 1.70561 17.3049 1.58264 17.3167C1.21567 17.2563 0.857495 17.1968 0.483699 17.1346C0.470035 17.1603 0.430997 17.2334 0.382198 17.3259C0.316808 17.1905 0.259226 17.0724 0.174316 16.8967C0.387077 16.9352 0.606671 16.9177 0.732571 17.0074C1.04879 17.2344 0.830168 16.8327 0.999986 16.8794C1.25666 16.9965 1.55043 17.1301 1.86274 17.2719C1.87055 17.2555 1.91349 17.2051 1.91642 17.153C1.9379 16.7787 1.9779 16.7311 2.35854 16.5335C2.42393 16.4996 2.43564 16.3889 2.48834 16.3248C2.53031 16.2736 2.59667 16.2388 2.65231 16.1967C2.74013 16.2526 2.82895 16.3093 2.97925 16.4053C3.01634 16.1866 3.04269 16.0265 3.0749 15.8389C2.97242 15.9487 2.89044 16.0365 2.8348 16.0961C2.29607 15.7694 1.80711 15.9176 1.37769 15.795C1.3201 15.9075 1.28302 15.9817 1.19323 16.1555C1.18152 15.6349 0.823336 15.6028 0.354871 15.6065C0.855542 15.2295 1.39818 15.4628 1.83639 15.2249C1.71049 14.9376 1.39428 14.9211 1.08978 14.8021C1.32108 14.5011 1.54653 14.2074 1.77491 13.909C1.72025 13.8011 1.38549 13.8743 1.53677 13.6218C1.89691 13.6629 1.78662 13.3372 1.91642 13.1944C1.99157 13.2759 2.055 13.3436 2.1204 13.4149C2.06965 13.457 2.01987 13.4991 1.96912 13.5412C2.03061 13.6071 2.09307 13.6748 2.19848 13.7873C2.24142 13.5522 2.2785 13.3536 2.33902 13.0242C2.39465 13.1761 2.40538 13.2319 2.43369 13.2795C2.47858 13.3545 2.53421 13.4232 2.61717 13.5376C2.70696 13.4689 2.81139 13.4214 2.85823 13.3445C2.90118 13.274 2.88165 13.1734 2.89435 13.0416C3.12174 13.049 3.35305 13.0563 3.73563 13.0682C3.51701 12.9309 3.41258 12.8266 3.28668 12.7964C3.12662 12.7589 2.9773 12.7543 2.83969 12.6316C2.78406 12.5814 2.53909 12.4935 2.46492 12.7635C2.40928 12.9656 2.15846 12.9959 1.82858 12.9007C2.03646 12.7863 2.18286 12.7058 2.33414 12.6225C2.25118 12.585 2.17017 12.5484 2.08527 12.5099C2.10869 12.4825 2.13504 12.4312 2.15455 12.4331C2.35463 12.4541 2.46101 12.359 2.33804 12.2217C2.218 12.0881 2.00718 12.0213 1.78857 11.8987C2.01012 11.917 2.27265 11.8704 2.35463 11.9591C2.58398 12.208 2.65231 11.6855 2.82895 12.0223C2.85336 11.7651 2.86702 11.6178 2.89141 11.3588C2.70501 11.5445 2.59081 11.6589 2.4737 11.7761C2.44832 11.5739 2.42393 11.3734 2.39757 11.1603C2.57813 11.098 2.80748 11.0184 3.00951 10.9479C3.08466 11.034 3.16762 11.1292 3.26034 11.2371C3.51408 10.9434 3.30328 10.7064 3.26228 10.4703C3.57264 10.4236 3.71318 10.3074 3.54921 10.0329C3.37452 10.0613 3.19787 10.0896 3.02219 10.118C3.01341 9.93316 3.16664 9.78858 3.09441 9.56531C3.00756 9.29811 3.41746 9.19746 3.51506 8.96687C3.82541 8.9934 3.68292 8.87811 3.5902 8.77287C3.57948 8.76006 3.5824 8.72072 3.59606 8.70974C3.81858 8.52673 3.72685 8.31352 3.60582 8.07195C3.78442 8.08658 3.89763 8.09573 4.03232 8.10763C4.10162 8.2641 4.1836 8.45078 4.27533 8.65941C4.45296 8.59719 4.61888 8.53953 4.86873 8.45352C4.6306 8.34647 4.44809 8.26502 4.22166 8.16345C4.27924 8.0573 4.3866 7.94018 4.39928 7.81573C4.41295 7.68122 4.33878 7.53847 4.30755 7.41677C4.54276 7.27585 4.77211 7.13768 5.01317 6.99218C5.08832 7.06814 5.18007 7.16055 5.27278 7.25389C5.52165 7.14774 5.07369 6.8961 5.38404 6.80277C5.40258 6.5557 5.50799 6.56211 5.70123 6.69479C5.74808 6.72682 5.87886 6.65819 6.08967 6.60694C5.88569 6.50995 5.75783 6.44955 5.68269 6.41387C5.81542 6.21439 5.88374 6.11098 5.95987 5.99569C6.00671 6.03686 6.05258 6.07713 6.10821 6.12654C6.16091 6.04602 6.21362 5.96458 6.32195 5.79895C6.31707 6.09177 6.31414 6.29858 6.31024 6.5493C6.40198 6.50171 6.46541 6.44773 6.53666 6.43857C6.6284 6.42577 6.72599 6.44955 6.87239 6.46145C6.88898 6.28851 6.90362 6.12563 6.92607 5.88864C7.10272 6.1668 7.56338 5.98654 7.53507 6.37086C7.60145 6.36903 7.6883 6.39008 7.72734 6.35988C7.76639 6.32969 7.7898 6.22629 7.76345 6.19426C7.69513 6.11282 7.60534 6.03504 7.50579 5.98745C7.32719 5.90235 7.13493 5.84105 6.96609 5.77699C6.98268 5.60131 6.99634 5.45398 7.01098 5.30025C7.16225 5.32587 7.33402 5.58301 7.40235 5.36613C7.48433 5.10718 7.66586 5.26182 7.77711 5.20143C7.90302 5.13371 7.96255 4.96901 8.08553 4.89031C8.1675 4.83815 8.30902 4.86194 8.4359 4.85188C8.52763 4.66246 8.62718 4.4584 8.74918 4.20951C8.98927 4.28729 9.2196 4.36232 9.4919 4.45017C9.63439 3.96976 10.1058 3.94506 10.5137 3.85447C10.7655 3.79865 10.9832 3.91303 11.0964 4.15278C11.3638 4.02467 11.5766 3.87826 11.5493 3.53694C11.8937 3.57721 12.2139 3.51773 12.4608 3.83068C12.531 3.91944 12.8336 4.04023 13.023 3.73825C13.1225 3.57903 13.4748 3.55067 13.8057 3.42897C13.6934 3.64217 13.6232 3.77761 13.5353 3.94506C13.7081 3.9597 13.8213 3.96885 13.9989 3.98349C13.9726 3.87094 13.9472 3.7648 13.9189 3.64584C14.0263 3.58453 14.1092 3.36583 14.3532 3.5708C14.4557 3.65682 14.724 3.71721 14.81 3.65865C15.0217 3.51681 15.2218 3.57995 15.4277 3.59276C15.9206 3.62479 15.9508 3.6742 16.4691 3.39145C16.881 3.16635 17.1611 3.29172 17.5036 3.47472C17.5446 3.41066 17.5983 3.3274 17.6549 3.23956C17.6901 3.27982 17.7193 3.31368 17.7847 3.3878C17.9164 3.22033 18.0453 3.03641 18.3205 3.22033C18.4562 3.31185 18.6611 3.31916 18.8271 3.36217C19.0632 3.18374 19.2652 3.03092 19.4624 2.88176C19.5043 2.91562 19.5903 2.99432 19.5981 2.98791C19.7689 2.85889 19.9299 2.83052 20.1076 2.98334C20.1348 3.00622 20.2109 2.99615 20.2588 2.98426C20.4755 2.92844 20.7321 2.72164 20.899 2.86896C21.062 3.01354 21.2348 2.87261 21.3938 3.00713C21.5393 3.13066 21.8183 3.12425 22.0897 3.18739C22.1024 3.14988 22.1258 3.07759 22.1502 3.0053C22.1697 2.94765 22.1893 2.89001 22.2234 2.79026C22.3434 2.8589 22.4362 2.91288 22.5816 2.99615C22.7046 2.88451 22.8568 2.74634 23.05 2.56973C23.3653 3.03367 23.8728 2.99707 24.3315 2.98791C24.7531 2.97876 25.1269 2.75275 25.5261 2.5679C25.5358 2.71249 25.5437 2.8351 25.5505 2.9385C25.773 3.07393 25.5525 2.57431 25.854 2.80582C25.978 2.90099 26.1809 3.02543 26.2883 2.73262C26.3186 2.65117 26.5128 2.55967 26.6192 2.57157C26.9393 2.60816 27.2556 2.35287 27.5873 2.59444C27.6781 2.66032 27.8996 2.59444 28.0577 2.56882C28.412 2.51118 28.4941 2.52032 28.86 2.72072C28.9556 2.61183 29.0532 2.50019 29.1587 2.38123C29.2114 2.3913 29.2963 2.40777 29.3802 2.42333C29.3733 2.29155 29.4456 2.17809 29.5832 2.25038C29.8496 2.3913 29.8789 1.93377 30.1776 2.10306C30.362 2.20829 30.6363 2.18724 30.8715 2.2147C31.0579 2.23666 31.2462 2.24672 31.4268 2.36294C31.2531 2.35927 31.0793 2.3611 30.9066 2.35012C30.7075 2.33731 30.604 2.43522 30.5904 2.68046C30.524 2.7683 30.5962 2.53954 30.3933 2.5734C30.2176 2.60268 30.0702 2.68046 30.0819 2.85157C30.0878 2.93484 30.2 3.01354 30.2371 3.06021C30.3825 2.95771 30.5114 2.86804 30.5904 2.68046C30.7641 2.57614 31.0139 2.71431 31.2131 2.50934C31.42 2.58986 31.6269 2.66948 31.8709 2.76465C31.8045 2.85615 31.744 2.93942 31.6805 3.02543C31.7313 3.08034 31.7937 3.14805 31.8865 3.24779C31.9733 2.81039 32.2369 2.5679 32.7795 2.59901C32.719 2.46908 32.675 2.37757 32.6262 2.27326C32.676 2.26502 32.7678 2.22385 32.8029 2.24855C33.1777 2.50843 33.6423 2.52216 34.018 2.41601C34.3508 2.32176 34.4923 2.49287 34.4631 2.61914C34.3879 2.94308 34.7041 2.9202 34.8154 3.0419C34.9227 2.84974 34.9822 2.56699 35.1598 2.47915C35.2985 2.41051 35.6049 2.28057 35.8343 2.4764C35.7806 2.62647 35.7298 2.7436 35.646 2.9385C35.8392 2.847 35.9651 2.78751 36.0958 2.72621C36.0109 2.63287 35.9495 2.56607 35.8343 2.4764C35.9172 2.3858 36.0197 2.27875 36.1281 2.16528C36.045 2.1296 35.9641 2.09482 35.803 2.02528C35.9767 1.97495 36.1134 1.9356 36.2139 1.90632C36.0656 1.59703 35.7621 1.49546 35.7874 1.18801C35.9748 1.25846 36.1446 1.44331 36.3125 1.22095C36.4277 1.42135 36.6493 1.34265 36.8249 1.38749C37.0211 1.43781 37.2123 1.55037 37.4055 1.55219C37.5656 1.55311 37.7355 1.31062 37.8808 1.67848C37.9453 1.47625 37.9863 1.34631 38.0224 1.23193C38.3396 1.31428 38.6275 1.38932 38.9359 1.46892C38.973 1.6007 39.0072 1.75168 39.2794 1.73337C39.4191 1.72422 39.5683 1.83404 39.7586 1.90724C39.8348 1.82305 39.9265 1.72239 40.0973 1.53481C40.1129 1.7773 40.1197 1.89259 40.1276 2.01155C40.3481 2.08476 40.5121 2.33823 40.8244 2.18632C40.7268 2.13325 40.639 2.08476 40.5453 2.03443C40.6985 1.96397 40.9405 1.97312 40.8664 1.72148C41.0265 1.73795 41.1992 1.77455 41.1787 1.53664C41.1738 1.47533 41.1884 1.41311 41.1943 1.35089C41.3154 1.36095 41.4364 1.37102 41.5574 1.38108L41.857 1.12487C42.0317 1.0846 42.1059 0.879633 42.3342 0.907999C42.4308 0.919895 42.6124 0.799108 42.6329 0.823815C42.8164 1.03794 43.0867 0.926301 43.2975 1.00225C43.4625 1.06173 43.603 1.17702 43.8109 1.30055C43.9065 1.14134 44.008 0.972969 44.1232 0.783552C44.293 0.852181 44.4833 0.906169 44.3018 1.17428C44.5644 1.19624 44.8356 1.2182 45.1597 1.24565C45.1655 1.1816 45.1733 1.10016 45.1811 1.01872C45.5033 1.01598 45.835 1.1514 46.1805 0.984864C46.0976 1.26487 46.2918 1.4067 46.5494 1.50553C46.6167 1.40305 46.6842 1.30055 46.7564 1.18984C46.6851 1.15964 46.6041 1.12487 46.5173 1.08826C46.5358 1.05898 46.5484 1.02421 46.5749 1.00225C46.6276 0.958327 46.6831 0.894274 46.7447 0.886953C46.9906 0.858587 47.2385 0.848522 47.5068 0.83022C47.5157 0.884208 47.5264 0.944601 47.542 1.04068C47.6679 1.02238 47.8056 1.00408 47.9422 0.981204C48.0758 0.958327 48.1774 1.2484 48.3305 1.01415C48.558 1.39847 48.7659 0.908914 49.0733 1.14317C48.964 0.866822 48.9122 0.736884 48.8595 0.604202C48.9279 0.574921 48.9737 0.537403 49.0089 0.543808C49.3085 0.596882 49.6266 0.530083 49.9165 0.683812C49.9976 0.726819 50.2083 0.700283 50.2581 0.638059C50.4914 0.347072 50.7373 0.663681 50.9852 0.615183C51.1824 0.57675 51.484 0.647209 51.5025 0.956497C51.5035 0.979374 51.5718 1.0114 51.6137 1.01872C51.7036 1.03428 51.7953 1.03611 51.9856 1.05166C51.8334 0.885123 51.7455 0.788128 51.6577 0.691132C51.6811 0.666426 51.7035 0.641719 51.727 0.617928C51.8343 0.675576 51.9387 0.771656 52.0509 0.781722C52.1759 0.792702 52.3067 0.709433 52.4384 0.695707C52.5565 0.683812 52.6824 0.700283 52.8005 0.723159C53.0513 0.772571 53.0953 0.92081 52.9538 1.17885C52.9264 1.22918 52.9332 1.29507 52.9079 1.46619C53.0631 1.2484 53.1597 1.11206 53.2573 0.975713C53.2817 1.01689 53.3061 1.05807 53.3305 1.09925C53.3246 1.03428 53.2885 0.949177 53.3207 0.908914C53.3588 0.861331 53.4993 0.815579 53.5198 0.834795C53.6984 1.00225 53.9297 0.932706 54.1347 0.956497C54.2332 0.967478 54.3542 0.852181 54.445 0.872312C54.5114 0.886953 54.5388 1.03245 54.5983 1.11023C54.6178 1.13676 54.6822 1.13585 54.7271 1.14683C54.9536 1.20082 55.1702 0.895188 55.382 1.10565C55.5859 1.30788 55.8397 1.18801 56.0808 1.27494C56.1178 1.19533 56.152 1.12212 56.193 1.03336C56.274 1.05624 56.356 1.09558 56.439 1.09833C56.5717 1.10291 56.7093 1.0599 56.8361 1.08003C56.9308 1.09467 57.0118 1.17702 57.1602 1.2667C57.2549 0.725904 56.4857 0.947347 56.5005 0.469689C56.597 0.542893 56.6371 0.573091 56.6937 0.617013C56.7835 0.551129 56.8762 0.426682 56.9816 0.417531C57.2217 0.396485 57.3983 0.522762 57.5164 0.719499C57.5526 0.778977 57.6335 0.816494 57.694 0.864077C57.861 0.619758 58.0522 1.03611 58.2864 0.837541C58.4094 0.733225 58.7481 0.864077 58.9755 0.826559C59.1433 0.799108 59.2888 0.66917 59.5142 0.547469C59.5337 0.722244 59.5464 0.837541 59.564 0.991269C59.6069 0.978458 59.6538 0.951921 59.7006 0.953752C59.9778 0.966563 60.254 0.985779 60.5312 1.00591C60.5477 1.00683 60.5604 1.04983 60.579 1.05258C60.7878 1.08826 61.0767 1.21546 61.1909 1.13585C61.552 0.886038 61.3685 1.29507 61.5061 1.31977C61.6965 1.35363 61.8741 1.44971 62.0986 1.53389C62.1142 1.36736 62.124 1.26396 62.1337 1.15598C62.0137 1.07088 61.878 0.974799 61.7413 0.878718C61.758 0.850351 61.7746 0.821985 61.7901 0.793618C62.0683 0.906169 62.3465 1.01872 62.6168 1.12853C62.8774 1.00774 63.139 0.886953 63.4006 0.766167C63.4923 0.933621 63.5625 1.06173 63.6328 1.18984C63.828 1.12304 64.0037 1.02147 64.1862 1.01323C64.3745 1.00408 64.5697 1.08552 64.7669 1.12853C64.7922 1.0782 64.8294 1.00408 64.8743 0.91532C64.965 1.27677 65.3613 1.29964 65.6979 1.60253C65.6179 1.40305 65.6121 1.29415 65.5516 1.25389C65.3564 1.12395 65.2851 0.956497 65.2481 0.674661C65.7185 1.02147 66.1674 0.863162 66.5695 0.730479C66.8252 0.646294 66.9502 0.736884 67.121 0.825645C67.2204 0.666426 67.319 0.507207 67.4088 0.362628C67.5152 0.410211 67.6607 0.516357 67.7045 0.488905C68.1086 0.236351 68.3634 0.438578 68.5761 0.697538C68.784 0.66734 68.9636 0.648124 69.1402 0.614267C69.2495 0.593221 69.3667 0.56943 69.4554 0.514527C69.598 0.426682 69.716 0.297659 69.8731 0.498971C69.8809 0.509951 70.0108 0.447728 70.0801 0.412956C70.1581 0.374524 70.2323 0.328771 70.3182 0.280273C70.4509 0.763421 70.4519 0.764336 70.0986 0.960158C70.0449 0.989439 69.9688 1.00134 69.9356 1.04251C69.8751 1.11755 69.8381 1.20905 69.7746 1.32252C70.2216 1.42775 70.5066 1.00591 70.854 1.0663C71.0521 1.04526 70.7632 1.41128 71.1107 1.2301C71.3098 1.1267 71.6621 1.26304 71.7011 0.91166C71.9139 0.857672 72.1999 0.697538 72.3238 0.768912C72.6225 0.941856 72.7747 0.793617 72.9855 0.663681C73.007 0.742375 73.0285 0.821069 73.0499 0.899764C73.0665 0.91166 73.0822 0.923555 73.0987 0.935451C73.3651 0.618843 73.5994 1.16604 73.9098 0.951922C74.1684 0.774402 74.3762 1.10657 74.6271 1.15964C74.7462 1.18526 74.8945 1.05349 74.9843 1.21637C75.0439 1.09925 75.1892 0.940941 75.1492 0.872312C74.9765 0.579495 75.2264 0.542893 75.4059 0.47701C75.5494 0.423937 75.7114 0.412956 75.9017 0.375439C75.9906 0.461454 76.0949 0.563025 76.2062 0.670086C76.2511 0.591391 76.4551 0.492566 76.5966 0.487075C76.8084 0.479755 77.0768 0.56394 77.2213 0.475179C77.5472 0.275698 77.515 0.660935 77.7024 0.660935C77.8234 0.628909 77.9513 0.590476 78.081 0.56211C78.2011 0.535573 78.408 0.470605 78.4334 0.506292C78.567 0.692962 78.8902 0.523677 78.9799 0.773487C79.0024 0.835711 79.1137 0.892444 79.1956 0.914405C79.4835 0.991269 79.7763 1.05166 80.1707 1.14134C80.2028 1.10565 80.2623 1.00134 80.3561 0.940027C80.5024 0.843031 80.6645 0.736884 80.8353 0.707603C80.9621 0.685642 81.1651 0.74329 81.2442 0.831135C81.453 1.06356 81.6541 0.893359 81.8649 0.864992C81.9195 0.972053 81.9713 1.07271 82.0172 1.16055C82.2524 0.962903 82.4602 0.788128 82.7901 0.510866C82.8174 0.868652 82.8311 1.03794 82.8457 1.22918C82.9219 1.18069 82.9755 1.14591 83.1043 1.06356C83.0487 1.23833 83.0127 1.35271 82.9697 1.49089C83.3045 1.56592 83.2868 1.07911 83.6588 1.12853C83.8432 1.15323 84.0696 0.906169 84.3127 0.760676C84.4405 0.888783 84.5488 0.997674 84.6561 1.10474C84.7079 1.10565 84.7792 1.12487 84.7987 1.10382C84.9909 0.900679 85.2232 0.850351 85.5092 0.90434C85.6702 0.934536 85.8479 0.948262 86.0059 0.918065C86.1562 0.888783 86.3016 0.807344 86.4285 0.724073C86.6003 0.610607 86.6481 0.983034 86.8384 0.798193C86.8677 0.768912 87.0004 0.8412 87.0844 0.83937C87.1644 0.837541 87.2444 0.801854 87.3674 0.768912C87.3489 0.968393 87.3352 1.1148 87.3157 1.31886C87.4094 1.28957 87.4543 1.26853 87.5021 1.26029C87.8642 1.20082 88.2146 1.08277 88.5971 1.15964C88.8089 1.20265 89.0471 1.25114 89.2451 1.20356C89.4315 1.15872 89.5653 1.15232 89.7097 1.25663C89.7996 1.09284 90.1762 1.39938 90.1646 1.00957C90.1597 0.844861 90.3851 0.772572 90.6076 0.796363C91.1385 0.853096 91.6724 0.888783 92.2043 0.932706C92.5068 1.12944 92.7177 1.23101 92.8856 1.25297C92.9811 1.26579 93.0788 1.26944 93.1754 1.27768C93.4126 1.2969 93.6497 1.31703 93.8869 1.33624C93.8966 1.31062 93.9074 1.28592 93.9171 1.26029C93.8381 1.22278 93.7581 1.18526 93.5472 1.08552C94.1104 1.14683 94.4237 0.972969 94.6188 0.563025C94.7057 0.730479 94.7653 0.845776 94.8258 0.961988C94.6404 1.17885 94.0684 1.10108 94.2392 1.63272C94.4618 1.62723 94.698 1.63821 94.9282 1.60893C95.1058 1.58697 95.3118 1.54854 95.2532 1.29598C95.2474 1.27127 95.3371 1.21637 95.3928 1.19899C95.424 1.18892 95.4748 1.22461 95.5138 1.24565C95.5226 1.25023 95.5256 1.28226 95.5177 1.28957C95.4836 1.32068 95.4445 1.34723 95.3548 1.41493C95.6836 1.45154 95.8184 1.81299 96.199 1.69861C96.2233 1.69128 96.2976 1.82305 96.4 1.72514C96.6391 1.49912 96.9153 1.46984 97.2305 1.60344C97.2715 1.62266 97.3623 1.53664 97.4297 1.49821ZM12.1475 34.5243C12.3466 34.6725 12.4364 34.7394 12.5535 34.8271C12.4081 34.9059 12.2598 34.9855 12.0645 35.0907C12.5067 35.1795 12.8434 35.0834 13.1859 34.9599C13.4309 34.872 13.5861 34.9726 13.6056 35.2673C13.7168 35.153 13.8086 35.0596 13.8643 35.0028C14.0604 35.1191 14.2068 35.217 14.3649 35.2939C14.4127 35.3168 14.4937 35.2829 14.5454 35.2774C14.5572 35.1538 14.567 35.0513 14.5767 34.9415C14.4459 34.9169 14.3141 34.9223 14.2273 34.8674C14.1609 34.8253 14.1522 34.7092 14.116 34.6194C13.9413 34.7275 13.8388 34.9022 13.6026 34.8409C13.3841 34.7842 13.1108 34.8867 12.9517 34.6625C12.7897 34.4328 12.5565 34.4767 12.1475 34.5243ZM96.1686 36.3993C96.2019 36.4533 96.2361 36.5072 96.2692 36.5602C96.1307 36.5932 95.992 36.6262 95.8525 36.66C96.1647 36.7076 96.4449 36.9282 96.6908 36.671C96.7123 36.649 96.7162 36.6133 96.7279 36.585C96.6381 36.5493 96.5562 36.5164 96.5415 36.51C96.5894 36.3379 96.6293 36.1915 96.6791 36.0094C96.3854 36.0003 96.1599 35.9938 95.9491 35.9874C95.8837 36.218 95.8945 36.3727 96.1686 36.3993ZM12.1768 34.2616C12.0958 34.1747 12.0343 34.108 11.9719 34.0411C11.6536 34.3102 11.3794 34.0585 11.0935 33.9505C11.0145 34.1317 10.9451 34.291 10.8758 34.451C11.0125 34.6258 11.1744 34.7229 11.4087 34.5948C11.3638 34.5426 11.3219 34.4931 11.2545 34.4145C11.561 34.3623 11.846 34.3156 12.1768 34.2616ZM121.527 11.1786C121.72 11.5052 121.875 11.7687 122.056 12.078C122.18 11.9921 122.268 11.9289 122.379 11.8511C122.221 11.637 122.072 11.4155 121.895 11.2151C121.854 11.1694 121.716 11.1941 121.527 11.1786ZM120.657 9.45733C120.771 8.69967 120.675 8.61183 119.993 8.78477C120.049 8.86255 120.108 8.92661 120.142 8.99981C120.171 9.06295 120.171 9.13707 120.187 9.21759C120.509 9.08857 120.509 9.08857 120.657 9.45733ZM121.392 31.6336C121.255 31.5568 121.128 31.4397 120.985 31.4186C120.841 31.3966 120.675 31.4562 120.531 31.5073C120.456 31.5339 120.407 31.6199 120.314 31.7105C120.666 31.8486 120.958 31.6913 121.238 31.7526C121.277 31.7599 121.34 31.6757 121.392 31.6336ZM95.0034 36.7946C94.8706 36.5145 95.4552 36.2775 95.0034 36.0405C94.8101 36.2245 94.6237 36.401 94.4393 36.5758C94.5935 36.6353 94.7565 36.6984 95.0034 36.7946ZM11.561 32.7271C10.668 32.5752 10.668 32.5752 10.5567 32.8369C10.9139 32.9248 11.2526 32.9568 11.561 32.7271ZM117.445 34.387C117.515 34.2297 117.015 34.161 117.371 33.9561C117.244 33.8856 117.119 33.8161 116.992 33.7465C116.896 34.3412 116.905 34.3541 117.445 34.387ZM14.8187 34.1848C14.6655 34.1409 14.5386 34.1061 14.4137 34.0676C14.3639 34.0521 14.317 34.0301 14.2683 34.0109C14.2634 34.0686 14.2283 34.1564 14.2575 34.1793C14.4059 34.2991 14.4479 34.5371 14.7621 34.5289C14.7797 34.4191 14.7993 34.3037 14.8187 34.1848ZM123.2 11.1236C122.894 10.97 122.861 10.9663 122.329 11.0276C122.562 11.5025 122.886 11.1684 123.2 11.1236ZM23.948 3.2002C23.6659 3.31733 23.501 3.3759 23.3477 3.45459C23.3009 3.47838 23.2619 3.55982 23.2696 3.60924C23.2755 3.6495 23.3506 3.69433 23.4043 3.71264C23.4687 3.73368 23.5439 3.72819 23.6337 3.73552C23.7186 3.59001 23.8074 3.43904 23.948 3.2002ZM120.295 31.3564C119.844 31.296 119.896 31.716 119.648 31.8048C119.759 31.8139 119.87 31.823 120.012 31.835C120.087 31.7087 120.175 31.5595 120.295 31.3564ZM108.866 2.88817C108.849 3.16361 109.013 3.26792 109.281 3.26975C109.33 3.26975 109.41 3.2176 109.419 3.17824C109.431 3.13066 109.398 3.03733 109.359 3.02268C109.208 2.96686 109.045 2.93484 108.866 2.88817ZM108.019 3.12792C108.482 3.18007 108.696 3.12425 108.684 3.00622C108.57 2.94216 108.46 2.87994 108.336 2.81039C108.261 2.88634 108.174 2.97327 108.019 3.12792ZM122.014 9.20753C121.725 9.33197 121.563 9.51956 121.62 9.57354C121.761 9.58544 121.872 9.59459 122.012 9.60649C122.013 9.46283 122.013 9.3457 122.014 9.20753ZM3.32084 20.0857C3.59509 19.8277 3.59509 19.8277 3.37452 19.5449C3.30522 19.6043 3.23593 19.6639 3.16956 19.7206C3.2125 19.8221 3.2574 19.9329 3.32084 20.0857ZM120.518 30.2318C120.582 30.3581 120.636 30.467 120.685 30.5639C120.938 30.4642 120.993 30.305 120.912 30.0963C120.771 30.1449 120.636 30.1915 120.518 30.2318ZM9.99059 33.5873C10.0277 33.5379 10.0638 33.4875 10.1009 33.4381C9.86569 33.3347 9.62853 33.2349 9.31719 33.2689C9.54069 33.3759 9.76614 33.4812 9.99059 33.5873ZM27.9494 36.8824C28.0626 36.8165 28.169 36.79 28.1885 36.7369C28.2412 36.5914 28.1231 36.5483 27.9914 36.5631C27.9133 36.5712 27.841 36.6152 27.7659 36.6435C27.8186 36.7121 27.8723 36.7817 27.9494 36.8824ZM123.511 24.5081C123.491 24.4825 123.472 24.4568 123.452 24.4312C123.284 24.4871 123.116 24.5438 122.937 24.6042C122.997 24.6737 123.054 24.7387 123.101 24.7946C123.239 24.6975 123.375 24.6024 123.511 24.5081ZM110.929 3.54335C111.195 3.56532 111.354 3.58728 111.513 3.58453C111.545 3.58361 111.579 3.48845 111.595 3.43263C111.598 3.42256 111.495 3.36675 111.485 3.3759C111.35 3.48845 111.239 3.47015 111.14 3.33563C111.092 3.38322 111.043 3.43079 110.929 3.54335ZM57.6814 34.8436C57.8073 34.7485 57.94 34.6479 58.0464 34.5673C57.9722 34.5609 57.8454 34.5508 57.7096 34.5398C57.6979 34.6643 57.6892 34.764 57.6814 34.8436ZM8.45152 5.84471C8.29243 5.81085 8.17043 5.77425 8.04648 5.7651C8.02013 5.76326 7.95279 5.86759 7.96255 5.91333C8.00159 6.10367 8.18897 6.0085 8.31 6.03596C8.33146 6.04053 8.37929 5.94536 8.45152 5.84471ZM6.68696 25.9576C6.71819 25.942 6.74942 25.9255 6.78066 25.91C6.74259 25.7938 6.71624 25.6712 6.65963 25.5631C6.64011 25.5256 6.52983 25.4945 6.482 25.511C6.43711 25.5266 6.37953 25.6327 6.3971 25.6556C6.48006 25.7645 6.58741 25.8588 6.68696 25.9576ZM122.8 21.6412C122.797 21.6779 122.794 21.7144 122.792 21.7511C122.879 21.7584 122.972 21.752 123.053 21.7767C123.142 21.8042 123.22 21.86 123.154 21.8252C123.341 21.7941 123.431 21.7785 123.519 21.7639C123.503 21.7419 123.486 21.719 123.47 21.6971C123.246 21.6779 123.023 21.6596 122.8 21.6412ZM78.0732 0.8229C77.8224 0.801854 77.6633 0.786297 77.5032 0.779893C77.4847 0.778977 77.4643 0.83205 77.4447 0.860417C77.8781 1.06539 77.8781 1.06539 78.0732 0.8229ZM24.2476 36.3754C23.9548 36.3699 23.8367 36.4835 23.8025 36.7048C23.9529 36.595 24.0865 36.4953 24.2476 36.3754ZM4.89215 8.29248C4.91947 8.22934 4.95852 8.17535 4.9634 8.11953C4.9712 8.02619 5.03855 7.89625 4.84823 7.87979C4.80724 7.87612 4.72721 7.90266 4.72819 7.90723C4.74283 7.99875 4.7604 8.09025 4.79065 8.1781C4.80334 8.21561 4.84725 8.24489 4.89215 8.29248ZM23.8894 37.6885C23.9685 37.64 24.0299 37.619 24.0621 37.5787C24.1129 37.5156 24.151 37.4424 24.1734 37.3674C24.1773 37.3554 24.0348 37.2804 24.0124 37.296C23.9529 37.3381 23.9079 37.4085 23.8835 37.4762C23.864 37.5293 23.8845 37.5943 23.8894 37.6885ZM23.0101 37.3729C23.0081 37.3948 23.0062 37.4168 23.0042 37.4387C23.2463 37.4589 23.4883 37.479 23.7313 37.4991C23.7332 37.4772 23.7352 37.4552 23.7371 37.4333C23.4941 37.4131 23.2521 37.3929 23.0101 37.3729ZM113.277 34.2461C113.049 34.2268 112.858 34.2113 112.605 34.1903C112.782 34.2955 112.902 34.3669 113.023 34.4383C113.093 34.3852 113.165 34.3312 113.277 34.2461ZM63.259 34.6396C63.2092 34.5984 63.1907 34.57 63.177 34.5719C63.0551 34.5911 62.893 34.4612 62.8179 34.6442C62.8042 34.678 62.8082 34.7375 62.8325 34.7613C62.9808 34.904 63.0755 34.7713 63.18 34.699C63.1985 34.6863 63.216 34.6716 63.259 34.6396ZM3.18421 20.7537C3.29546 20.5624 3.3511 20.5057 3.36086 20.4426C3.37452 20.351 3.43796 20.2184 3.2496 20.2046C3.2047 20.2019 3.1559 20.2486 3.10906 20.2732C3.22129 20.3566 3.2252 20.4288 3.0954 20.5039C3.08368 20.5093 3.12662 20.5945 3.18421 20.7537Z" fill="#63AB45"/>
<path d="M15.3569 36.7817C15.4165 36.326 15.8547 36.1247 16.247 35.8071C16.2402 35.9947 16.1983 36.1484 16.2412 36.2784C16.2851 36.412 16.4129 36.5237 16.4999 36.638C16.248 36.9894 16.248 36.9894 15.8616 37.1541C15.6937 37.0297 15.519 36.9007 15.3569 36.7817Z" fill="#63AB45"/>
<path d="M40.8671 1.7175C40.7012 1.65894 40.5206 1.62142 40.3733 1.53632C40.2269 1.45122 40.2805 1.13736 40.4885 0.841797C40.6407 1.12272 41.1277 0.957094 41.1951 1.3469C41.0994 1.36429 41.0038 1.38168 40.9071 1.39906C41.1541 1.53358 40.8476 1.60862 40.8671 1.7175Z" fill="#63AB45"/>
<path d="M16.6323 37.4189C16.9759 37.3429 17.216 37.2898 17.4687 37.2341C17.3652 37.1151 17.2804 37.0172 17.2042 36.9293C17.3867 36.8369 17.5643 36.7463 17.7537 36.6511C18.1528 36.7701 17.4804 37.1169 17.9127 37.2285C17.5419 37.5305 17.1545 37.5836 16.6323 37.4189Z" fill="#63AB45"/>
<path d="M18.333 37.2117C18.4707 37.0561 18.6092 36.8987 18.7342 36.7568C18.8727 36.9289 19.023 37.1146 19.1704 37.2977C18.7059 37.6088 18.659 37.606 18.333 37.2117Z" fill="#63AB45"/>
<path d="M125.681 22.6486C125.747 22.5389 125.805 22.4427 125.852 22.365C126.053 22.6048 126.208 22.7905 126.371 22.9826C126.379 22.9772 126.296 23.0668 126.196 23.0843C126.035 23.1135 126.069 22.9707 126.016 22.8893C125.934 22.7658 125.75 22.6953 125.681 22.6486Z" fill="#63AB45"/>
<path d="M124.656 12.0171C124.953 11.5962 125.356 11.6245 125.68 11.5083C125.888 11.7106 125.691 11.8231 125.563 11.8615C125.314 11.9384 125.04 11.9558 124.656 12.0171Z" fill="#63AB45"/>
<path d="M6.93765 29.388C6.80297 29.5564 6.6712 29.7211 6.54433 29.8803C6.19786 29.852 5.88068 29.8264 5.5752 29.7138C5.82212 29.6937 6.08074 29.7065 6.314 29.6443C6.52384 29.5884 6.61948 29.2956 6.93765 29.388Z" fill="#63AB45"/>
<path d="M92.0952 0.718997C92.515 0.477423 92.6203 0.499385 92.9922 0.946846C92.635 0.961487 92.307 1.07312 92.0952 0.718997Z" fill="#63AB45"/>
<path d="M124.633 18.0714C124.738 17.7685 124.785 17.4693 125.1 17.4153C125.42 17.5846 124.877 17.7576 125.174 17.8993C125.124 17.9414 125.081 18.0074 125.022 18.022C124.897 18.0522 124.764 18.0568 124.633 18.0714Z" fill="#63AB45"/>
<path d="M7.18696 5.0045C6.76339 5.0283 6.52916 4.8517 6.30957 4.61195C6.73119 4.46372 6.95566 4.67692 7.18696 5.0045Z" fill="#63AB45"/>
<path d="M124.628 12.5354C124.473 12.6526 124.346 12.7496 124.192 12.8659C123.931 12.788 124.027 12.6206 124.133 12.4769C124.262 12.3039 124.381 12.325 124.628 12.5354Z" fill="#63AB45"/>
<path d="M1.94043 8.75839C2.0595 8.73277 2.14636 8.71355 2.23322 8.69434C2.1971 8.49394 2.24494 8.43903 2.53284 8.35303C2.55822 8.82061 2.47916 8.87918 1.94043 8.75839Z" fill="#63AB45"/>
<path d="M126.707 21.7427C126.833 21.8699 126.897 21.9331 126.967 22.0008C126.95 22.03 126.941 22.0731 126.915 22.0858C126.692 22.1938 126.691 22.1929 126.258 22.1188C126.397 22.0035 126.529 21.8919 126.707 21.7427Z" fill="#63AB45"/>
<path d="M98.2036 1.00396C98.2319 0.891412 98.2299 0.76056 98.2972 0.671799C98.3654 0.580293 98.5027 0.443035 98.6314 0.568398C98.6908 0.626046 98.6567 0.804482 98.606 0.902392C98.5661 0.979256 98.4365 1.0186 98.3468 1.07442C98.2991 1.05155 98.2504 1.02775 98.2036 1.00396Z" fill="#63AB45"/>
<path d="M2.55909 18.2149C2.2946 18.3293 2.07989 18.4217 1.75391 18.5626C1.86713 18.3796 1.92666 18.3045 1.9618 18.2204C1.99302 18.1453 1.99693 18.0611 2.02133 17.9385C2.2214 18.042 2.37561 18.1206 2.55909 18.2149Z" fill="#63AB45"/>
<path d="M125.569 12.0601C125.449 12.2788 125.337 12.4801 125.191 12.7418C125.081 12.1442 125.081 12.1442 125.569 12.0601Z" fill="#63AB45"/>
<path d="M69.6884 36.303C69.8729 36.3186 70.0593 36.3231 70.2398 36.3551C70.3013 36.3661 70.3482 36.4466 70.4028 36.4951C70.2242 36.5922 70.0349 36.6086 69.8289 36.583C69.5966 36.5537 69.6952 36.4119 69.6884 36.303Z" fill="#63AB45"/>
<path d="M125.55 26.0132C125.548 26.0122 125.434 25.9454 125.319 25.8795C125.489 25.6013 125.757 25.7267 125.932 25.7249C125.831 25.7999 125.698 25.9005 125.55 26.0132Z" fill="#63AB45"/>
<path d="M122.784 12.2105C122.699 12.1447 122.616 12.0788 122.532 12.0128C122.575 11.9872 122.619 11.9617 122.662 11.936C122.847 11.8866 123.021 11.7329 123.227 11.894C123.08 11.9992 122.932 12.1053 122.784 12.2105Z" fill="#63AB45"/>
<path d="M3.99951 7.30703C4.10784 7.04808 4.18397 6.86598 4.27181 6.65918C4.37916 6.66833 4.50799 6.67839 4.63585 6.68938C4.2396 6.73421 4.41235 7.19723 3.99951 7.30703Z" fill="#63AB45"/>
<path d="M87.604 37.4925C87.9036 37.1887 88.1105 37.3287 88.3789 37.3278C88.3067 37.4331 88.2637 37.5566 88.211 37.5602C88.0558 37.5685 87.8978 37.53 87.604 37.4925Z" fill="#63AB45"/>
<path d="M118.618 34.1667C118.493 33.958 118.246 33.8794 118.275 33.6323C118.666 33.6287 118.697 33.6652 118.618 34.1667Z" fill="#63AB45"/>
<path d="M123.659 26.9761C123.809 27.0448 123.964 27.1061 124.105 27.1884C124.142 27.2104 124.13 27.3 124.141 27.3586C124.06 27.3686 123.948 27.4144 123.904 27.3824C123.779 27.2909 123.683 27.1673 123.575 27.0567C123.603 27.0301 123.631 27.0036 123.659 26.9761Z" fill="#63AB45"/>
<path d="M106.547 37.0217C106.618 36.9677 106.674 36.9256 106.693 36.9109C106.802 37.029 106.914 37.1488 107.016 37.2595C106.845 37.3291 106.673 37.2578 106.547 37.0217Z" fill="#63AB45"/>
<path d="M12.5941 36.2607C12.3842 36.1407 12.1744 36.1993 12.0036 36.1545C11.9353 36.1362 11.8933 36.0328 11.8972 35.9148C11.9811 35.9569 12.0602 36.0127 12.149 36.0382C12.2379 36.063 12.3501 36.0355 12.4272 36.0722C12.4994 36.1069 12.5394 36.1957 12.5941 36.2607Z" fill="#63AB45"/>
<path d="M96.8466 0.78977C96.7597 0.69918 96.6992 0.635126 96.5938 0.524405C96.7655 0.486887 96.9793 0.391722 97.0301 0.43839C97.2145 0.611334 96.9529 0.663493 96.8466 0.78977Z" fill="#63AB45"/>
<path d="M126.692 20.1966C126.418 20.1737 126.144 20.1508 125.871 20.1289C126.153 19.9907 126.427 20.0914 126.692 20.1966Z" fill="#63AB45"/>
<path d="M45.1994 0.995549C45.0012 0.979078 44.8158 0.963522 44.6294 0.947967C44.7084 0.603907 45.0179 0.913195 45.1593 0.769531C45.173 0.850971 45.1876 0.931496 45.1994 0.995549Z" fill="#63AB45"/>
<path d="M3.01722 10.1313C3.00843 10.22 2.99868 10.3289 2.98209 10.501C2.87863 10.4415 2.80641 10.382 2.72248 10.3554C2.63757 10.3289 2.54095 10.3363 2.42773 10.3271C2.45994 10.264 2.4697 10.2137 2.4902 10.21C2.66684 10.1779 2.84448 10.1551 3.01722 10.1313Z" fill="#63AB45"/>
<path d="M123.834 14.4181C124.06 14.2131 124.228 14.0987 124.47 14.2425C124.357 14.5059 124.115 14.4346 123.834 14.4181Z" fill="#63AB45"/>
<path d="M113.873 34.8623C114.184 35.0718 114.187 35.0764 114.274 35.4416C114.062 35.2585 114.062 35.2585 113.873 34.8623Z" fill="#63AB45"/>
<path d="M5.84069 32.0435C5.75968 31.7955 5.70503 31.6308 5.61719 31.3608C5.94804 31.6492 5.94804 31.6492 5.84069 32.0435Z" fill="#63AB45"/>
<path d="M1.50635 12.3502C1.51806 12.2285 1.52684 12.1287 1.54441 11.9438C1.7152 12.0912 1.81573 12.2211 1.9836 12.3895C1.79133 12.3739 1.68104 12.3648 1.50635 12.3502Z" fill="#63AB45"/>
<path d="M2.44838 19.1069C2.30785 19.3384 2.11753 19.3586 1.87939 19.2588C2.02091 19.0273 2.21122 19.0072 2.44838 19.1069Z" fill="#63AB45"/>
<path d="M97.4237 1.58154C97.327 1.46441 97.289 1.43421 97.2744 1.39669C97.2402 1.30976 97.2178 1.21917 97.1914 1.1295C97.2539 1.1176 97.3173 1.10662 97.3798 1.09473C97.4013 1.18715 97.4256 1.27865 97.4412 1.37198C97.449 1.41317 97.4364 1.45526 97.4237 1.58154Z" fill="#63AB45"/>
<path d="M127.815 23.3705C127.697 23.4244 127.617 23.482 127.597 23.4683C127.501 23.4006 127.422 23.3137 127.336 23.2332C127.425 23.2249 127.517 23.1984 127.6 23.2157C127.664 23.2295 127.716 23.2963 127.815 23.3705Z" fill="#63AB45"/>
<path d="M5.06944 27.2669C4.84985 27.3118 4.57365 27.4883 4.43701 27.0391C4.59707 27.1306 4.66539 27.1873 4.74542 27.212C4.8479 27.2431 4.96111 27.2495 5.06944 27.2669Z" fill="#63AB45"/>
<path d="M72.6134 36.793C72.3537 36.7005 72.1899 36.6419 72.0259 36.5834C72.0473 36.555 72.0698 36.5038 72.0893 36.5046C72.2308 36.5092 72.3782 36.5084 72.5119 36.545C72.5578 36.5578 72.5685 36.6749 72.6134 36.793Z" fill="#63AB45"/>
<path d="M122.874 30.0408C122.627 29.9036 122.471 29.8175 122.255 29.6967C122.584 29.6491 122.77 29.6894 122.874 30.0408Z" fill="#63AB45"/>
<path d="M108.516 1.9547C108.384 1.80829 108.291 1.74332 108.262 1.65914C108.245 1.61431 108.337 1.53836 108.379 1.47705C108.435 1.52554 108.521 1.56581 108.54 1.62346C108.564 1.69483 108.532 1.78085 108.516 1.9547Z" fill="#63AB45"/>
</g>
</g>
</mask>
<g mask="url(#mask0_12_2998)">
<rect width="127.11" height="38" transform="translate(0.439941 0.280273)" fill="#63AB45"/>
<path d="M27.608 24.2803V23.1603H32.55V24.2803H27.608ZM27.608 15.6003V14.4803H32.55V15.6003H27.608ZM27.608 19.5203V18.4003H32.27V19.5203H27.608ZM26.95 14.4803H28.14V24.2803H26.95V14.4803ZM39.9973 14.4803H41.3973L38.4993 19.1423L41.6073 24.2803H40.2073L37.8973 20.1783L35.5173 24.2803H34.1173L37.3093 19.1423L34.4673 14.4803H35.8673L37.9113 18.1063L39.9973 14.4803ZM43.3129 14.4803H44.5029V24.2803H43.3129V14.4803ZM43.9709 15.6003V14.4803H45.9729C46.6075 14.4803 47.1722 14.6016 47.6669 14.8443C48.1709 15.0776 48.5675 15.4136 48.8569 15.8523C49.1555 16.2909 49.3049 16.8136 49.3049 17.4203C49.3049 18.0176 49.1555 18.5403 48.8569 18.9883C48.5675 19.4269 48.1709 19.7676 47.6669 20.0103C47.1722 20.2436 46.6075 20.3603 45.9729 20.3603H43.9709V19.2403H45.9729C46.6075 19.2403 47.1209 19.0863 47.5129 18.7783C47.9142 18.4703 48.1149 18.0176 48.1149 17.4203C48.1149 16.8136 47.9142 16.3609 47.5129 16.0623C47.1209 15.7543 46.6075 15.6003 45.9729 15.6003H43.9709ZM51.4328 14.4803H52.6228V23.1603H56.4728V24.2803H51.4328V14.4803ZM58.4617 19.3803C58.4617 20.1176 58.6204 20.7756 58.9377 21.3543C59.2644 21.9329 59.7077 22.3903 60.2677 22.7263C60.8277 23.0623 61.4624 23.2303 62.1717 23.2303C62.8904 23.2303 63.525 23.0623 64.0757 22.7263C64.6357 22.3903 65.0744 21.9329 65.3917 21.3543C65.7184 20.7756 65.8817 20.1176 65.8817 19.3803C65.8817 18.6429 65.7184 17.9849 65.3917 17.4063C65.0744 16.8276 64.6357 16.3703 64.0757 16.0343C63.525 15.6983 62.8904 15.5303 62.1717 15.5303C61.4624 15.5303 60.8277 15.6983 60.2677 16.0343C59.7077 16.3703 59.2644 16.8276 58.9377 17.4063C58.6204 17.9849 58.4617 18.6429 58.4617 19.3803ZM57.2017 19.3803C57.2017 18.6616 57.323 17.9989 57.5657 17.3923C57.8177 16.7763 58.1677 16.2443 58.6157 15.7963C59.0637 15.3389 59.591 14.9843 60.1977 14.7323C60.8044 14.4709 61.4624 14.3403 62.1717 14.3403C62.8904 14.3403 63.5484 14.4709 64.1457 14.7323C64.7524 14.9843 65.2797 15.3389 65.7277 15.7963C66.1757 16.2443 66.521 16.7763 66.7637 17.3923C67.0157 17.9989 67.1417 18.6616 67.1417 19.3803C67.1417 20.0896 67.0157 20.7523 66.7637 21.3683C66.521 21.9843 66.1757 22.5209 65.7277 22.9783C65.2797 23.4263 64.7524 23.7809 64.1457 24.0423C63.5484 24.2943 62.8904 24.4203 62.1717 24.4203C61.4624 24.4203 60.8044 24.2943 60.1977 24.0423C59.591 23.7809 59.0637 23.4263 58.6157 22.9783C58.1677 22.5209 57.8177 21.9843 57.5657 21.3683C57.323 20.7523 57.2017 20.0896 57.2017 19.3803ZM71.0223 19.4503H72.3523L75.8523 24.2803H74.3823L71.0223 19.4503ZM69.2723 14.4803H70.4623V24.2803H69.2723V14.4803ZM69.9303 15.5303V14.4803H71.9323C72.5669 14.4803 73.1316 14.6016 73.6263 14.8443C74.1303 15.0776 74.5269 15.4136 74.8163 15.8523C75.1149 16.2909 75.2643 16.8136 75.2643 17.4203C75.2643 18.0176 75.1149 18.5403 74.8163 18.9883C74.5269 19.4269 74.1303 19.7676 73.6263 20.0103C73.1316 20.2436 72.5669 20.3603 71.9323 20.3603H69.9303V19.3103H71.9323C72.3523 19.3103 72.7209 19.2356 73.0383 19.0863C73.3649 18.9369 73.6169 18.7223 73.7943 18.4423C73.9809 18.1623 74.0743 17.8216 74.0743 17.4203C74.0743 17.0189 73.9809 16.6783 73.7943 16.3983C73.6169 16.1183 73.3649 15.9036 73.0383 15.7543C72.7209 15.6049 72.3523 15.5303 71.9323 15.5303H69.9303ZM77.5562 14.4803H78.7462V24.2803H77.5562V14.4803ZM88.8579 14.4803H90.0479V24.7703L82.6279 16.9863V24.2803H81.4379V13.9903L88.8579 21.7743V14.4803ZM97.2933 20.4303V19.3103H101.843C101.843 19.9916 101.741 20.6403 101.535 21.2563C101.33 21.8629 101.027 22.4043 100.625 22.8803C100.224 23.3563 99.7293 23.7343 99.1413 24.0143C98.5627 24.2849 97.9 24.4203 97.1533 24.4203C96.444 24.4203 95.786 24.2989 95.1793 24.0563C94.5727 23.8043 94.0453 23.4543 93.5973 23.0063C93.1493 22.5489 92.7993 22.0123 92.5473 21.3963C92.3047 20.7803 92.1833 20.1083 92.1833 19.3803C92.1833 18.6523 92.3047 17.9803 92.5473 17.3643C92.7993 16.7483 93.1493 16.2163 93.5973 15.7683C94.0453 15.3109 94.5727 14.9609 95.1793 14.7183C95.786 14.4663 96.444 14.3403 97.1533 14.3403C97.76 14.3403 98.3153 14.4196 98.8193 14.5783C99.3327 14.7369 99.79 14.9703 100.191 15.2783C100.602 15.5863 100.947 15.9689 101.227 16.4263L100.387 17.1963C100.079 16.6736 99.65 16.2676 99.0993 15.9783C98.5487 15.6796 97.9 15.5303 97.1533 15.5303C96.4627 15.5303 95.8373 15.6936 95.2773 16.0203C94.7173 16.3469 94.2693 16.7996 93.9333 17.3783C93.6067 17.9476 93.4433 18.6149 93.4433 19.3803C93.4433 20.1363 93.6067 20.8036 93.9333 21.3823C94.2693 21.9609 94.7173 22.4136 95.2773 22.7403C95.8373 23.0669 96.4627 23.2303 97.1533 23.2303C97.6387 23.2303 98.0727 23.1603 98.4553 23.0203C98.8473 22.8709 99.1833 22.6656 99.4633 22.4043C99.7433 22.1429 99.972 21.8443 100.149 21.5083C100.336 21.1723 100.471 20.8129 100.555 20.4303H97.2933Z" fill="white"/>
</g>
<defs>
<clipPath id="clip0_12_2998">
<rect width="127.11" height="38" fill="white" transform="translate(0.439941 0.280273)"/>
</clipPath>
<clipPath id="clip1_12_2998">
<rect width="127.641" height="38" fill="white" transform="translate(0.174316 0.280273)"/>
</clipPath>
</defs>
</svg>
