<svg width="154" height="40" viewBox="0 0 154 40" fill="none" xmlns="http://www.w3.org/2000/svg">
<g clip-path="url(#clip0_17_105)">
<g clip-path="url(#clip1_17_105)">
<g clip-path="url(#clip2_17_105)">
<path d="M30.5464 16.3168L31.0481 16.1052L31.2081 15.4279L31.3751 14.7535L32.7734 14.158C33.7216 13.7579 34.1852 13.5798 34.1998 13.614C34.2191 13.6581 34.6891 18.0587 34.6962 18.2651C34.6974 18.3225 34.8228 18.2872 35.2945 18.0883L35.8905 17.8366L36.3248 15.1681L36.7614 12.5042L38.3549 11.8031C40.0772 11.0476 40.1048 11.0296 40.2349 10.6498C40.3251 10.397 40.3193 10.2196 40.2114 9.96847C40.0778 9.65883 39.7801 9.43035 39.4461 9.3915C39.1917 9.35961 39.1917 9.35962 37.6024 10.0299L36.0183 10.6985L33.7316 9.13753L31.4501 7.57422L30.864 7.82123C30.3278 8.04738 30.2821 8.07811 30.3389 8.14132C30.3753 8.18423 31.0703 8.99428 31.8849 9.94526C32.6995 10.8962 33.3758 11.7028 33.3887 11.7324C33.4098 11.7817 33.1033 11.9284 32.0309 12.3807L30.6454 12.9652L29.9955 12.6004L29.3503 12.234L28.8639 12.4393C28.422 12.626 28.3816 12.6544 28.4378 12.7176C28.4742 12.7605 28.7906 13.1554 29.1487 13.5909L29.7939 14.3928L29.917 15.3861C29.9826 15.9335 30.0377 16.4154 30.0424 16.4536C30.0436 16.5116 30.159 16.4803 30.5464 16.3168Z" fill="#63AB45"/>
<path d="M29.0293 15.3026L27.9803 15.8651C24.13 17.9642 21.2818 19.9415 20.0101 21.4259C19.8695 21.5941 19.7464 21.7507 19.6409 21.9014C19.4358 21.6173 19.1721 21.4027 18.8029 21.4897C18.5216 21.5535 18.3223 21.7274 18.1582 21.9478C19.1838 20.359 21.8737 18.2367 25.853 15.894C26.5914 15.4591 28.4433 14.4154 28.5956 14.3516C28.6308 14.3516 28.7304 14.5314 28.8359 14.8155L29.0293 15.3026Z" fill="#63AB45"/>
<path d="M18.8026 0.0116242C17.8357 0.139194 16.9507 0.301555 16.0658 0.730652C15.3977 1.05537 14.7414 1.49607 14.2374 2.04694C13.8271 2.49343 13.4462 2.96892 13.1708 3.51399C12.7312 4.38378 12.5613 5.28836 12.5613 6.25093C12.5613 6.55826 12.5378 6.86558 12.5964 7.16711C12.7547 8.03111 13.1122 8.85451 13.4638 9.64892C13.9854 10.8319 14.6007 11.9684 15.2219 13.0991C16.0072 14.5256 16.857 15.9173 17.7067 17.3089C17.9763 17.7496 18.2928 18.5904 18.9433 18.5266C19.5528 18.4629 19.7403 17.912 20.045 17.4713C20.7835 16.3985 21.4691 15.2678 22.1431 14.1487C22.9577 12.7918 23.7664 11.4291 24.4462 10.0027C24.8447 9.16763 25.2726 8.28045 25.4249 7.35847C25.466 7.10333 25.4484 6.84239 25.4601 6.58145C25.507 5.5377 25.2784 4.48815 24.7803 3.56037C24.4814 3.00951 24.1063 2.51662 23.6668 2.06433C23.1276 1.51346 22.4771 1.06117 21.7797 0.724854C21.0882 0.394333 20.3674 0.162388 19.6055 0.0522144C19.3418 0.02902 19.0664 -0.0231675 18.8026 0.0116242Z" fill="#63AB45"/>
<path d="M6.32706 6.4714C5.82307 6.53518 5.33079 6.54098 4.83851 6.68015C3.36754 7.09185 2.08411 7.95584 1.14644 9.15036C0.595555 9.85779 0.284952 10.7334 0.13258 11.6032C-0.26593 13.8531 0.361137 16.2711 2.17201 17.7903C2.71703 18.2484 3.39684 18.6891 4.07665 18.9211C5.18428 19.298 6.39153 19.3618 7.54603 19.4429C9.28658 19.5589 11.0447 19.5705 12.7911 19.5125C13.6819 19.4835 14.5727 19.4951 15.4635 19.4429C15.7624 19.4255 16.0788 19.4777 16.3777 19.4197C16.8876 19.3154 17.1982 18.8109 17.0224 18.318C16.9052 17.9875 16.6707 17.6744 16.5066 17.3612C16.1023 16.6074 15.692 15.8536 15.276 15.1056C14.2914 13.337 13.2717 11.5452 12.0644 9.91577C11.3963 9.01699 10.7341 8.04862 9.7437 7.46876C8.89394 6.97008 8.03245 6.60477 7.04204 6.51199C6.80176 6.48299 6.55562 6.43661 6.32706 6.4714Z" fill="#63AB45"/>
<path d="M10.13 20.4749C9.84866 20.5097 9.54978 20.4807 9.26848 20.4865C8.85239 20.4923 8.4363 20.5155 8.02021 20.5329C7.28179 20.5677 6.54338 20.6315 5.81082 20.7359C5.21892 20.817 4.61529 20.8924 4.05269 21.1012C3.40218 21.3389 2.78684 21.739 2.24768 22.1623C1.83745 22.4813 1.47996 22.8756 1.17522 23.2989C0.132058 24.7659 -0.213708 26.6505 0.126197 28.4016C0.255127 29.0685 0.448521 29.7643 0.788427 30.3616C1.04043 30.7965 1.40377 31.1908 1.76126 31.5445C3.15018 32.9304 5.16031 33.7422 7.14114 33.5044C8.2136 33.3768 9.33294 32.9246 10.1768 32.2577C11.1204 31.5155 11.8295 30.4427 12.4917 29.457C13.5232 27.9204 14.4784 26.3315 15.3692 24.7137C15.8204 23.8903 16.2658 23.0611 16.723 22.2377C16.9515 21.8202 17.2211 21.4143 16.9222 20.9562C16.5823 20.4285 15.715 20.5619 15.1641 20.5619C14.4022 20.5619 13.6404 20.4923 12.8785 20.4865C12.5445 20.4807 12.2046 20.4981 11.8705 20.4807C11.4837 20.4633 11.0911 20.4633 10.7043 20.4691C10.5168 20.4749 10.3234 20.4517 10.13 20.4749Z" fill="#63AB45"/>
<path d="M37.515 29.5033C36.3136 32.7795 32.0062 34.5481 28.8592 32.9129C28.0797 32.507 27.4175 32.0431 26.8549 31.3589C26.7201 31.1965 26.4095 30.9356 26.3802 30.721C26.2571 30.663 26.1809 30.5123 26.1048 30.4079C25.9114 30.147 25.718 29.886 25.5421 29.6135C24.9151 28.6625 24.3115 27.7057 23.7254 26.7374C23.4793 26.3315 23.239 25.9198 23.0046 25.5139C22.8522 25.2587 22.7057 25.0036 22.565 24.7543C22.1783 24.07 21.8032 23.38 21.4516 22.6841C21.2113 22.2087 20.7014 21.6404 20.9417 21.0837C21.2171 20.4343 21.9204 20.6256 22.4771 20.5735C23.2156 20.5039 23.9657 20.5329 24.7041 20.5155C25.5421 20.4923 26.3861 20.4575 27.23 20.4749C28.7302 20.5097 30.2305 20.5097 31.7249 20.6836C32.4516 20.7706 33.19 20.8576 33.8816 21.0953C34.2742 21.2345 34.6375 21.449 34.9892 21.6694C35.5635 22.0231 36.0851 22.4464 36.5129 22.9741C36.9641 23.5191 37.304 24.1396 37.5385 24.8006L37.6967 25.3109L37.7143 25.3631L37.7201 25.3863C38.0659 26.7374 37.9956 28.1986 37.515 29.5033Z" fill="#63AB45"/>
<path d="M25.4547 33.4118C25.4782 34.3395 25.3258 35.2093 24.9625 36.0733C24.7456 36.5836 24.4233 37.0475 24.0775 37.4824C23.638 38.0275 23.093 38.4971 22.4952 38.8741C21.7509 39.3437 20.9422 39.6743 20.0807 39.8714C17.5431 40.4513 14.6598 39.0074 13.3588 36.8329C12.6907 35.7138 12.4446 34.3685 12.5676 33.0812C12.6555 32.1419 13.0892 31.2141 13.4643 30.3617C14.1617 28.7961 14.9763 27.2768 15.8495 25.8098C16.4765 24.7544 17.0978 23.6991 17.7307 22.6495C17.8596 22.435 17.9768 22.203 18.1292 21.9943C18.1351 21.9769 18.1468 21.9653 18.1585 21.9479C18.3226 21.7276 18.5218 21.5536 18.8031 21.4898C19.1724 21.4028 19.4361 21.6174 19.6412 21.9015C19.8053 22.1161 19.9342 22.3712 20.0573 22.5568C20.5085 23.2236 20.9363 23.9078 21.3583 24.5979C21.5341 24.8762 21.7041 25.1545 21.874 25.4387C22.1026 25.8098 22.3253 26.1809 22.5538 26.5462C23.2864 27.7349 23.9662 28.9816 24.5581 30.2457C24.9156 31.0111 25.2848 31.8171 25.4196 32.6521C25.4606 32.9073 25.4489 33.1566 25.4547 33.4118Z" fill="#63AB45"/>
<path d="M50.24 8.024C50.6133 8.024 50.9707 8.06133 51.312 8.136C51.6533 8.2 51.9627 8.28 52.24 8.376C52.528 8.46133 52.768 8.552 52.96 8.648C53.1627 8.744 53.3013 8.81867 53.376 8.872L52.592 10.248L52.384 10.136C52.2453 10.0613 52.064 9.976 51.84 9.88C51.616 9.784 51.3707 9.69867 51.104 9.624C50.8373 9.54933 50.5813 9.512 50.336 9.512C49.952 9.512 49.616 9.60267 49.328 9.784C49.0507 9.96533 48.912 10.248 48.912 10.632C48.912 11.112 49.0667 11.5067 49.376 11.816C49.6853 12.1147 50.1707 12.392 50.832 12.648C51.2587 12.8187 51.6373 13 51.968 13.192C52.3093 13.3733 52.5973 13.5867 52.832 13.832C53.0667 14.0773 53.2427 14.36 53.36 14.68C53.488 15 53.552 15.384 53.552 15.832C53.552 16.2373 53.472 16.6373 53.312 17.032C53.1627 17.4267 52.9333 17.7787 52.624 18.088C52.3253 18.3867 51.952 18.632 51.504 18.824C51.056 19.0053 50.5387 19.096 49.952 19.096C49.536 19.096 49.1413 19.0533 48.768 18.968C48.3947 18.8827 48.0533 18.7867 47.744 18.68C47.4453 18.5627 47.184 18.4453 46.96 18.328C46.7467 18.2107 46.5867 18.12 46.48 18.056L47.152 16.584L47.44 16.744C47.632 16.8507 47.8667 16.968 48.144 17.096C48.4213 17.224 48.7147 17.3413 49.024 17.448C49.3333 17.5547 49.6 17.608 49.824 17.608C50.3893 17.608 50.8107 17.4693 51.088 17.192C51.3653 16.9147 51.504 16.5253 51.504 16.024C51.504 15.7893 51.4667 15.5867 51.392 15.416C51.3173 15.2347 51.2107 15.08 51.072 14.952C50.9333 14.824 50.7627 14.712 50.56 14.616C50.368 14.5093 50.1493 14.408 49.904 14.312C49.424 14.1093 48.992 13.9067 48.608 13.704C48.2347 13.5013 47.9147 13.272 47.648 13.016C47.3813 12.7493 47.1787 12.4507 47.04 12.12C46.9013 11.7787 46.832 11.3733 46.832 10.904C46.832 10.5093 46.9173 10.1413 47.088 9.8C47.2587 9.448 47.4933 9.144 47.792 8.888C48.0907 8.62133 48.448 8.41333 48.864 8.264C49.28 8.104 49.7387 8.024 50.24 8.024ZM60.1094 19V13.832C60.1094 13.384 60.0294 13.0267 59.8694 12.76C59.7094 12.4827 59.4374 12.344 59.0534 12.344C58.808 12.344 58.568 12.408 58.3334 12.536C58.1094 12.6533 57.9067 12.8293 57.7254 13.064C57.544 13.2987 57.3947 13.5867 57.2774 13.928C57.1707 14.2587 57.1174 14.632 57.1174 15.048V19H55.2934V14.968C55.2934 14.328 55.2507 13.7947 55.1654 13.368C55.08 12.9307 54.9894 12.5787 54.8934 12.312C54.776 12.0027 54.648 11.752 54.5094 11.56L55.9494 10.984C56.056 11.1013 56.1627 11.2453 56.2694 11.416C56.3547 11.5653 56.44 11.752 56.5254 11.976C56.6107 12.1893 56.68 12.4347 56.7334 12.712C57.0107 12.072 57.4107 11.6133 57.9334 11.336C58.456 11.048 59.0054 10.904 59.5814 10.904C60.4027 10.904 60.9947 11.1547 61.3574 11.656C61.7307 12.1467 61.9174 12.8133 61.9174 13.656V19H60.1094ZM67.0986 10.84C68.3253 10.84 69.216 11.2027 69.7706 11.928C70.3253 12.6533 70.6026 13.6507 70.6026 14.92C70.6026 15.5173 70.528 16.0773 70.3786 16.6C70.2293 17.112 70 17.56 69.6906 17.944C69.392 18.3173 69.0133 18.616 68.5546 18.84C68.096 19.0533 67.5626 19.16 66.9546 19.16C66.3466 19.16 65.8186 19.0693 65.3706 18.888C64.9333 18.696 64.5706 18.424 64.2826 18.072C63.9946 17.72 63.7813 17.2933 63.6426 16.792C63.5146 16.2907 63.4506 15.7253 63.4506 15.096C63.4506 14.488 63.5253 13.928 63.6746 13.416C63.824 12.8933 64.048 12.4453 64.3466 12.072C64.656 11.688 65.04 11.3893 65.4986 11.176C65.9573 10.952 66.4906 10.84 67.0986 10.84ZM66.9386 12.184C66.6293 12.184 66.3733 12.2533 66.1706 12.392C65.9786 12.5307 65.824 12.728 65.7066 12.984C65.6 13.2293 65.5253 13.5227 65.4826 13.864C65.44 14.1947 65.4186 14.552 65.4186 14.936C65.4186 15.3307 65.44 15.704 65.4826 16.056C65.536 16.408 65.6266 16.7173 65.7546 16.984C65.8826 17.24 66.0533 17.4427 66.2666 17.592C66.4906 17.7413 66.7733 17.816 67.1146 17.816C67.424 17.816 67.6746 17.7467 67.8666 17.608C68.0693 17.4693 68.224 17.2773 68.3306 17.032C68.448 16.776 68.528 16.4827 68.5706 16.152C68.6133 15.8213 68.6346 15.464 68.6346 15.08C68.6346 14.6853 68.608 14.312 68.5546 13.96C68.512 13.608 68.4266 13.2987 68.2986 13.032C68.1706 12.7653 67.9946 12.5573 67.7706 12.408C67.5573 12.2587 67.28 12.184 66.9386 12.184ZM82.6123 11.032L82.6443 11.16C82.6549 11.256 82.6709 11.3787 82.6923 11.528C82.7136 11.6773 82.7296 11.8533 82.7403 12.056C82.7616 12.2587 82.7723 12.4613 82.7723 12.664C82.7723 13.848 82.7029 14.8507 82.5643 15.672C82.4363 16.4933 82.2176 17.16 81.9083 17.672C81.6096 18.1733 81.2096 18.5413 80.7083 18.776C80.2069 19 79.5883 19.112 78.8523 19.112C77.8176 19.112 77.1083 18.6853 76.7243 17.832C76.5323 18.2693 76.2656 18.5947 75.9243 18.808C75.5936 19.0107 75.1029 19.112 74.4523 19.112C73.6203 19.112 73.0229 18.872 72.6603 18.392C72.2976 17.912 72.1163 17.2453 72.1163 16.392V11.032H73.9403V16.248C73.9403 16.696 74.0203 17.0693 74.1803 17.368C74.3403 17.656 74.6123 17.8 74.9963 17.8C75.4869 17.8 75.8656 17.56 76.1323 17.08C76.3989 16.6 76.5323 15.8053 76.5323 14.696V11.032H78.3403C78.3296 11.832 78.3243 12.5733 78.3243 13.256C78.3243 13.5547 78.3189 13.8533 78.3083 14.152C78.3083 14.4507 78.3083 14.7333 78.3083 15C78.3083 15.2667 78.3083 15.512 78.3083 15.736C78.3083 15.9493 78.3083 16.12 78.3083 16.248C78.3083 16.696 78.3936 17.0693 78.5643 17.368C78.7349 17.656 79.0123 17.8 79.3963 17.8C79.7696 17.8 80.0576 17.656 80.2603 17.368C80.4736 17.08 80.6283 16.7067 80.7243 16.248C80.8203 15.7787 80.8789 15.2507 80.9003 14.664C80.9216 14.0667 80.9323 13.464 80.9323 12.856C80.9323 12.6107 80.9216 12.3813 80.9003 12.168C80.8896 11.944 80.8683 11.7467 80.8363 11.576C80.8149 11.4053 80.7989 11.272 80.7883 11.176L80.7563 11.032H82.6123ZM91.004 11.032L91.036 11.16C91.0467 11.256 91.0627 11.384 91.084 11.544C91.1053 11.6933 91.1213 11.8693 91.132 12.072C91.1533 12.264 91.164 12.4613 91.164 12.664C91.164 13.848 91.0733 14.8507 90.892 15.672C90.7213 16.4827 90.4547 17.144 90.092 17.656C89.74 18.1573 89.2867 18.52 88.732 18.744C88.188 18.968 87.5427 19.08 86.796 19.08C85.9533 19.08 85.3507 18.84 84.988 18.36C84.636 17.8693 84.46 17.1973 84.46 16.344V11.032H86.284V16.296C86.284 16.744 86.364 17.1067 86.524 17.384C86.684 17.6613 86.956 17.8 87.34 17.8C87.724 17.8 88.044 17.656 88.3 17.368C88.556 17.08 88.7587 16.7067 88.908 16.248C89.0573 15.7787 89.164 15.2507 89.228 14.664C89.292 14.0667 89.324 13.464 89.324 12.856C89.324 12.632 89.3133 12.4133 89.292 12.2C89.2813 11.976 89.26 11.7787 89.228 11.608C89.2067 11.4373 89.1907 11.2987 89.18 11.192L89.148 11.032H91.004ZM92.4506 15.208C92.4506 14.4933 92.5466 13.864 92.7386 13.32C92.9413 12.776 93.2133 12.3227 93.5546 11.96C93.9066 11.5867 94.3173 11.3093 94.7866 11.128C95.256 10.936 95.7626 10.84 96.3066 10.84C96.7866 10.84 97.192 10.8987 97.5226 11.016C97.864 11.1333 98.1413 11.2933 98.3546 11.496C98.568 11.6987 98.7226 11.9387 98.8186 12.216C98.9253 12.4933 98.9786 12.792 98.9786 13.112C98.9786 13.496 98.872 13.864 98.6586 14.216C98.4453 14.5573 98.136 14.8613 97.7306 15.128C97.336 15.384 96.856 15.592 96.2906 15.752C95.7253 15.9013 95.0906 15.9813 94.3866 15.992C94.4186 16.2373 94.4666 16.472 94.5306 16.696C94.6053 16.9093 94.7066 17.1013 94.8346 17.272C94.9733 17.432 95.1493 17.56 95.3626 17.656C95.576 17.752 95.8426 17.8 96.1626 17.8C96.3973 17.8 96.648 17.7733 96.9146 17.72C97.1813 17.6667 97.4266 17.6027 97.6506 17.528C97.9173 17.4427 98.1786 17.3467 98.4346 17.24L98.9146 18.376C98.6373 18.5147 98.3386 18.6373 98.0186 18.744C97.7413 18.84 97.4213 18.9253 97.0586 19C96.696 19.0747 96.312 19.112 95.9066 19.112C95.288 19.112 94.76 19.0213 94.3226 18.84C93.8853 18.648 93.528 18.3813 93.2506 18.04C92.9733 17.6987 92.7706 17.288 92.6426 16.808C92.5146 16.328 92.4506 15.7947 92.4506 15.208ZM96.1626 12.088C95.8106 12.088 95.5173 12.1733 95.2826 12.344C95.0586 12.504 94.8773 12.7173 94.7386 12.984C94.6 13.24 94.4986 13.5333 94.4346 13.864C94.3813 14.184 94.3493 14.5093 94.3386 14.84C94.8506 14.8187 95.2826 14.7547 95.6346 14.648C95.9973 14.5307 96.2906 14.392 96.5146 14.232C96.7386 14.0613 96.8986 13.88 96.9946 13.688C97.1013 13.496 97.1546 13.304 97.1546 13.112C97.1546 12.8027 97.064 12.5573 96.8826 12.376C96.7013 12.184 96.4613 12.088 96.1626 12.088ZM102.173 19.064C101.608 19.064 101.176 18.8987 100.877 18.568C100.578 18.2267 100.429 17.7893 100.429 17.256V11.032H102.253V17.096C102.253 17.3413 102.29 17.5067 102.365 17.592C102.44 17.6773 102.552 17.72 102.701 17.72C102.744 17.72 102.786 17.72 102.829 17.72C102.882 17.72 102.93 17.7147 102.973 17.704C103.016 17.704 103.064 17.6987 103.117 17.688L103.309 18.84C103.234 18.8827 103.138 18.92 103.021 18.952C102.925 18.984 102.802 19.0107 102.653 19.032C102.514 19.0533 102.354 19.064 102.173 19.064ZM101.373 7.48C101.714 7.48 101.976 7.58133 102.157 7.784C102.338 7.98667 102.429 8.248 102.429 8.568C102.429 8.888 102.333 9.15467 102.141 9.368C101.96 9.58133 101.688 9.688 101.325 9.688C100.984 9.688 100.717 9.58667 100.525 9.384C100.344 9.17067 100.253 8.91467 100.253 8.616C100.253 8.28533 100.344 8.01333 100.525 7.8C100.717 7.58667 101 7.48 101.373 7.48ZM106.283 19.064C105.675 19.064 105.227 18.8987 104.939 18.568C104.651 18.2267 104.507 17.7947 104.507 17.272V7.72L106.331 7.384V17.096C106.331 17.3413 106.379 17.512 106.475 17.608C106.571 17.704 106.71 17.752 106.891 17.752C106.998 17.752 107.099 17.7467 107.195 17.736C107.302 17.7253 107.398 17.7093 107.483 17.688C107.579 17.6667 107.664 17.6453 107.739 17.624L107.963 18.776C107.824 18.8293 107.67 18.8773 107.499 18.92C107.35 18.9627 107.174 18.9947 106.971 19.016C106.768 19.048 106.539 19.064 106.283 19.064Z" fill="#63AB45"/>
<path d="M50.08 22.168H51.584L55.76 33H53.728L52.736 30.168H48.832L47.808 33H45.92L50.08 22.168ZM52.24 28.76C51.8987 27.8 51.6053 26.9307 51.36 26.152C51.1147 25.3627 50.928 24.744 50.8 24.296C50.6507 24.776 50.4533 25.4053 50.208 26.184C49.9627 26.9627 49.6747 27.8213 49.344 28.76H52.24ZM62.5035 33.128C62.4822 33.1173 62.4342 33.0693 62.3595 32.984C62.2848 32.888 62.1995 32.76 62.1035 32.6C62.0182 32.44 61.9328 32.2427 61.8475 32.008C61.7622 31.7627 61.7088 31.48 61.6875 31.16C61.5062 31.8 61.2128 32.2853 60.8075 32.616C60.4128 32.936 59.8742 33.096 59.1915 33.096C58.6902 33.096 58.2528 33.0053 57.8795 32.824C57.5168 32.632 57.2128 32.3653 56.9675 32.024C56.7222 31.672 56.5408 31.2507 56.4235 30.76C56.3062 30.2693 56.2475 29.7253 56.2475 29.128C56.2475 28.52 56.3382 27.96 56.5195 27.448C56.7115 26.9253 56.9728 26.4773 57.3035 26.104C57.6448 25.7307 58.0502 25.4373 58.5195 25.224C58.9888 25.0107 59.5062 24.904 60.0715 24.904C60.2635 24.904 60.4662 24.9147 60.6795 24.936C60.9035 24.9573 61.1222 24.984 61.3355 25.016V21.4L63.1595 21.72V29.144C63.1595 29.784 63.1968 30.3173 63.2715 30.744C63.3462 31.16 63.4315 31.5013 63.5275 31.768C63.6235 32.024 63.7088 32.2107 63.7835 32.328C63.8688 32.4453 63.9168 32.52 63.9275 32.552L62.5035 33.128ZM59.4955 31.8C59.7622 31.8 60.0075 31.7093 60.2315 31.528C60.4555 31.3467 60.6475 31.112 60.8075 30.824C60.9782 30.5253 61.1062 30.1893 61.1915 29.816C61.2875 29.4427 61.3355 29.0587 61.3355 28.664V26.36C61.2288 26.328 61.0688 26.2907 60.8555 26.248C60.6422 26.2053 60.4502 26.184 60.2795 26.184C59.8742 26.184 59.5382 26.2533 59.2715 26.392C59.0155 26.5307 58.8075 26.7227 58.6475 26.968C58.4875 27.2133 58.3755 27.5067 58.3115 27.848C58.2475 28.1893 58.2155 28.5627 58.2155 28.968C58.2155 29.3413 58.2262 29.6987 58.2475 30.04C58.2688 30.3813 58.3222 30.6853 58.4075 30.952C58.5035 31.208 58.6368 31.416 58.8075 31.576C58.9782 31.7253 59.2075 31.8 59.4955 31.8ZM71.7696 25.032L71.8016 25.16C71.8123 25.256 71.8283 25.384 71.8496 25.544C71.871 25.6933 71.887 25.8693 71.8976 26.072C71.919 26.264 71.9296 26.4613 71.9296 26.664C71.9296 27.848 71.839 28.8507 71.6576 29.672C71.487 30.4827 71.2203 31.144 70.8576 31.656C70.5056 32.1573 70.0523 32.52 69.4976 32.744C68.9536 32.968 68.3083 33.08 67.5616 33.08C66.719 33.08 66.1163 32.84 65.7536 32.36C65.4016 31.8693 65.2256 31.1973 65.2256 30.344V25.032H67.0496V30.296C67.0496 30.744 67.1296 31.1067 67.2896 31.384C67.4496 31.6613 67.7216 31.8 68.1056 31.8C68.4896 31.8 68.8096 31.656 69.0656 31.368C69.3216 31.08 69.5243 30.7067 69.6736 30.248C69.823 29.7787 69.9296 29.2507 69.9936 28.664C70.0576 28.0667 70.0896 27.464 70.0896 26.856C70.0896 26.632 70.079 26.4133 70.0576 26.2C70.047 25.976 70.0256 25.7787 69.9936 25.608C69.9723 25.4373 69.9563 25.2987 69.9456 25.192L69.9136 25.032H71.7696ZM73.2163 29.208C73.2163 28.4933 73.3123 27.864 73.5043 27.32C73.7069 26.776 73.9789 26.3227 74.3203 25.96C74.6723 25.5867 75.0829 25.3093 75.5523 25.128C76.0216 24.936 76.5283 24.84 77.0723 24.84C77.5523 24.84 77.9576 24.8987 78.2883 25.016C78.6296 25.1333 78.9069 25.2933 79.1203 25.496C79.3336 25.6987 79.4883 25.9387 79.5843 26.216C79.6909 26.4933 79.7443 26.792 79.7443 27.112C79.7443 27.496 79.6376 27.864 79.4243 28.216C79.2109 28.5573 78.9016 28.8613 78.4963 29.128C78.1016 29.384 77.6216 29.592 77.0563 29.752C76.4909 29.9013 75.8563 29.9813 75.1523 29.992C75.1843 30.2373 75.2323 30.472 75.2963 30.696C75.3709 30.9093 75.4723 31.1013 75.6003 31.272C75.7389 31.432 75.9149 31.56 76.1283 31.656C76.3416 31.752 76.6083 31.8 76.9283 31.8C77.1629 31.8 77.4136 31.7733 77.6803 31.72C77.9469 31.6667 78.1923 31.6027 78.4163 31.528C78.6829 31.4427 78.9443 31.3467 79.2003 31.24L79.6803 32.376C79.4029 32.5147 79.1043 32.6373 78.7843 32.744C78.5069 32.84 78.1869 32.9253 77.8243 33C77.4616 33.0747 77.0776 33.112 76.6723 33.112C76.0536 33.112 75.5256 33.0213 75.0883 32.84C74.6509 32.648 74.2936 32.3813 74.0163 32.04C73.7389 31.6987 73.5363 31.288 73.4083 30.808C73.2803 30.328 73.2163 29.7947 73.2163 29.208ZM76.9283 26.088C76.5763 26.088 76.2829 26.1733 76.0483 26.344C75.8243 26.504 75.6429 26.7173 75.5043 26.984C75.3656 27.24 75.2643 27.5333 75.2003 27.864C75.1469 28.184 75.1149 28.5093 75.1043 28.84C75.6163 28.8187 76.0483 28.7547 76.4003 28.648C76.7629 28.5307 77.0563 28.392 77.2803 28.232C77.5043 28.0613 77.6643 27.88 77.7603 27.688C77.8669 27.496 77.9203 27.304 77.9203 27.112C77.9203 26.8027 77.8296 26.5573 77.6483 26.376C77.4669 26.184 77.2269 26.088 76.9283 26.088ZM86.2188 33V27.832C86.2188 27.384 86.1388 27.0267 85.9788 26.76C85.8188 26.4827 85.5468 26.344 85.1628 26.344C84.9174 26.344 84.6774 26.408 84.4427 26.536C84.2188 26.6533 84.0161 26.8293 83.8348 27.064C83.6534 27.2987 83.5041 27.5867 83.3868 27.928C83.2801 28.2587 83.2268 28.632 83.2268 29.048V33H81.4028V28.968C81.4028 28.328 81.3601 27.7947 81.2747 27.368C81.1894 26.9307 81.0988 26.5787 81.0028 26.312C80.8854 26.0027 80.7574 25.752 80.6188 25.56L82.0588 24.984C82.1654 25.1013 82.2721 25.2453 82.3788 25.416C82.4641 25.5653 82.5494 25.752 82.6348 25.976C82.7201 26.1893 82.7894 26.4347 82.8428 26.712C83.1201 26.072 83.5201 25.6133 84.0428 25.336C84.5654 25.048 85.1148 24.904 85.6908 24.904C86.5121 24.904 87.1041 25.1547 87.4668 25.656C87.8401 26.1467 88.0268 26.8133 88.0268 27.656V33H86.2188ZM89.16 25.032H90.6L90.92 23.16L92.424 22.824V25.032H94.392L94.168 26.328H92.424V31.064C92.424 31.3413 92.4987 31.5227 92.648 31.608C92.7973 31.6827 92.9627 31.72 93.144 31.72C93.2933 31.72 93.4427 31.7093 93.592 31.688C93.7413 31.6667 93.8747 31.64 93.992 31.608C94.1307 31.576 94.264 31.5387 94.392 31.496L94.696 32.696L94.552 32.744C94.456 32.7867 94.312 32.8347 94.12 32.888C93.9387 32.9307 93.72 32.968 93.464 33C93.2187 33.0427 92.9467 33.064 92.648 33.064C92.3493 33.064 92.072 33.032 91.816 32.968C91.5707 32.904 91.3573 32.8027 91.176 32.664C90.9947 32.5147 90.8507 32.328 90.744 32.104C90.648 31.88 90.6 31.6027 90.6 31.272V26.328H89.16V25.032ZM100.557 25.032H102.381V29.144C102.381 29.784 102.419 30.3227 102.493 30.76C102.579 31.1867 102.669 31.5333 102.765 31.8C102.883 32.12 103.011 32.3707 103.149 32.552L101.725 33.128C101.597 33.0107 101.48 32.8613 101.373 32.68C101.288 32.5307 101.197 32.3493 101.101 32.136C101.016 31.912 100.957 31.6507 100.925 31.352C100.637 31.9813 100.232 32.4293 99.7093 32.696C99.1866 32.9627 98.6426 33.096 98.0773 33.096C97.2346 33.096 96.6319 32.8507 96.2693 32.36C95.9173 31.8693 95.7413 31.1973 95.7413 30.344V25.032H97.5653V30.312C97.5653 30.76 97.6453 31.112 97.8053 31.368C97.9653 31.624 98.2373 31.752 98.6213 31.752C98.8559 31.752 99.0853 31.688 99.3093 31.56C99.5439 31.4213 99.7519 31.2293 99.9333 30.984C100.125 30.7387 100.275 30.4453 100.381 30.104C100.499 29.752 100.557 29.3627 100.557 28.936V25.032ZM108.171 26.696C107.979 26.696 107.787 26.744 107.595 26.84C107.403 26.936 107.232 27.0693 107.083 27.24C106.933 27.4 106.811 27.5973 106.715 27.832C106.619 28.0667 106.571 28.328 106.571 28.616V33H104.747V28.968C104.747 28.328 104.704 27.7947 104.618 27.368C104.533 26.9307 104.443 26.5787 104.347 26.312C104.229 26.0027 104.101 25.752 103.963 25.56L105.403 24.984C105.499 25.1013 105.6 25.2453 105.707 25.416C105.792 25.5653 105.877 25.7413 105.963 25.944C106.048 26.1467 106.117 26.3867 106.171 26.664C106.384 26.0453 106.693 25.6027 107.099 25.336C107.504 25.0587 107.963 24.92 108.475 24.92C108.72 24.92 108.949 24.952 109.163 25.016C109.376 25.0693 109.477 25.096 109.467 25.096L108.955 26.872C108.965 26.872 108.901 26.8453 108.763 26.792C108.635 26.728 108.437 26.696 108.171 26.696ZM109.544 29.208C109.544 28.4933 109.64 27.864 109.832 27.32C110.035 26.776 110.307 26.3227 110.648 25.96C111 25.5867 111.411 25.3093 111.88 25.128C112.35 24.936 112.856 24.84 113.4 24.84C113.88 24.84 114.286 24.8987 114.616 25.016C114.958 25.1333 115.235 25.2933 115.448 25.496C115.662 25.6987 115.816 25.9387 115.912 26.216C116.019 26.4933 116.072 26.792 116.072 27.112C116.072 27.496 115.966 27.864 115.752 28.216C115.539 28.5573 115.23 28.8613 114.824 29.128C114.43 29.384 113.95 29.592 113.384 29.752C112.819 29.9013 112.184 29.9813 111.48 29.992C111.512 30.2373 111.56 30.472 111.624 30.696C111.699 30.9093 111.8 31.1013 111.928 31.272C112.067 31.432 112.243 31.56 112.456 31.656C112.67 31.752 112.936 31.8 113.256 31.8C113.491 31.8 113.742 31.7733 114.008 31.72C114.275 31.6667 114.52 31.6027 114.744 31.528C115.011 31.4427 115.272 31.3467 115.528 31.24L116.008 32.376C115.731 32.5147 115.432 32.6373 115.112 32.744C114.835 32.84 114.515 32.9253 114.152 33C113.79 33.0747 113.406 33.112 113 33.112C112.382 33.112 111.854 33.0213 111.416 32.84C110.979 32.648 110.622 32.3813 110.344 32.04C110.067 31.6987 109.864 31.288 109.736 30.808C109.608 30.328 109.544 29.7947 109.544 29.208ZM113.256 26.088C112.904 26.088 112.611 26.1733 112.376 26.344C112.152 26.504 111.971 26.7173 111.832 26.984C111.694 27.24 111.592 27.5333 111.528 27.864C111.475 28.184 111.443 28.5093 111.432 28.84C111.944 28.8187 112.376 28.7547 112.728 28.648C113.091 28.5307 113.384 28.392 113.608 28.232C113.832 28.0613 113.992 27.88 114.088 27.688C114.195 27.496 114.248 27.304 114.248 27.112C114.248 26.8027 114.158 26.5573 113.976 26.376C113.795 26.184 113.555 26.088 113.256 26.088ZM119.939 24.84C120.248 24.84 120.552 24.872 120.851 24.936C121.15 25 121.416 25.0747 121.651 25.16C121.928 25.256 122.184 25.3573 122.419 25.464L121.875 26.712C121.662 26.616 121.448 26.5307 121.235 26.456C121.054 26.392 120.851 26.3333 120.627 26.28C120.414 26.216 120.2 26.184 119.987 26.184C119.742 26.184 119.528 26.2427 119.347 26.36C119.176 26.4773 119.091 26.6533 119.091 26.888C119.091 27.496 119.534 27.9707 120.419 28.312C120.75 28.44 121.048 28.5787 121.315 28.728C121.582 28.8667 121.806 29.032 121.987 29.224C122.179 29.416 122.323 29.64 122.419 29.896C122.515 30.1413 122.563 30.4347 122.563 30.776C122.563 31.0747 122.499 31.368 122.371 31.656C122.254 31.944 122.072 32.2 121.827 32.424C121.592 32.648 121.299 32.8293 120.947 32.968C120.606 33.096 120.216 33.16 119.779 33.16C119.427 33.16 119.08 33.1173 118.739 33.032C118.398 32.9573 118.088 32.872 117.811 32.776C117.544 32.68 117.331 32.5893 117.171 32.504L116.931 32.392L117.523 31.048L117.731 31.16C117.87 31.2453 118.046 31.336 118.259 31.432C118.472 31.528 118.702 31.6187 118.947 31.704C119.192 31.7787 119.416 31.816 119.619 31.816C119.992 31.816 120.27 31.7413 120.451 31.592C120.632 31.4427 120.723 31.2453 120.723 31C120.723 30.7227 120.622 30.472 120.419 30.248C120.227 30.0133 119.934 29.8213 119.539 29.672C118.718 29.3627 118.126 29.0107 117.763 28.616C117.411 28.2213 117.235 27.7093 117.235 27.08C117.235 26.7813 117.304 26.4987 117.443 26.232C117.582 25.9547 117.768 25.7147 118.003 25.512C118.248 25.2987 118.536 25.1333 118.867 25.016C119.198 24.8987 119.555 24.84 119.939 24.84Z" fill="white"/>
</g>
</g>
</g>
<defs>
<clipPath id="clip0_17_105">
<rect width="154" height="40" fill="white"/>
</clipPath>
<clipPath id="clip1_17_105">
<rect width="154" height="40" fill="white"/>
</clipPath>
<clipPath id="clip2_17_105">
<rect width="154" height="40" fill="white"/>
</clipPath>
</defs>
</svg>
