<svg width="172" height="48" viewBox="0 0 172 48" fill="none" xmlns="http://www.w3.org/2000/svg">
<mask id="mask0_1_2535" style="mask-type:alpha" maskUnits="userSpaceOnUse" x="0" y="0" width="172" height="48">
<g clip-path="url(#clip0_1_2535)">
<g clip-path="url(#clip1_1_2535)">
<path d="M85.0132 0.934439C85.6363 0.648156 86.3534 0.648156 86.9765 0.934439L95.9978 5.07883C96.4766 5.29879 97.0155 5.35157 97.5278 5.22872L111.096 1.97563C111.967 1.76674 112.882 2.07112 113.454 2.76059L116.354 6.25467C116.863 6.86746 117.647 7.18123 118.438 7.0884L133.305 5.3435C134.769 5.17168 135.916 6.57888 135.452 7.97806C135.013 9.30192 136.02 10.6604 137.414 10.6257L150.153 10.3088C151.645 10.2716 152.241 12.2211 150.984 13.0254C149.782 13.794 150.263 15.6511 151.687 15.7397L159.514 16.2274C161.179 16.331 161.462 18.6636 159.871 19.1618C158.359 19.6353 158.514 21.824 160.078 22.0796L161.169 22.2579C163.142 22.5804 163.142 25.4193 161.169 25.7418L160.078 25.9201C158.514 26.1757 158.359 28.3644 159.871 28.8379C161.462 29.3361 161.179 31.6687 159.514 31.7723L151.687 32.26C150.263 32.3487 149.782 34.2058 150.984 34.9743C152.241 35.7787 151.645 37.7282 150.153 37.691L137.414 37.374C136.02 37.3393 135.013 38.6979 135.452 40.0217C135.916 41.4208 134.769 42.8281 133.305 42.6563L118.438 40.9114C117.647 40.8185 116.863 41.1323 116.354 41.745L113.454 45.2392C112.882 45.9286 111.967 46.233 111.096 46.0241L97.5278 42.771C97.0155 42.6482 96.4766 42.701 95.9978 42.9209L86.9765 47.0653C86.3534 47.3516 85.6363 47.3516 85.0132 47.0653L75.9919 42.9209C75.5131 42.701 74.9742 42.6482 74.4619 42.771L60.8935 46.0241C60.0222 46.233 59.1079 45.9286 58.5357 45.2392L55.6357 41.745C55.1272 41.1323 54.343 40.8185 53.552 40.9114L38.6848 42.6563C37.2208 42.8281 36.074 41.4208 36.5379 40.0217C36.9768 38.6979 35.97 37.3393 34.5757 37.374L21.8375 37.691C20.3452 37.7282 19.7486 35.7787 21.0062 34.9743C22.2079 34.2058 21.7271 32.3487 20.3034 32.26L12.4751 31.7723C10.8108 31.6687 10.5281 29.3361 12.1195 28.8379C13.6317 28.3644 13.4766 26.1757 11.9127 25.9201L10.8214 25.7418C8.84743 25.4193 8.84743 22.5804 10.8214 22.2579L11.9127 22.0796C13.4766 21.824 13.6317 19.6353 12.1195 19.1618C10.5281 18.6636 10.8108 16.331 12.4751 16.2274L20.3034 15.7397C21.7271 15.6511 22.2079 13.794 21.0062 13.0254C19.7486 12.2211 20.3452 10.2716 21.8375 10.3088L34.5757 10.6257C35.97 10.6604 36.9768 9.30192 36.5379 7.97806C36.074 6.57888 37.2208 5.17168 38.6848 5.3435L53.552 7.0884C54.343 7.18123 55.1272 6.86746 55.6357 6.25467L58.5357 2.76059C59.1079 2.07112 60.0222 1.76674 60.8935 1.97563L74.4619 5.22872C74.9742 5.35157 75.5131 5.29879 75.9919 5.07883L85.0132 0.934439Z" fill="#63AB45"/>
</g>
</g>
</mask>
<g mask="url(#mask0_1_2535)">
<rect width="171.67" height="47" transform="translate(0.159973 0.5)" fill="#FBB03B" fill-opacity="0.3"/>
<path d="M41.5996 17.1074C41.4668 17.1517 41.3672 17.1572 41.3008 17.124C41.2343 17.0908 41.1845 17.0355 41.1513 16.958C41.1181 16.8805 41.1015 16.7975 41.1015 16.709C41.1015 16.6094 41.1071 16.5153 41.1181 16.4268C41.1292 16.3493 41.1458 16.2607 41.1679 16.1611C41.2011 16.0615 41.2399 15.9674 41.2841 15.8789C41.3284 15.7904 41.3782 15.7184 41.4336 15.6631C41.5 15.5967 41.583 15.5524 41.6826 15.5303C42.1917 15.4417 42.6842 15.3753 43.1601 15.3311C43.6471 15.2868 44.0843 15.2536 44.4716 15.2314C44.9144 15.1982 45.3405 15.1816 45.75 15.1816C45.8385 15.1816 45.9271 15.1872 46.0156 15.1982C46.1041 15.1982 46.1927 15.1982 46.2812 15.1982C46.3808 15.1761 46.4583 15.1706 46.5136 15.1816C46.58 15.1816 46.6354 15.1872 46.6797 15.1982C47.0006 15.2093 47.3327 15.2259 47.6758 15.248C47.9635 15.2702 48.2845 15.2979 48.6386 15.3311C49.0039 15.3532 49.3636 15.3864 49.7177 15.4307C49.7509 15.5192 49.7565 15.6299 49.7343 15.7627C49.7233 15.8291 49.7122 15.8955 49.7011 15.9619C49.6901 16.0283 49.6624 16.0892 49.6181 16.1445C49.5849 16.1999 49.5407 16.2552 49.4853 16.3105C49.4411 16.3548 49.3857 16.3936 49.3193 16.4268C48.943 16.4157 48.5778 16.4102 48.2236 16.4102C47.8805 16.3991 47.5761 16.3936 47.3105 16.3936H46.414C46.2702 16.9027 46.0931 17.5335 45.8828 18.2861C45.6725 19.0277 45.4567 19.8135 45.2353 20.6436C45.025 21.4626 44.8203 22.2816 44.6211 23.1006C44.4329 23.9085 44.2835 24.639 44.1728 25.292C44.0621 25.9229 43.9515 26.5426 43.8408 27.1514C43.7965 27.4059 43.7467 27.6715 43.6914 27.9482C43.6471 28.2249 43.6028 28.4961 43.5586 28.7617C43.5254 29.0273 43.4922 29.2819 43.459 29.5254C43.4258 29.7689 43.3981 29.9902 43.3759 30.1895C43.1989 30.278 43.0328 30.3444 42.8779 30.3887C42.723 30.444 42.5846 30.4827 42.4629 30.5049C42.319 30.5381 42.1862 30.5547 42.0644 30.5547C41.7988 30.5547 41.6328 30.5215 41.5664 30.4551C41.511 30.3997 41.5055 30.2835 41.5498 30.1064C41.583 29.9515 41.6826 29.5309 41.8486 28.8447C41.915 28.557 41.998 28.1917 42.0976 27.749C42.2083 27.3174 42.3356 26.7917 42.4795 26.1719C42.6233 25.541 42.7949 24.8105 42.9941 23.9805C43.1933 23.1393 43.4202 22.1764 43.6748 21.0918L44.7871 16.4766C44.455 16.5208 44.1286 16.5706 43.8076 16.626C43.4866 16.6813 43.1823 16.7422 42.8945 16.8086C42.6178 16.8639 42.3633 16.9193 42.1308 16.9746C41.9095 17.0299 41.7324 17.0742 41.5996 17.1074ZM53.216 24.8604C53.1053 25.2809 52.9559 25.6738 52.7678 26.0391C52.5796 26.4043 52.3527 26.7197 52.0871 26.9854C51.8326 27.251 51.5393 27.4557 51.2072 27.5996C50.8863 27.7546 50.5321 27.832 50.1447 27.832C49.691 27.832 49.3313 27.7324 49.0656 27.5332C48.8111 27.3451 48.6174 27.1071 48.4846 26.8193C48.3628 26.5316 48.2909 26.2161 48.2688 25.873C48.2356 25.5299 48.219 25.209 48.219 24.9102C48.219 24.6999 48.2466 24.4674 48.302 24.2129C48.3462 23.9583 48.4126 23.6982 48.5012 23.4326C48.5897 23.167 48.7004 22.9014 48.8332 22.6357C48.9771 22.3701 49.1431 22.1266 49.3313 21.9053C49.3977 21.7171 49.4973 21.5511 49.6301 21.4072C49.774 21.2633 49.9344 21.1471 50.1115 21.0586C50.2997 20.959 50.4989 20.887 50.7092 20.8428C50.9195 20.7874 51.1242 20.7598 51.3234 20.7598C51.3566 20.7598 51.3843 20.7653 51.4065 20.7764C51.4397 20.7874 51.4729 20.7985 51.5061 20.8096C51.6499 20.8206 51.827 20.876 52.0373 20.9756C52.2587 21.0752 52.469 21.2246 52.6682 21.4238C52.8785 21.623 53.0555 21.8776 53.1994 22.1875C53.3433 22.4863 53.4152 22.8516 53.4152 23.2832C53.4152 23.3717 53.4097 23.4824 53.3986 23.6152C53.3876 23.737 53.3765 23.8421 53.3654 23.9307C53.62 23.8311 53.8856 23.7093 54.1623 23.5654C54.439 23.4215 54.7046 23.2721 54.9592 23.1172C55.2248 22.9512 55.4683 22.7852 55.6897 22.6191C55.911 22.4531 56.0881 22.3037 56.2209 22.1709C56.3316 22.0713 56.4257 22.016 56.5031 22.0049C56.5806 21.9938 56.6359 22.016 56.6691 22.0713C56.7024 22.1266 56.7079 22.2041 56.6858 22.3037C56.6636 22.4033 56.6027 22.514 56.5031 22.6357C56.4478 22.7021 56.3039 22.835 56.0715 23.0342C55.8501 23.2334 55.5845 23.4492 55.2746 23.6816C54.9647 23.9141 54.6272 24.141 54.2619 24.3623C53.8967 24.5837 53.5481 24.7497 53.216 24.8604ZM50.4104 22.3369C50.3772 22.4365 50.3606 22.5417 50.3606 22.6523C50.3606 22.8294 50.3716 23.0176 50.3938 23.2168C50.4159 23.4049 50.4712 23.5765 50.5598 23.7314C50.6483 23.8864 50.7867 24.0192 50.9748 24.1299C51.174 24.2295 51.4452 24.2793 51.7883 24.2793C51.8436 24.2793 51.899 24.2793 51.9543 24.2793C52.0096 24.2682 52.065 24.2572 52.1203 24.2461C52.1535 24.1022 52.1812 23.9749 52.2033 23.8643C52.2365 23.7425 52.2531 23.6374 52.2531 23.5488C52.2753 23.3385 52.2753 23.1227 52.2531 22.9014C52.231 22.68 52.1867 22.4808 52.1203 22.3037C52.065 22.1156 51.9875 21.9661 51.8879 21.8555C51.7994 21.7337 51.6887 21.6729 51.5559 21.6729C51.3456 21.6729 51.1408 21.7337 50.9416 21.8555C50.7535 21.9661 50.5764 22.1266 50.4104 22.3369ZM49.3479 25.2588C49.3479 25.458 49.3589 25.6572 49.3811 25.8564C49.4032 26.0446 49.4475 26.2161 49.5139 26.3711C49.5803 26.515 49.6688 26.6367 49.7795 26.7363C49.8902 26.8249 50.0341 26.8691 50.2111 26.8691C50.4104 26.8691 50.593 26.8249 50.759 26.7363C50.925 26.6367 51.0744 26.515 51.2072 26.3711C51.34 26.2161 51.4563 26.0446 51.5559 25.8564C51.6665 25.6572 51.7606 25.4525 51.8381 25.2422C51.7606 25.2533 51.6831 25.2643 51.6057 25.2754C51.5393 25.2754 51.4618 25.2754 51.3733 25.2754C50.9527 25.2754 50.5874 25.1536 50.2775 24.9102C49.9787 24.6556 49.7463 24.3346 49.5803 23.9473C49.5139 24.1797 49.4585 24.4066 49.4143 24.6279C49.37 24.8493 49.3479 25.0596 49.3479 25.2588ZM57.561 27.7656C57.1404 27.7656 56.7973 27.6992 56.5317 27.5664C56.2661 27.4336 56.0558 27.2731 55.9008 27.085C55.7569 26.8857 55.6518 26.6755 55.5854 26.4541C55.5301 26.2217 55.5024 26.0114 55.5024 25.8232C55.5024 25.4912 55.5301 25.1426 55.5854 24.7773C55.6407 24.401 55.7071 24.0579 55.7846 23.748C55.8621 23.4271 55.9285 23.1559 55.9838 22.9346C56.0502 22.7132 56.0945 22.5749 56.1166 22.5195C56.2163 22.1986 56.3435 21.9219 56.4985 21.6895C56.6645 21.446 56.8914 21.2799 57.1791 21.1914C57.2898 21.1693 57.406 21.1471 57.5278 21.125C57.6274 21.1139 57.727 21.1084 57.8266 21.1084C57.9373 21.1084 58.0369 21.125 58.1254 21.1582C57.8266 21.9219 57.5887 22.5583 57.4116 23.0674C57.2456 23.5765 57.1183 23.9915 57.0297 24.3125C56.9301 24.6777 56.8693 24.971 56.8471 25.1924C56.7918 25.6904 56.8361 26.0667 56.9799 26.3213C57.1238 26.5758 57.4171 26.7031 57.8598 26.7031C58.1476 26.7031 58.4243 26.598 58.6899 26.3877C58.9555 26.1663 59.199 25.8841 59.4204 25.541C59.3872 25.3639 59.3706 25.1813 59.3706 24.9932C59.3706 24.639 59.3982 24.2959 59.4536 23.9639C59.52 23.6208 59.5919 23.3053 59.6694 23.0176C59.7579 22.7188 59.8465 22.4531 59.935 22.2207C60.0346 21.9883 60.1176 21.8057 60.184 21.6729C60.3058 21.4072 60.4165 21.2467 60.5161 21.1914C60.6157 21.125 60.7762 21.0863 60.9975 21.0752C61.0861 21.0641 61.158 21.0641 61.2133 21.0752C61.2797 21.0752 61.3351 21.0807 61.3793 21.0918C61.5122 21.125 61.5786 21.1914 61.5786 21.291C61.5786 21.4681 61.5675 21.7337 61.5454 22.0879C61.5232 22.4421 61.4568 22.8073 61.3461 23.1836C61.2687 23.4935 61.1912 23.7591 61.1137 23.9805C61.0473 24.1908 60.9809 24.3734 60.9145 24.5283C60.8481 24.6722 60.7817 24.7939 60.7153 24.8936C60.6489 24.9821 60.588 25.0651 60.5327 25.1426C60.5548 25.4746 60.5825 25.7402 60.6157 25.9395C60.6489 26.1387 60.6876 26.2936 60.7319 26.4043C60.7872 26.5039 60.8481 26.5758 60.9145 26.6201C60.992 26.6533 61.075 26.6699 61.1635 26.6699C61.3185 26.6699 61.5011 26.598 61.7114 26.4541C61.9217 26.2992 62.1375 26.111 62.3588 25.8896C62.5913 25.6572 62.8181 25.4082 63.0395 25.1426C63.2719 24.8659 63.4822 24.6058 63.6704 24.3623C63.8585 24.1188 64.019 23.9085 64.1518 23.7314C64.2846 23.5433 64.3676 23.4271 64.4008 23.3828C64.4783 23.2832 64.5502 23.2223 64.6166 23.2002C64.6941 23.1781 64.755 23.1891 64.7993 23.2334C64.8435 23.2666 64.8657 23.3275 64.8657 23.416C64.8767 23.4935 64.8546 23.582 64.7993 23.6816C64.5779 24.1022 64.3012 24.5505 63.9692 25.0264C63.6482 25.4912 63.2996 25.9229 62.9233 26.3213C62.5581 26.7197 62.1873 27.0518 61.811 27.3174C61.4347 27.583 61.0805 27.7158 60.7485 27.7158C60.4497 27.7158 60.2117 27.6162 60.0346 27.417C59.8686 27.2067 59.7247 26.9079 59.603 26.5205C59.3484 26.9189 59.0496 27.2288 58.7065 27.4502C58.3634 27.6605 57.9816 27.7656 57.561 27.7656ZM63.3503 27.417C63.2728 27.5387 63.1898 27.6162 63.1013 27.6494C63.0016 27.6937 62.9186 27.6992 62.8522 27.666C62.7748 27.6439 62.725 27.5885 62.7028 27.5C62.6807 27.4115 62.7028 27.3008 62.7692 27.168C62.8024 27.1016 62.8799 26.9521 63.0016 26.7197C63.1123 26.4873 63.2507 26.2106 63.4167 25.8896C63.5716 25.5576 63.7432 25.2035 63.9313 24.8271C64.1195 24.4398 64.2966 24.0745 64.4626 23.7314C64.6397 23.3883 64.8002 23.084 64.944 22.8184C65.0879 22.5417 65.1931 22.3424 65.2595 22.2207C65.1377 22.11 65.0547 22.0326 65.0104 21.9883C64.9662 21.9329 64.933 21.8223 64.9108 21.6562C64.8887 21.5124 64.9219 21.3242 65.0104 21.0918C65.099 20.8594 65.2152 20.638 65.3591 20.4277C65.503 20.2064 65.6634 20.0182 65.8405 19.8633C66.0176 19.7083 66.1891 19.6309 66.3552 19.6309C66.6651 19.6309 66.8809 19.7305 67.0026 19.9297C67.1354 20.1289 67.2129 20.3337 67.235 20.5439C67.2572 20.6878 67.2461 20.8704 67.2018 21.0918C67.1576 21.3132 67.0746 21.5124 66.9528 21.6895C66.986 21.7116 67.0303 21.7393 67.0856 21.7725C67.141 21.7946 67.2295 21.8057 67.3513 21.8057C67.5283 21.8057 67.6501 21.7946 67.7165 21.7725C67.794 21.7503 67.9102 21.7393 68.0651 21.7393C68.2533 21.7393 68.4082 21.7891 68.53 21.8887C68.6517 21.9772 68.7513 22.0934 68.8288 22.2373C68.9063 22.3701 68.9616 22.5195 68.9948 22.6855C69.0391 22.8405 69.0668 22.9844 69.0778 23.1172C69.111 23.3939 69.0391 23.6816 68.862 23.9805C68.6849 24.2793 68.4691 24.6058 68.2145 24.96C68.0596 25.1813 67.9046 25.4303 67.7497 25.707C67.5947 25.9837 67.5283 26.2327 67.5505 26.4541C67.5726 26.598 67.6114 26.7142 67.6667 26.8027C67.722 26.8913 67.877 26.9355 68.1315 26.9355C68.3197 26.9355 68.5244 26.8691 68.7458 26.7363C68.9782 26.5924 69.2106 26.4154 69.4431 26.2051C69.6865 25.9837 69.9245 25.7458 70.1569 25.4912C70.3893 25.2256 70.6052 24.971 70.8044 24.7275C71.0036 24.473 71.1696 24.2461 71.3024 24.0469C71.4463 23.8477 71.5515 23.7038 71.6179 23.6152C71.6732 23.5267 71.7451 23.4658 71.8337 23.4326C71.9222 23.3994 71.9997 23.3994 72.0661 23.4326C72.1325 23.4658 72.1712 23.5322 72.1823 23.6318C72.2044 23.7314 72.1657 23.8643 72.0661 24.0303C71.9997 24.141 71.8835 24.318 71.7175 24.5615C71.5625 24.805 71.3688 25.0762 71.1364 25.375C70.9151 25.6738 70.666 25.9837 70.3893 26.3047C70.1127 26.6146 69.8194 26.9023 69.5095 27.168C69.2106 27.4225 68.9063 27.6328 68.5964 27.7988C68.2975 27.9648 68.0098 28.0479 67.7331 28.0479C67.4453 28.0479 67.2074 27.9925 67.0192 27.8818C66.8311 27.7712 66.6761 27.6383 66.5544 27.4834C66.4437 27.3174 66.3607 27.1403 66.3054 26.9521C66.2611 26.7529 66.2445 26.5703 66.2556 26.4043C66.2666 26.2715 66.2998 26.1331 66.3552 25.9893C66.4216 25.8343 66.4935 25.6794 66.571 25.5244C66.6595 25.3584 66.7481 25.1979 66.8366 25.043C66.9362 24.877 67.0248 24.7165 67.1022 24.5615C67.2904 24.2406 67.4398 23.9694 67.5505 23.748C67.6722 23.5156 67.7331 23.3219 67.7331 23.167C67.7331 23.0674 67.711 22.9788 67.6667 22.9014C67.6224 22.8239 67.5505 22.7852 67.4509 22.7852C67.3845 22.7852 67.3347 22.7907 67.3015 22.8018C67.2793 22.8018 67.2516 22.8018 67.2184 22.8018C67.1963 22.8018 67.1576 22.8073 67.1022 22.8184C67.058 22.8184 66.986 22.8184 66.8864 22.8184C66.7425 22.8184 66.6208 22.7962 66.5212 22.752C66.4216 22.7077 66.3275 22.6745 66.239 22.6523C66.1947 22.7298 66.0951 22.8958 65.9401 23.1504C65.7852 23.4049 65.6026 23.7038 65.3923 24.0469C65.1931 24.39 64.9772 24.7497 64.7448 25.126C64.5235 25.5023 64.3132 25.8564 64.114 26.1885C63.9147 26.5094 63.7487 26.7861 63.6159 27.0186C63.472 27.2399 63.3835 27.3727 63.3503 27.417ZM75.8254 29.874C75.8696 29.8408 75.9416 29.7855 76.0412 29.708C76.1297 29.6305 76.2404 29.4867 76.3732 29.2764C76.495 29.0661 76.6333 28.7617 76.7882 28.3633C76.9432 27.9648 77.1037 27.4225 77.2697 26.7363C77.3582 26.3711 77.4744 25.9062 77.6183 25.3418C77.7622 24.7773 77.9172 24.1742 78.0832 23.5322C78.2603 22.8903 78.4373 22.2318 78.6144 21.5566C78.7915 20.8704 78.9631 20.223 79.1291 19.6143C79.2951 18.9945 79.4445 18.4355 79.5773 17.9375C79.7101 17.4395 79.8153 17.0521 79.8927 16.7754C79.6825 16.9082 79.4777 17.0576 79.2785 17.2236C79.1014 17.3675 78.9132 17.5335 78.714 17.7217C78.5148 17.8988 78.3211 18.0869 78.133 18.2861C77.9891 18.1644 77.8784 18.0316 77.8009 17.8877C77.7567 17.8213 77.7179 17.7493 77.6847 17.6719C77.6183 17.5059 77.5851 17.3343 77.5851 17.1572C77.5851 16.9801 77.7235 16.7975 78.0002 16.6094C78.144 16.5098 78.3599 16.3659 78.6476 16.1777C78.9465 15.9896 79.3117 15.807 79.7433 15.6299C80.175 15.4417 80.6785 15.2812 81.2541 15.1484C81.8296 15.0156 82.466 14.9492 83.1632 14.9492C83.8605 14.9492 84.4194 15.0876 84.84 15.3643C85.2716 15.641 85.5981 15.9785 85.8195 16.377C86.0519 16.7754 86.2013 17.196 86.2677 17.6387C86.3341 18.0814 86.3507 18.4688 86.3175 18.8008C86.2511 19.4206 86.0519 20.068 85.7199 20.7432C85.3879 21.4183 84.9285 22.0436 84.342 22.6191C83.7554 23.1836 83.0415 23.665 82.2004 24.0635C81.3592 24.4619 80.3963 24.6888 79.3117 24.7441C79.2231 25.1647 79.1346 25.5964 79.0461 26.0391C78.9575 26.4818 78.8634 26.9189 78.7638 27.3506C78.6642 27.7712 78.5591 28.1641 78.4484 28.5293C78.3488 28.9056 78.2437 29.2266 78.133 29.4922C78.0223 29.7799 77.8784 30.0068 77.7013 30.1729C77.5243 30.3499 77.242 30.4385 76.8547 30.4385C76.6554 30.4385 76.4728 30.3887 76.3068 30.2891C76.1297 30.1895 75.9692 30.0511 75.8254 29.874ZM79.7599 22.3037C79.7267 22.4808 79.6825 22.7132 79.6271 23.001C79.5828 23.2777 79.5275 23.5931 79.4611 23.9473C79.7599 23.903 80.092 23.8255 80.4572 23.7148C80.8224 23.5931 81.1877 23.4326 81.5529 23.2334C81.9181 23.0342 82.2723 22.7962 82.6154 22.5195C82.9696 22.2318 83.2905 21.9053 83.5783 21.54C83.866 21.1637 84.104 20.7432 84.2922 20.2783C84.4914 19.8024 84.6187 19.2767 84.674 18.7012C84.7293 18.1478 84.6961 17.6885 84.5744 17.3232C84.4637 16.9469 84.2977 16.6481 84.0763 16.4268C83.855 16.1943 83.6004 16.0339 83.3127 15.9453C83.0249 15.8457 82.7371 15.7959 82.4494 15.7959C82.1727 15.7959 81.9015 15.8346 81.6359 15.9121C81.3703 15.9896 81.1047 16.0892 80.839 16.2109C80.8722 16.222 80.911 16.2497 80.9552 16.2939C81.0216 16.3604 81.0715 16.4544 81.1047 16.5762C80.839 17.6497 80.6177 18.5462 80.4406 19.2656C80.2746 19.985 80.1418 20.5716 80.0422 21.0254C79.9204 21.5566 79.8263 21.9827 79.7599 22.3037ZM95.0951 24.1963C94.9402 24.4176 94.741 24.6943 94.4975 25.0264C94.254 25.3473 93.9994 25.6738 93.7338 26.0059C93.4792 26.3268 93.2247 26.6257 92.9701 26.9023C92.7266 27.168 92.5219 27.3561 92.3559 27.4668C92.2452 27.5332 92.1179 27.5885 91.974 27.6328C91.8302 27.6771 91.6807 27.7048 91.5258 27.7158C91.3819 27.7269 91.2436 27.7158 91.1108 27.6826C90.9779 27.6605 90.8617 27.6162 90.7621 27.5498C90.6625 27.4723 90.5795 27.3617 90.5131 27.2178C90.4578 27.096 90.4024 26.9355 90.3471 26.7363C90.3028 26.5371 90.2862 26.2881 90.2973 25.9893C90.0317 26.432 89.7384 26.7751 89.4174 27.0186C89.0964 27.251 88.7921 27.4225 88.5043 27.5332C88.1723 27.6549 87.8402 27.7269 87.5082 27.749C87.3533 27.749 87.1872 27.6937 87.0102 27.583C86.8331 27.4834 86.6837 27.3229 86.5619 27.1016C86.4402 26.8691 86.3627 26.5758 86.3295 26.2217C86.2963 25.8564 86.3406 25.4248 86.4623 24.9268C86.6173 24.2516 86.8608 23.6374 87.1928 23.084C87.5359 22.5306 87.9067 22.0602 88.3051 21.6729C88.7035 21.2744 89.0964 20.9756 89.4838 20.7764C89.8712 20.5771 90.1921 20.4886 90.4467 20.5107C90.7455 20.5661 90.989 20.6546 91.1772 20.7764C91.3321 20.887 91.4317 21.0531 91.476 21.2744C91.5313 21.4847 91.4428 21.7669 91.2104 22.1211C91.3653 22.0879 91.4926 22.0658 91.5922 22.0547C91.7029 22.0436 91.7859 22.0381 91.8412 22.0381C91.9076 22.0381 91.9519 22.0436 91.974 22.0547C91.9851 22.0768 91.9906 22.1266 91.9906 22.2041C91.9906 22.2705 91.974 22.3978 91.9408 22.5859C91.9076 22.7741 91.8578 23.0286 91.7914 23.3496C91.725 23.6706 91.6365 24.0856 91.5258 24.5947C91.5037 24.6943 91.4815 24.7884 91.4594 24.877C91.4483 24.9544 91.4317 25.0374 91.4096 25.126C91.3985 25.2035 91.3819 25.2975 91.3598 25.4082C91.3376 25.5189 91.31 25.6572 91.2768 25.8232C91.2657 25.9229 91.2602 26.0335 91.2602 26.1553C91.2712 26.266 91.2934 26.3711 91.3266 26.4707C91.3598 26.5703 91.4096 26.6533 91.476 26.7197C91.5535 26.7751 91.6586 26.8027 91.7914 26.8027C91.9021 26.8027 92.046 26.7363 92.2231 26.6035C92.4001 26.4596 92.5883 26.2826 92.7875 26.0723C92.9867 25.8509 93.1915 25.613 93.4018 25.3584C93.6231 25.0928 93.8279 24.8382 94.016 24.5947C94.2042 24.3512 94.3702 24.1354 94.5141 23.9473C94.669 23.7591 94.7797 23.6208 94.8461 23.5322C94.9346 23.4326 95.0232 23.3773 95.1117 23.3662C95.2003 23.3441 95.2667 23.3662 95.3109 23.4326C95.3552 23.499 95.3608 23.5986 95.3275 23.7314C95.3054 23.8643 95.2279 24.0192 95.0951 24.1963ZM90.2309 24.9268C90.2862 24.7054 90.3526 24.4453 90.4301 24.1465C90.5076 23.8477 90.574 23.5599 90.6293 23.2832C90.6846 23.0065 90.7234 22.7796 90.7455 22.6025C90.7787 22.4144 90.7732 22.3258 90.7289 22.3369C90.6736 22.348 90.6127 22.3646 90.5463 22.3867C90.491 22.4089 90.419 22.4255 90.3305 22.4365C90.2419 22.4476 90.1534 22.4642 90.0649 22.4863C90.1534 22.3092 90.2032 22.1654 90.2143 22.0547C90.2364 21.9329 90.2419 21.8389 90.2309 21.7725C90.2198 21.695 90.1977 21.6341 90.1645 21.5898C90.0427 21.4902 89.8269 21.5732 89.517 21.8389C89.2182 22.0934 88.8695 22.5693 88.4711 23.2666C88.3051 23.5544 88.1723 23.8643 88.0727 24.1963C87.9731 24.5173 87.9011 24.8216 87.8568 25.1094C87.8236 25.3971 87.8181 25.6517 87.8402 25.873C87.8624 26.0833 87.9067 26.2217 87.9731 26.2881C88.0948 26.4098 88.2331 26.4707 88.3881 26.4707C88.543 26.4596 88.698 26.4154 88.8529 26.3379C89.019 26.2493 89.1794 26.1387 89.3344 26.0059C89.5004 25.873 89.6443 25.7347 89.766 25.5908C89.8988 25.4469 90.004 25.3141 90.0815 25.1924C90.17 25.0706 90.2198 24.9821 90.2309 24.9268ZM97.3151 26.9355C97.6582 26.9355 98.0345 26.8027 98.444 26.5371C98.8646 26.2604 99.2685 25.9395 99.6559 25.5742C100.054 25.209 100.414 24.8382 100.735 24.4619C101.067 24.0745 101.316 23.7646 101.482 23.5322C101.582 23.3883 101.676 23.3053 101.764 23.2832C101.853 23.25 101.919 23.2611 101.964 23.3164C102.008 23.3717 102.024 23.4603 102.013 23.582C102.002 23.6927 101.952 23.82 101.864 23.9639C101.786 24.0967 101.654 24.2904 101.465 24.5449C101.288 24.7884 101.073 25.0596 100.818 25.3584C100.575 25.6462 100.292 25.945 99.9713 26.2549C99.6614 26.5537 99.3349 26.8304 98.9918 27.085C98.6487 27.3285 98.2946 27.5277 97.9293 27.6826C97.5641 27.8486 97.2044 27.9316 96.8502 27.9316C96.3633 27.9316 95.9538 27.8376 95.6217 27.6494C95.3008 27.4723 95.0407 27.2399 94.8415 26.9521C94.6533 26.6644 94.5205 26.349 94.443 26.0059C94.3655 25.6517 94.3268 25.3031 94.3268 24.96C94.3268 24.6169 94.4043 24.1908 94.5592 23.6816C94.7142 23.1725 94.9411 22.6855 95.2399 22.2207C95.5498 21.7448 95.9372 21.3408 96.402 21.0088C96.8668 20.6657 97.4147 20.4941 98.0456 20.4941C98.3997 20.4941 98.6985 20.6159 98.942 20.8594C99.1966 21.1029 99.3183 21.4349 99.3073 21.8555C99.3073 22.0547 99.2741 22.2539 99.2077 22.4531C99.1413 22.6413 99.0527 22.8128 98.942 22.9678C98.8314 23.1117 98.6985 23.2279 98.5436 23.3164C98.3997 23.4049 98.2392 23.4492 98.0622 23.4492C97.9183 23.4492 97.8076 23.3994 97.7301 23.2998C97.6637 23.1891 97.6194 23.0674 97.5973 22.9346C97.5862 22.7907 97.5862 22.6523 97.5973 22.5195C97.6194 22.3867 97.6416 22.2982 97.6637 22.2539C97.7191 22.1764 97.7799 22.1211 97.8463 22.0879C97.9127 22.0547 97.9902 22.016 98.0788 21.9717C98.1452 21.9385 98.195 21.8887 98.2282 21.8223C98.2724 21.7559 98.2946 21.6839 98.2946 21.6064C98.2946 21.529 98.2724 21.4626 98.2282 21.4072C98.1839 21.3519 98.112 21.3242 98.0124 21.3242C97.9127 21.3242 97.7301 21.4072 97.4645 21.5732C97.2099 21.7282 96.9443 21.9661 96.6676 22.2871C96.402 22.597 96.164 22.9899 95.9538 23.4658C95.7435 23.9417 95.6328 24.4951 95.6217 25.126C95.6107 25.4912 95.6605 25.79 95.7711 26.0225C95.8818 26.2549 96.0202 26.4375 96.1862 26.5703C96.3522 26.7031 96.5348 26.7972 96.734 26.8525C96.9333 26.9079 97.1269 26.9355 97.3151 26.9355ZM109.695 24.1963C109.441 24.6169 109.147 25.054 108.815 25.5078C108.494 25.9505 108.151 26.36 107.786 26.7363C107.421 27.1016 107.044 27.4059 106.657 27.6494C106.27 27.8929 105.882 28.0146 105.495 28.0146C105.108 28.0146 104.825 27.8818 104.648 27.6162C104.482 27.3617 104.405 27.0739 104.416 26.7529C104.416 26.609 104.427 26.4818 104.449 26.3711C104.482 26.2604 104.516 26.1608 104.549 26.0723C104.582 25.9837 104.615 25.8952 104.648 25.8066C104.693 25.707 104.731 25.5964 104.765 25.4746C104.809 25.3307 104.809 25.2035 104.765 25.0928C104.731 24.971 104.687 24.8659 104.632 24.7773C104.532 24.888 104.416 24.9876 104.283 25.0762C104.161 25.1536 104.006 25.1924 103.818 25.1924C103.685 25.1924 103.564 25.1315 103.453 25.0098C103.342 24.877 103.287 24.7165 103.287 24.5283C103.287 24.3734 103.32 24.2461 103.387 24.1465C103.464 24.0469 103.547 23.9694 103.636 23.9141C103.735 23.8587 103.835 23.82 103.934 23.7979C104.034 23.7757 104.117 23.7646 104.183 23.7646C104.217 23.7646 104.283 23.7702 104.383 23.7812C104.493 23.7923 104.61 23.8089 104.731 23.8311C105.13 23.5101 105.412 23.2223 105.578 22.9678C105.755 22.7021 105.772 22.4642 105.628 22.2539C105.539 22.11 105.429 22.0381 105.296 22.0381C105.163 22.027 105.025 22.0602 104.881 22.1377C104.737 22.2041 104.593 22.2926 104.449 22.4033C104.316 22.514 104.195 22.6191 104.084 22.7188C103.863 22.9401 103.613 23.2057 103.337 23.5156C103.071 23.8145 102.85 24.0635 102.673 24.2627C102.595 24.5947 102.518 24.9434 102.44 25.3086C102.374 25.6296 102.296 25.9948 102.208 26.4043C102.13 26.8027 102.047 27.2178 101.959 27.6494C101.892 27.6826 101.821 27.7048 101.743 27.7158C101.677 27.738 101.616 27.7546 101.56 27.7656C101.494 27.7767 101.428 27.7822 101.361 27.7822C101.273 27.7822 101.19 27.7767 101.112 27.7656C101.035 27.7656 100.974 27.738 100.93 27.6826C100.874 27.6383 100.847 27.5609 100.847 27.4502C100.836 27.3395 100.863 27.1846 100.93 26.9854C101.018 26.6976 101.129 26.3158 101.262 25.8398C101.394 25.3529 101.533 24.8216 101.677 24.2461C101.821 23.6706 101.964 23.0729 102.108 22.4531C102.263 21.8223 102.407 21.2246 102.54 20.6602C102.673 20.0846 102.783 19.57 102.872 19.1162C102.972 18.6514 103.044 18.2861 103.088 18.0205C103.121 17.7327 103.154 17.4561 103.187 17.1904C103.21 16.9691 103.221 16.7533 103.221 16.543C103.232 16.3216 103.221 16.1556 103.187 16.0449C103.243 15.9896 103.32 15.9398 103.42 15.8955C103.519 15.8512 103.63 15.818 103.752 15.7959C103.874 15.7627 104.017 15.735 104.183 15.7129C104.372 15.6908 104.527 15.6852 104.648 15.6963C104.781 15.7074 104.875 15.7627 104.931 15.8623C104.997 15.973 105.008 16.1611 104.964 16.4268C104.931 16.6813 104.853 17.041 104.731 17.5059C104.576 18.1035 104.416 18.6514 104.25 19.1494C104.095 19.6364 103.94 20.0957 103.785 20.5273C103.641 20.959 103.497 21.3796 103.353 21.7891C103.221 22.1875 103.099 22.597 102.988 23.0176C103.21 22.6966 103.486 22.359 103.818 22.0049C104.15 21.6396 104.527 21.3408 104.947 21.1084C105.39 20.876 105.755 20.7598 106.043 20.7598C106.397 20.7598 106.652 20.8815 106.807 21.125C106.961 21.3574 107.033 21.6341 107.022 21.9551C107.011 22.2096 106.945 22.4476 106.823 22.6689C106.712 22.8792 106.574 23.0785 106.408 23.2666C106.242 23.4437 106.065 23.5986 105.877 23.7314C105.689 23.8643 105.528 23.9749 105.395 24.0635C105.55 24.152 105.683 24.2738 105.794 24.4287C105.916 24.5726 105.971 24.7552 105.96 24.9766C105.949 25.2754 105.888 25.541 105.777 25.7734C105.678 25.9948 105.628 26.1995 105.628 26.3877C105.639 26.5316 105.667 26.6367 105.711 26.7031C105.766 26.7695 105.877 26.8027 106.043 26.8027C106.342 26.8027 106.652 26.6755 106.973 26.4209C107.305 26.1663 107.614 25.873 107.902 25.541C108.19 25.209 108.456 24.8825 108.699 24.5615C108.943 24.2295 109.131 23.986 109.264 23.8311C109.452 23.6318 109.607 23.582 109.728 23.6816C109.861 23.7702 109.85 23.9417 109.695 24.1963ZM117.693 24.1963C117.538 24.4176 117.338 24.6943 117.095 25.0264C116.851 25.3473 116.597 25.6738 116.331 26.0059C116.077 26.3268 115.822 26.6257 115.568 26.9023C115.324 27.168 115.119 27.3561 114.953 27.4668C114.843 27.5332 114.715 27.5885 114.571 27.6328C114.428 27.6771 114.278 27.7048 114.123 27.7158C113.979 27.7269 113.841 27.7158 113.708 27.6826C113.575 27.6605 113.459 27.6162 113.359 27.5498C113.26 27.4723 113.177 27.3617 113.11 27.2178C113.055 27.096 113 26.9355 112.944 26.7363C112.9 26.5371 112.884 26.2881 112.895 25.9893C112.629 26.432 112.336 26.7751 112.015 27.0186C111.694 27.251 111.389 27.4225 111.102 27.5332C110.77 27.6549 110.438 27.7269 110.106 27.749C109.951 27.749 109.785 27.6937 109.608 27.583C109.43 27.4834 109.281 27.3229 109.159 27.1016C109.038 26.8691 108.96 26.5758 108.927 26.2217C108.894 25.8564 108.938 25.4248 109.06 24.9268C109.215 24.2516 109.458 23.6374 109.79 23.084C110.133 22.5306 110.504 22.0602 110.902 21.6729C111.301 21.2744 111.694 20.9756 112.081 20.7764C112.469 20.5771 112.79 20.4886 113.044 20.5107C113.343 20.5661 113.586 20.6546 113.775 20.7764C113.929 20.887 114.029 21.0531 114.073 21.2744C114.129 21.4847 114.04 21.7669 113.808 22.1211C113.963 22.0879 114.09 22.0658 114.19 22.0547C114.3 22.0436 114.383 22.0381 114.439 22.0381C114.505 22.0381 114.549 22.0436 114.571 22.0547C114.582 22.0768 114.588 22.1266 114.588 22.2041C114.588 22.2705 114.571 22.3978 114.538 22.5859C114.505 22.7741 114.455 23.0286 114.389 23.3496C114.322 23.6706 114.234 24.0856 114.123 24.5947C114.101 24.6943 114.079 24.7884 114.057 24.877C114.046 24.9544 114.029 25.0374 114.007 25.126C113.996 25.2035 113.979 25.2975 113.957 25.4082C113.935 25.5189 113.907 25.6572 113.874 25.8232C113.863 25.9229 113.858 26.0335 113.858 26.1553C113.869 26.266 113.891 26.3711 113.924 26.4707C113.957 26.5703 114.007 26.6533 114.073 26.7197C114.151 26.7751 114.256 26.8027 114.389 26.8027C114.499 26.8027 114.643 26.7363 114.82 26.6035C114.998 26.4596 115.186 26.2826 115.385 26.0723C115.584 25.8509 115.789 25.613 115.999 25.3584C116.22 25.0928 116.425 24.8382 116.613 24.5947C116.802 24.3512 116.968 24.1354 117.111 23.9473C117.266 23.7591 117.377 23.6208 117.443 23.5322C117.532 23.4326 117.621 23.3773 117.709 23.3662C117.798 23.3441 117.864 23.3662 117.908 23.4326C117.953 23.499 117.958 23.5986 117.925 23.7314C117.903 23.8643 117.825 24.0192 117.693 24.1963ZM112.828 24.9268C112.884 24.7054 112.95 24.4453 113.027 24.1465C113.105 23.8477 113.171 23.5599 113.227 23.2832C113.282 23.0065 113.321 22.7796 113.343 22.6025C113.376 22.4144 113.371 22.3258 113.326 22.3369C113.271 22.348 113.21 22.3646 113.144 22.3867C113.088 22.4089 113.016 22.4255 112.928 22.4365C112.839 22.4476 112.751 22.4642 112.662 22.4863C112.751 22.3092 112.801 22.1654 112.812 22.0547C112.834 21.9329 112.839 21.8389 112.828 21.7725C112.817 21.695 112.795 21.6341 112.762 21.5898C112.64 21.4902 112.424 21.5732 112.114 21.8389C111.816 22.0934 111.467 22.5693 111.068 23.2666C110.902 23.5544 110.77 23.8643 110.67 24.1963C110.57 24.5173 110.498 24.8216 110.454 25.1094C110.421 25.3971 110.415 25.6517 110.438 25.873C110.46 26.0833 110.504 26.2217 110.57 26.2881C110.692 26.4098 110.831 26.4707 110.985 26.4707C111.14 26.4596 111.295 26.4154 111.45 26.3379C111.616 26.2493 111.777 26.1387 111.932 26.0059C112.098 25.873 112.242 25.7347 112.363 25.5908C112.496 25.4469 112.601 25.3141 112.679 25.1924C112.767 25.0706 112.817 24.9821 112.828 24.9268ZM121.473 29.874C121.418 30.1396 121.346 30.4717 121.257 30.8701C121.18 31.2686 121.086 31.6891 120.975 32.1318C120.875 32.5745 120.754 33.0117 120.61 33.4434C120.477 33.8861 120.328 34.279 120.161 34.6221C119.995 34.9762 119.813 35.264 119.614 35.4854C119.414 35.7067 119.193 35.8174 118.95 35.8174C118.584 35.8174 118.269 35.7067 118.003 35.4854C117.749 35.2751 117.533 35.0039 117.356 34.6719C117.179 34.3509 117.051 34.0023 116.974 33.626C116.885 33.2497 116.841 32.901 116.841 32.5801C116.841 32.1374 116.88 31.7666 116.957 31.4678C117.035 31.18 117.168 30.9033 117.356 30.6377C117.555 30.3721 117.821 30.0898 118.153 29.791C118.485 29.4922 118.911 29.1214 119.431 28.6787C119.686 28.4574 119.929 28.2471 120.161 28.0479C120.394 27.8486 120.615 27.666 120.826 27.5C120.881 27.2786 120.931 27.0739 120.975 26.8857C121.03 26.6865 121.075 26.5094 121.108 26.3545C120.82 26.7419 120.471 27.0684 120.062 27.334C119.663 27.5996 119.204 27.7324 118.684 27.7324C118.208 27.7324 117.821 27.5221 117.522 27.1016C117.234 26.6699 117.09 26.0391 117.09 25.209C117.09 24.7995 117.168 24.3291 117.323 23.7979C117.478 23.2666 117.699 22.7686 117.987 22.3037C118.274 21.8389 118.629 21.446 119.049 21.125C119.47 20.804 119.94 20.6436 120.46 20.6436C120.704 20.6436 120.914 20.7044 121.091 20.8262C121.268 20.9479 121.418 21.1029 121.539 21.291C121.661 21.4681 121.755 21.6618 121.822 21.8721C121.888 22.0713 121.938 22.2594 121.971 22.4365C121.993 22.3701 122.01 22.3037 122.021 22.2373C122.032 22.1598 122.049 22.0934 122.071 22.0381C122.181 21.6618 122.303 21.4072 122.436 21.2744C122.58 21.1305 122.79 21.0586 123.067 21.0586C123.222 21.0586 123.349 21.0863 123.449 21.1416C123.559 21.1969 123.615 21.2467 123.615 21.291C123.559 21.4128 123.515 21.5068 123.482 21.5732C123.449 21.6396 123.415 21.7116 123.382 21.7891C123.349 21.8555 123.316 21.944 123.283 22.0547C123.249 22.1654 123.205 22.3258 123.15 22.5361C123.128 22.6136 123.083 22.7962 123.017 23.084C122.962 23.3607 122.884 23.6927 122.785 24.0801C122.696 24.4674 122.596 24.8936 122.486 25.3584C122.386 25.8232 122.286 26.277 122.187 26.7197C122.497 26.5426 122.818 26.3268 123.15 26.0723C123.482 25.8177 123.797 25.5576 124.096 25.292C124.395 25.0264 124.661 24.7773 124.893 24.5449C125.125 24.3014 125.297 24.1022 125.408 23.9473C125.496 23.8145 125.596 23.7204 125.706 23.665C125.817 23.6097 125.911 23.5931 125.989 23.6152C126.077 23.6263 126.127 23.6761 126.138 23.7646C126.16 23.8421 126.127 23.9528 126.038 24.0967C125.784 24.5062 125.474 24.9046 125.109 25.292C124.744 25.6683 124.367 26.0225 123.98 26.3545C123.604 26.6755 123.233 26.9632 122.868 27.2178C122.513 27.4613 122.209 27.6605 121.954 27.8154C121.844 28.3135 121.75 28.7174 121.672 29.0273C121.595 29.3372 121.528 29.6195 121.473 29.874ZM119.381 26.6035C119.614 26.6035 119.829 26.5426 120.029 26.4209C120.239 26.2992 120.427 26.1608 120.593 26.0059C120.759 25.8398 120.897 25.6738 121.008 25.5078C121.119 25.3418 121.202 25.209 121.257 25.1094C121.301 25.0098 121.351 24.877 121.407 24.7109C121.473 24.5449 121.523 24.3844 121.556 24.2295C121.589 24.0745 121.6 23.9362 121.589 23.8145C121.589 23.6927 121.55 23.6263 121.473 23.6152C121.407 23.6042 121.351 23.5599 121.307 23.4824C121.274 23.4049 121.246 23.3164 121.224 23.2168C121.202 23.1172 121.185 23.0176 121.174 22.918C121.174 22.8184 121.169 22.7298 121.158 22.6523C121.102 22.265 121.008 21.9827 120.875 21.8057C120.743 21.6286 120.593 21.54 120.427 21.54C120.15 21.54 119.885 21.6507 119.63 21.8721C119.387 22.0934 119.165 22.3812 118.966 22.7354C118.778 23.0785 118.629 23.4603 118.518 23.8809C118.407 24.2904 118.352 24.6833 118.352 25.0596C118.352 25.5244 118.418 25.9007 118.551 26.1885C118.684 26.4652 118.961 26.6035 119.381 26.6035ZM118.618 34.3066C118.839 34.3066 119.016 34.1406 119.149 33.8086C119.293 33.4876 119.442 33.0449 119.597 32.4805C119.63 32.3477 119.675 32.154 119.73 31.8994C119.796 31.6559 119.868 31.3737 119.946 31.0527C120.034 30.7318 120.123 30.3831 120.211 30.0068C120.3 29.6416 120.394 29.2708 120.494 28.8945C120.405 28.972 120.311 29.0495 120.211 29.127C120.123 29.2155 120.029 29.3151 119.929 29.4258C119.686 29.6582 119.448 29.8796 119.215 30.0898C118.994 30.3112 118.795 30.5381 118.618 30.7705C118.44 31.014 118.297 31.2741 118.186 31.5508C118.086 31.8275 118.036 32.1484 118.036 32.5137C118.036 32.8789 118.048 33.1777 118.07 33.4102C118.103 33.6426 118.142 33.8252 118.186 33.958C118.241 34.0908 118.302 34.1794 118.369 34.2236C118.446 34.279 118.529 34.3066 118.618 34.3066ZM132.94 24.0469C132.608 24.5339 132.232 25.0098 131.811 25.4746C131.391 25.9284 130.942 26.3379 130.466 26.7031C130.002 27.0573 129.52 27.3451 129.022 27.5664C128.535 27.7878 128.059 27.8984 127.594 27.8984C127.351 27.8984 127.085 27.8376 126.797 27.7158C126.521 27.6051 126.266 27.4281 126.034 27.1846C125.801 26.9411 125.613 26.6257 125.469 26.2383C125.337 25.8509 125.298 25.3805 125.353 24.8271C125.397 24.3734 125.536 23.8975 125.768 23.3994C126.012 22.8903 126.305 22.4255 126.648 22.0049C127.002 21.5843 127.395 21.2357 127.827 20.959C128.269 20.6823 128.712 20.5439 129.155 20.5439C129.575 20.5439 129.88 20.6491 130.068 20.8594C130.256 21.0697 130.339 21.3298 130.317 21.6396C130.284 21.9827 130.184 22.2982 130.018 22.5859C129.863 22.8737 129.675 23.1338 129.454 23.3662C129.232 23.5986 128.994 23.8089 128.74 23.9971C128.496 24.1852 128.264 24.3568 128.043 24.5117C127.799 24.6777 127.567 24.8382 127.345 24.9932C127.124 25.137 126.93 25.2699 126.764 25.3916C126.775 25.6683 126.825 25.9007 126.914 26.0889C127.002 26.277 127.113 26.432 127.246 26.5537C127.379 26.6644 127.528 26.7474 127.694 26.8027C127.871 26.847 128.048 26.8691 128.225 26.8691C128.602 26.8691 128.994 26.7529 129.404 26.5205C129.813 26.277 130.212 25.9893 130.599 25.6572C130.998 25.3141 131.363 24.96 131.695 24.5947C132.038 24.2295 132.32 23.9141 132.542 23.6484C132.619 23.5599 132.697 23.5101 132.774 23.499C132.863 23.4769 132.929 23.488 132.973 23.5322C133.029 23.5654 133.056 23.6318 133.056 23.7314C133.056 23.82 133.018 23.9251 132.94 24.0469ZM128.69 21.4902C128.557 21.4902 128.397 21.5566 128.209 21.6895C128.032 21.8223 127.854 22.016 127.677 22.2705C127.5 22.514 127.334 22.8184 127.179 23.1836C127.024 23.5378 126.908 23.9473 126.831 24.4121C126.963 24.3125 127.107 24.2129 127.262 24.1133C127.417 24.0026 127.572 23.8864 127.727 23.7646C128.203 23.3994 128.535 23.0785 128.723 22.8018C128.911 22.5251 129.017 22.2871 129.039 22.0879C129.061 21.8776 129.039 21.7282 128.972 21.6396C128.906 21.54 128.812 21.4902 128.69 21.4902Z" fill="#FBB03B"/>
</g>
<defs>
<clipPath id="clip0_1_2535">
<rect width="171.67" height="47" fill="white" transform="translate(0.159973 0.5)"/>
</clipPath>
<clipPath id="clip1_1_2535">
<rect width="171.67" height="47.0329" fill="white" transform="translate(0.159973 0.483398)"/>
</clipPath>
</defs>
</svg>
