<svg width="166" height="42" viewBox="0 0 166 42" fill="none" xmlns="http://www.w3.org/2000/svg">
<mask id="mask0_1_2940" style="mask-type:alpha" maskUnits="userSpaceOnUse" x="0" y="0" width="166" height="42">
<g clip-path="url(#clip0_1_2940)">
<g clip-path="url(#clip1_1_2940)">
<path d="M82.0407 -1.28056C82.6433 -1.55736 83.3365 -1.55736 83.939 -1.28056L92.6613 2.72646C93.1242 2.93913 93.6452 2.99016 94.1406 2.87138L107.259 -0.273881C108.102 -0.475854 108.986 -0.181557 109.539 0.485057L112.343 3.86333C112.834 4.45581 113.593 4.75918 114.358 4.66942L128.732 2.98236C130.148 2.81624 131.256 4.17679 130.808 5.5296C130.383 6.80958 131.357 8.12305 132.704 8.0895L145.021 7.78305C146.464 7.74715 147.04 9.63201 145.825 10.4097C144.663 11.1527 145.128 12.9483 146.505 13.034L154.073 13.5056C155.682 13.6057 155.955 15.861 154.417 16.3427C152.955 16.8005 153.105 18.9166 154.617 19.1638L155.672 19.3361C157.58 19.6479 157.58 22.3928 155.672 22.7046L154.617 22.8769C153.105 23.1241 152.955 25.2402 154.417 25.698C155.955 26.1797 155.682 28.435 154.073 28.5352L146.505 29.0067C145.128 29.0924 144.663 30.888 145.825 31.631C147.04 32.4087 146.464 34.2936 145.021 34.2577L132.704 33.9512C131.357 33.9177 130.383 35.2312 130.808 36.5112C131.256 37.8639 130.148 39.2245 128.732 39.0584L114.358 37.3713C113.593 37.2815 112.834 37.5849 112.343 38.1773L109.539 41.5557C108.986 42.2223 108.102 42.5166 107.259 42.3146L94.1406 39.1694C93.6452 39.0506 93.1242 39.1016 92.6613 39.3143L83.939 43.3212C83.3365 43.5981 82.6433 43.5981 82.0407 43.3212L73.3185 39.3143C72.8555 39.1016 72.3345 39.0506 71.8392 39.1694L58.7205 42.3146C57.8781 42.5166 56.9941 42.2223 56.4408 41.5557L53.637 38.1773C53.1453 37.5849 52.3871 37.2815 51.6224 37.3713L37.248 39.0584C35.8325 39.2245 34.7237 37.8639 35.1722 36.5112C35.5966 35.2312 34.6231 33.9177 33.275 33.9512L20.9591 34.2577C19.5162 34.2936 18.9393 32.4087 20.1553 31.631C21.3172 30.888 20.8523 29.0924 19.4758 29.0067L11.9069 28.5352C10.2978 28.435 10.0245 26.1797 11.5631 25.698C13.0252 25.2402 12.8753 23.1241 11.3632 22.8769L10.308 22.7046C8.39951 22.3928 8.39951 19.6479 10.308 19.3361L11.3632 19.1638C12.8753 18.9166 13.0252 16.8005 11.5631 16.3427C10.0245 15.861 10.2978 13.6057 11.9069 13.5056L19.4758 13.034C20.8523 12.9483 21.3172 11.1527 20.1553 10.4097C18.9393 9.63201 19.5162 7.74715 20.9591 7.78305L33.275 8.0895C34.6231 8.12305 35.5966 6.80958 35.1722 5.5296C34.7237 4.17679 35.8325 2.81624 37.248 2.98236L51.6224 4.66942C52.3871 4.75918 53.1453 4.45581 53.637 3.86333L56.4408 0.485057C56.9941 -0.181557 57.8781 -0.475854 58.7205 -0.273881L71.8392 2.87138C72.3345 2.99016 72.8555 2.93913 73.3185 2.72646L82.0407 -1.28056Z" fill="#63AB45"/>
</g>
</g>
</mask>
<g mask="url(#mask0_1_2940)">
<rect width="165.98" height="41" transform="translate(0 0.52002)" fill="#63AB45" fill-opacity="0.3"/>
<path d="M42.8106 27.6909C42.4896 27.6909 42.1908 27.547 41.9141 27.2593C41.6485 26.9826 41.4271 26.5786 41.2501 26.0474C41.084 25.5272 40.9623 24.8853 40.8848 24.1216C40.8184 23.3468 40.824 22.467 40.9014 21.4819C40.9457 20.8289 41.0342 20.1649 41.1671 19.4897C41.2999 18.8035 41.4493 18.145 41.6153 17.5142C41.7813 16.8722 41.9584 16.269 42.1465 15.7046C42.3347 15.1401 42.5062 14.6421 42.6612 14.2104C42.8272 13.7677 42.96 13.4136 43.0596 13.1479C43.1703 12.8823 43.2367 12.7274 43.2589 12.6831C43.2921 12.6278 43.3529 12.5724 43.4415 12.5171C43.5411 12.4507 43.6518 12.3953 43.7735 12.3511C43.9063 12.3068 44.0447 12.2736 44.1885 12.2515C44.3435 12.2183 44.4874 12.2017 44.6202 12.2017C44.7309 12.2017 44.836 12.2072 44.9356 12.2183C45.0242 12.2293 45.1127 12.2459 45.2012 12.2681C45.2898 12.2902 45.3673 12.3234 45.4337 12.3677C45.3119 12.4451 45.1902 12.5669 45.0684 12.7329C44.9577 12.8879 44.8526 13.0539 44.753 13.231C44.6312 13.4302 44.5206 13.646 44.421 13.8784C44.1996 14.3433 43.9672 14.9077 43.7237 15.5718C43.4802 16.2358 43.2478 16.9442 43.0264 17.6968C42.8161 18.4383 42.628 19.1965 42.462 19.9712C42.307 20.7349 42.2019 21.4543 42.1465 22.1294C42.058 23.4907 42.1078 24.5034 42.296 25.1675C42.4841 25.8426 42.7497 26.1802 43.0928 26.1802C43.2589 26.1802 43.4359 26.075 43.6241 25.8647C43.8122 25.6545 44.0004 25.3833 44.1885 25.0513C44.3878 24.7192 44.5814 24.3485 44.7696 23.939C44.9577 23.5295 45.1348 23.1255 45.3008 22.7271C45.4005 22.4725 45.5056 22.1903 45.6163 21.8804C45.738 21.5594 45.8542 21.2329 45.9649 20.9009C46.0867 20.5688 46.2029 20.2424 46.3135 19.9214C46.4242 19.5894 46.5238 19.2905 46.6124 19.0249C46.6124 18.6929 46.6179 18.3442 46.629 17.979C46.64 17.6027 46.6622 17.2264 46.6954 16.8501C46.7396 16.4627 46.795 16.0864 46.8614 15.7212C46.9278 15.3449 47.0163 15.0018 47.127 14.6919C47.3484 14.0942 47.6085 13.6571 47.9073 13.3804C48.2061 13.0926 48.4662 12.9432 48.6876 12.9321C48.8425 12.9321 48.9532 12.9985 49.0196 13.1313C49.086 13.2642 49.1137 13.4412 49.1026 13.6626C49.0805 13.9504 49.0307 14.299 48.9532 14.7085C48.8757 15.1069 48.7816 15.5386 48.671 16.0034C48.5714 16.4572 48.4551 16.922 48.3223 17.3979C48.1895 17.8628 48.0622 18.311 47.9405 18.7427C47.7413 19.8826 47.6195 20.9175 47.5753 21.8472C47.531 22.7658 47.5365 23.5571 47.5919 24.2212C47.6583 24.8742 47.7634 25.3778 47.9073 25.7319C48.0622 26.0972 48.2449 26.2798 48.4551 26.2798C48.6986 26.2798 48.9532 26.1138 49.2188 25.7817C49.4955 25.4497 49.7667 25.0125 50.0323 24.4702C50.2979 23.9168 50.5525 23.2915 50.796 22.5942C51.0505 21.897 51.2774 21.1831 51.4766 20.4526C51.6869 19.7111 51.8585 18.9862 51.9913 18.2778C52.1241 17.5584 52.2126 16.911 52.2569 16.3354C52.2901 15.8595 52.3067 15.3892 52.3067 14.9243C52.3067 14.5259 52.2901 14.0998 52.2569 13.646C52.2237 13.1922 52.1628 12.7827 52.0743 12.4175C52.2182 12.2957 52.4118 12.1961 52.6553 12.1187C52.7771 12.0744 52.9099 12.0356 53.0538 12.0024C53.1423 11.9803 53.2364 11.9637 53.336 11.9526C53.4245 11.9416 53.5131 11.936 53.6016 11.936C53.6902 11.925 53.7732 11.9305 53.8507 11.9526C53.9171 12.1076 53.9613 12.3068 53.9835 12.5503C54.0167 12.7938 54.0388 13.0317 54.0499 13.2642C54.0609 13.5409 54.0554 13.8286 54.0333 14.1274C53.9447 15.3006 53.7898 16.4517 53.5684 17.5806C53.3581 18.7095 53.098 19.783 52.7882 20.8013C52.4783 21.8084 52.1296 22.7381 51.7423 23.5903C51.366 24.4315 50.973 25.1619 50.5635 25.7817C50.1651 26.4015 49.7611 26.883 49.3516 27.2261C48.9532 27.5692 48.5714 27.7407 48.2061 27.7407C47.8187 27.7407 47.5089 27.5747 47.2764 27.2427C47.044 26.9217 46.8669 26.5122 46.7452 26.0142C46.6234 25.5272 46.546 25.0015 46.5128 24.437C46.4796 23.8726 46.4685 23.3524 46.4796 22.8765C46.225 23.4963 45.9483 24.0939 45.6495 24.6694C45.3617 25.245 45.0574 25.7541 44.7364 26.1968C44.4265 26.6506 44.1055 27.0103 43.7735 27.2759C43.4525 27.5526 43.1316 27.6909 42.8106 27.6909ZM63.3919 20.8677C63.4694 20.7791 63.5468 20.7349 63.6243 20.7349C63.7129 20.7238 63.7793 20.7459 63.8235 20.8013C63.8789 20.8455 63.901 20.9175 63.8899 21.0171C63.8899 21.1167 63.8457 21.2274 63.7571 21.3491C63.5468 21.6369 63.3034 21.9357 63.0267 22.2456C62.75 22.5444 62.4511 22.8377 62.1302 23.1255C61.8203 23.4132 61.5049 23.6844 61.1839 23.939C60.8629 24.1935 60.553 24.4038 60.2542 24.5698C59.9222 24.758 59.6399 24.8521 59.4075 24.8521C59.1862 24.8521 58.9648 24.7082 58.7435 24.4204C58.5442 24.1659 58.4446 23.8947 58.4446 23.6069C58.4557 23.3081 58.5221 22.9373 58.6439 22.4946C58.7213 22.2179 58.8265 21.8914 58.9593 21.5151C59.1032 21.1278 59.2138 20.757 59.2913 20.4028C59.3799 20.0487 59.4075 19.7498 59.3743 19.5063C59.3411 19.2518 59.1972 19.1245 58.9427 19.1245C58.7656 19.1245 58.5719 19.1854 58.3616 19.3071C58.1624 19.4289 57.9577 19.5894 57.7474 19.7886C57.5482 19.9767 57.3545 20.1925 57.1663 20.436C56.9782 20.6795 56.8121 20.9175 56.6683 21.1499C56.5797 21.5815 56.4912 22.0076 56.4026 22.4282C56.3252 22.7824 56.2422 23.1698 56.1536 23.5903C56.0761 23.9998 55.9987 24.3651 55.9212 24.686C55.8548 24.7414 55.7829 24.7801 55.7054 24.8022C55.6279 24.8244 55.556 24.8354 55.4896 24.8354C55.4121 24.8354 55.3346 24.8299 55.2571 24.8188C55.1686 24.7967 55.0856 24.7635 55.0081 24.7192C54.9417 24.675 54.8753 24.6141 54.8089 24.5366C54.7425 24.4702 54.6927 24.3761 54.6595 24.2544C55.1575 22.2069 55.5504 20.5633 55.8382 19.3237C56.126 18.0841 56.3473 17.1379 56.5023 16.4849C56.6793 15.7101 56.8011 15.1733 56.8675 14.8745C56.9007 14.6642 56.9284 14.4595 56.9505 14.2603C56.9726 14.0832 56.9837 13.9006 56.9837 13.7124C56.9837 13.5243 56.9671 13.3527 56.9339 13.1978C57.0224 13.1424 57.1165 13.0981 57.2161 13.0649C57.3268 13.0317 57.4319 13.0041 57.5315 12.9819C57.6533 12.9487 57.775 12.9211 57.8968 12.8989C58.0185 12.8768 58.1292 12.8657 58.2288 12.8657C58.3174 12.8657 58.4004 12.8768 58.4778 12.8989C58.5553 12.91 58.6051 12.9432 58.6273 12.9985C58.6937 13.0539 58.7213 13.1646 58.7103 13.3306C58.7103 13.4966 58.6992 13.6681 58.6771 13.8452C58.6328 14.0555 58.583 14.2824 58.5276 14.5259C58.2952 15.4224 58.0351 16.2967 57.7474 17.1489C57.4596 17.9901 57.194 18.8921 56.9505 19.855C57.0944 19.6336 57.2659 19.4067 57.4651 19.1743C57.6644 18.9419 57.8802 18.7316 58.1126 18.5435C58.3561 18.3442 58.6107 18.1838 58.8763 18.062C59.1419 17.9292 59.4241 17.8628 59.723 17.8628C59.8779 17.8628 60.0218 17.8905 60.1546 17.9458C60.2985 17.9901 60.4202 18.0731 60.5198 18.1948C60.6305 18.3055 60.7135 18.4604 60.7689 18.6597C60.8242 18.8478 60.8463 19.0858 60.8353 19.3735C60.8353 19.5506 60.8131 19.7332 60.7689 19.9214C60.7357 20.1095 60.6858 20.3198 60.6194 20.5522C60.553 20.7736 60.4645 21.0226 60.3538 21.2993C60.2542 21.576 60.1325 21.897 59.9886 22.2622C59.889 22.5168 59.8115 22.7326 59.7562 22.9097C59.7008 23.0868 59.7119 23.2417 59.7894 23.3745C59.889 23.5516 60.0827 23.5959 60.3704 23.5073C60.6692 23.4077 61.112 23.12 61.6985 22.644C61.8314 22.5334 61.9808 22.395 62.1468 22.229C62.3128 22.063 62.4733 21.897 62.6282 21.731C62.7832 21.5539 62.9271 21.3879 63.0599 21.2329C63.1927 21.078 63.3034 20.9562 63.3919 20.8677ZM68.1685 21.8804C68.0578 22.3009 67.9084 22.6938 67.7203 23.0591C67.5321 23.4243 67.3052 23.7397 67.0396 24.0054C66.785 24.271 66.4917 24.4757 66.1597 24.6196C65.8388 24.7746 65.4846 24.8521 65.0972 24.8521C64.6434 24.8521 64.2837 24.7524 64.0181 24.5532C63.7636 24.3651 63.5699 24.1271 63.4371 23.8394C63.3153 23.5516 63.2434 23.2362 63.2212 22.8931C63.188 22.55 63.1714 22.229 63.1714 21.9302C63.1714 21.7199 63.1991 21.4875 63.2544 21.2329C63.2987 20.9784 63.3651 20.7183 63.4537 20.4526C63.5422 20.187 63.6529 19.9214 63.7857 19.6558C63.9296 19.3901 64.0956 19.1466 64.2837 18.9253C64.3501 18.7371 64.4498 18.5711 64.5826 18.4272C64.7264 18.2834 64.8869 18.1672 65.064 18.0786C65.2522 17.979 65.4514 17.9071 65.6617 17.8628C65.872 17.8075 66.0767 17.7798 66.2759 17.7798C66.3091 17.7798 66.3368 17.7853 66.3589 17.7964C66.3921 17.8075 66.4253 17.8185 66.4585 17.8296C66.6024 17.8407 66.7795 17.896 66.9898 17.9956C67.2111 18.0952 67.4214 18.2446 67.6207 18.4438C67.8309 18.6431 68.008 18.8976 68.1519 19.2075C68.2958 19.5063 68.3677 19.8716 68.3677 20.3032C68.3677 20.3918 68.3622 20.5024 68.3511 20.6353C68.3401 20.757 68.329 20.8621 68.3179 20.9507C68.5725 20.8511 68.8381 20.7293 69.1148 20.5854C69.3915 20.4416 69.6571 20.2922 69.9117 20.1372C70.1773 19.9712 70.4208 19.8052 70.6421 19.6392C70.8635 19.4731 71.0406 19.3237 71.1734 19.1909C71.2841 19.0913 71.3781 19.036 71.4556 19.0249C71.5331 19.0138 71.5884 19.036 71.6216 19.0913C71.6548 19.1466 71.6604 19.2241 71.6382 19.3237C71.6161 19.4233 71.5552 19.534 71.4556 19.6558C71.4003 19.7222 71.2564 19.855 71.024 20.0542C70.8026 20.2534 70.537 20.4692 70.2271 20.7017C69.9172 20.9341 69.5796 21.161 69.2144 21.3823C68.8492 21.6037 68.5005 21.7697 68.1685 21.8804ZM65.3628 19.3569C65.3296 19.4565 65.313 19.5617 65.313 19.6724C65.313 19.8494 65.3241 20.0376 65.3462 20.2368C65.3684 20.425 65.4237 20.5965 65.5123 20.7515C65.6008 20.9064 65.7391 21.0392 65.9273 21.1499C66.1265 21.2495 66.3977 21.2993 66.7408 21.2993C66.7961 21.2993 66.8514 21.2993 66.9068 21.2993C66.9621 21.2882 67.0175 21.2772 67.0728 21.2661C67.106 21.1222 67.1337 20.995 67.1558 20.8843C67.189 20.7625 67.2056 20.6574 67.2056 20.5688C67.2277 20.3586 67.2277 20.1427 67.2056 19.9214C67.1835 19.7 67.1392 19.5008 67.0728 19.3237C67.0175 19.1356 66.94 18.9862 66.8404 18.8755C66.7518 18.7537 66.6412 18.6929 66.5083 18.6929C66.2981 18.6929 66.0933 18.7537 65.8941 18.8755C65.7059 18.9862 65.5289 19.1466 65.3628 19.3569ZM64.3003 22.2788C64.3003 22.478 64.3114 22.6772 64.3335 22.8765C64.3557 23.0646 64.3999 23.2362 64.4664 23.3911C64.5328 23.535 64.6213 23.6567 64.732 23.7563C64.8427 23.8449 64.9865 23.8892 65.1636 23.8892C65.3628 23.8892 65.5455 23.8449 65.7115 23.7563C65.8775 23.6567 66.0269 23.535 66.1597 23.3911C66.2925 23.2362 66.4087 23.0646 66.5083 22.8765C66.619 22.6772 66.7131 22.4725 66.7906 22.2622C66.7131 22.2733 66.6356 22.2843 66.5582 22.2954C66.4917 22.2954 66.4143 22.2954 66.3257 22.2954C65.9052 22.2954 65.5399 22.1737 65.23 21.9302C64.9312 21.6756 64.6988 21.3547 64.5328 20.9673C64.4664 21.1997 64.411 21.4266 64.3667 21.6479C64.3225 21.8693 64.3003 22.0796 64.3003 22.2788ZM78.1201 27.6909C77.7992 27.6909 77.5004 27.547 77.2237 27.2593C76.958 26.9826 76.7367 26.5786 76.5596 26.0474C76.3936 25.5272 76.2718 24.8853 76.1944 24.1216C76.128 23.3468 76.1335 22.467 76.211 21.4819C76.2552 20.8289 76.3438 20.1649 76.4766 19.4897C76.6094 18.8035 76.7588 18.145 76.9248 17.5142C77.0908 16.8722 77.2679 16.269 77.4561 15.7046C77.6442 15.1401 77.8158 14.6421 77.9707 14.2104C78.1367 13.7677 78.2696 13.4136 78.3692 13.1479C78.4798 12.8823 78.5463 12.7274 78.5684 12.6831C78.6016 12.6278 78.6625 12.5724 78.751 12.5171C78.8506 12.4507 78.9613 12.3953 79.083 12.3511C79.2158 12.3068 79.3542 12.2736 79.4981 12.2515C79.653 12.2183 79.7969 12.2017 79.9297 12.2017C80.0404 12.2017 80.1455 12.2072 80.2451 12.2183C80.3337 12.2293 80.4222 12.2459 80.5108 12.2681C80.5993 12.2902 80.6768 12.3234 80.7432 12.3677C80.6214 12.4451 80.4997 12.5669 80.378 12.7329C80.2673 12.8879 80.1621 13.0539 80.0625 13.231C79.9408 13.4302 79.8301 13.646 79.7305 13.8784C79.5091 14.3433 79.2767 14.9077 79.0332 15.5718C78.7897 16.2358 78.5573 16.9442 78.336 17.6968C78.1257 18.4383 77.9375 19.1965 77.7715 19.9712C77.6166 20.7349 77.5114 21.4543 77.4561 22.1294C77.3675 23.4907 77.4173 24.5034 77.6055 25.1675C77.7936 25.8426 78.0593 26.1802 78.4024 26.1802C78.5684 26.1802 78.7455 26.075 78.9336 25.8647C79.1218 25.6545 79.3099 25.3833 79.4981 25.0513C79.6973 24.7192 79.891 24.3485 80.0791 23.939C80.2673 23.5295 80.4444 23.1255 80.6104 22.7271C80.71 22.4725 80.8151 22.1903 80.9258 21.8804C81.0476 21.5594 81.1638 21.2329 81.2744 20.9009C81.3962 20.5688 81.5124 20.2424 81.6231 19.9214C81.7338 19.5894 81.8334 19.2905 81.9219 19.0249C81.9219 18.6929 81.9274 18.3442 81.9385 17.979C81.9496 17.6027 81.9717 17.2264 82.0049 16.8501C82.0492 16.4627 82.1045 16.0864 82.1709 15.7212C82.2373 15.3449 82.3259 15.0018 82.4366 14.6919C82.6579 14.0942 82.918 13.6571 83.2168 13.3804C83.5157 13.0926 83.7757 12.9432 83.9971 12.9321C84.152 12.9321 84.2627 12.9985 84.3291 13.1313C84.3955 13.2642 84.4232 13.4412 84.4121 13.6626C84.39 13.9504 84.3402 14.299 84.2627 14.7085C84.1852 15.1069 84.0912 15.5386 83.9805 16.0034C83.8809 16.4572 83.7647 16.922 83.6319 17.3979C83.4991 17.8628 83.3718 18.311 83.25 18.7427C83.0508 19.8826 82.9291 20.9175 82.8848 21.8472C82.8405 22.7658 82.8461 23.5571 82.9014 24.2212C82.9678 24.8742 83.0729 25.3778 83.2168 25.7319C83.3718 26.0972 83.5544 26.2798 83.7647 26.2798C84.0082 26.2798 84.2627 26.1138 84.5283 25.7817C84.805 25.4497 85.0762 25.0125 85.3418 24.4702C85.6074 23.9168 85.862 23.2915 86.1055 22.5942C86.3601 21.897 86.5869 21.1831 86.7862 20.4526C86.9964 19.7111 87.168 18.9862 87.3008 18.2778C87.4336 17.5584 87.5222 16.911 87.5664 16.3354C87.5996 15.8595 87.6162 15.3892 87.6162 14.9243C87.6162 14.5259 87.5996 14.0998 87.5664 13.646C87.5332 13.1922 87.4724 12.7827 87.3838 12.4175C87.5277 12.2957 87.7214 12.1961 87.9649 12.1187C88.0866 12.0744 88.2194 12.0356 88.3633 12.0024C88.4518 11.9803 88.5459 11.9637 88.6455 11.9526C88.7341 11.9416 88.8226 11.936 88.9112 11.936C88.9997 11.925 89.0827 11.9305 89.1602 11.9526C89.2266 12.1076 89.2709 12.3068 89.293 12.5503C89.3262 12.7938 89.3483 13.0317 89.3594 13.2642C89.3705 13.5409 89.3649 13.8286 89.3428 14.1274C89.2543 15.3006 89.0993 16.4517 88.878 17.5806C88.6677 18.7095 88.4076 19.783 88.0977 20.8013C87.7878 21.8084 87.4392 22.7381 87.0518 23.5903C86.6755 24.4315 86.2826 25.1619 85.8731 25.7817C85.4746 26.4015 85.0707 26.883 84.6612 27.2261C84.2627 27.5692 83.8809 27.7407 83.5157 27.7407C83.1283 27.7407 82.8184 27.5747 82.586 27.2427C82.3535 26.9217 82.1765 26.5122 82.0547 26.0142C81.933 25.5272 81.8555 25.0015 81.8223 24.437C81.7891 23.8726 81.778 23.3524 81.7891 22.8765C81.5345 23.4963 81.2578 24.0939 80.959 24.6694C80.6713 25.245 80.3669 25.7541 80.0459 26.1968C79.736 26.6506 79.4151 27.0103 79.083 27.2759C78.7621 27.5526 78.4411 27.6909 78.1201 27.6909ZM97.6555 21.0669C97.3235 21.5539 96.9472 22.0298 96.5266 22.4946C96.1061 22.9484 95.6578 23.3579 95.1819 23.7231C94.7171 24.0773 94.2356 24.3651 93.7376 24.5864C93.2506 24.8078 92.7747 24.9185 92.3098 24.9185C92.0663 24.9185 91.8007 24.8576 91.513 24.7358C91.2363 24.6252 90.9817 24.4481 90.7493 24.2046C90.5169 23.9611 90.3287 23.6457 90.1848 23.2583C90.052 22.8709 90.0133 22.4006 90.0686 21.8472C90.1129 21.3934 90.2512 20.9175 90.4837 20.4194C90.7271 19.9103 91.0204 19.4455 91.3635 19.0249C91.7177 18.6043 92.1106 18.2557 92.5423 17.979C92.985 17.7023 93.4277 17.564 93.8704 17.564C94.2909 17.564 94.5953 17.6691 94.7835 17.8794C94.9716 18.0897 95.0546 18.3498 95.0325 18.6597C94.9993 19.0028 94.8997 19.3182 94.7337 19.606C94.5787 19.8937 94.3906 20.1538 94.1692 20.3862C93.9479 20.6187 93.7099 20.8289 93.4553 21.0171C93.2118 21.2052 92.9794 21.3768 92.7581 21.5317C92.5146 21.6978 92.2822 21.8582 92.0608 22.0132C91.8395 22.1571 91.6458 22.2899 91.4798 22.4116C91.4908 22.6883 91.5406 22.9207 91.6292 23.1089C91.7177 23.297 91.8284 23.452 91.9612 23.5737C92.094 23.6844 92.2434 23.7674 92.4094 23.8228C92.5865 23.867 92.7636 23.8892 92.9407 23.8892C93.317 23.8892 93.7099 23.7729 94.1194 23.5405C94.5289 23.297 94.9273 23.0093 95.3147 22.6772C95.7132 22.3341 96.0784 21.98 96.4104 21.6147C96.7535 21.2495 97.0357 20.9341 97.2571 20.6685C97.3346 20.5799 97.412 20.5301 97.4895 20.519C97.5781 20.4969 97.6445 20.508 97.6887 20.5522C97.7441 20.5854 97.7717 20.6519 97.7717 20.7515C97.7717 20.84 97.733 20.9451 97.6555 21.0669ZM93.4055 18.5103C93.2727 18.5103 93.1122 18.5767 92.9241 18.7095C92.747 18.8423 92.5699 19.036 92.3928 19.2905C92.2158 19.534 92.0497 19.8384 91.8948 20.2036C91.7398 20.5578 91.6236 20.9673 91.5462 21.4321C91.679 21.3325 91.8229 21.2329 91.9778 21.1333C92.1327 21.0226 92.2877 20.9064 92.4426 20.7847C92.9186 20.4194 93.2506 20.0985 93.4387 19.8218C93.6269 19.5451 93.732 19.3071 93.7542 19.1079C93.7763 18.8976 93.7542 18.7482 93.6878 18.6597C93.6214 18.5601 93.5273 18.5103 93.4055 18.5103ZM109.433 12.019C109.821 12.019 110.136 12.1297 110.38 12.3511C110.634 12.5614 110.745 12.9487 110.712 13.5132C110.701 13.7013 110.656 14.0555 110.579 14.5757C110.501 15.0848 110.407 15.688 110.297 16.3853C110.186 17.0825 110.059 17.8351 109.915 18.6431C109.782 19.4399 109.655 20.2202 109.533 20.9839H109.882C109.992 20.9839 110.114 20.9784 110.247 20.9673C110.38 20.9562 110.518 20.9396 110.662 20.9175C110.607 21.0503 110.546 21.1776 110.479 21.2993C110.413 21.41 110.346 21.5096 110.28 21.5981C110.203 21.6978 110.125 21.7863 110.048 21.8638C109.948 21.9855 109.832 22.0962 109.699 22.1958C109.566 22.2843 109.439 22.3563 109.317 22.4116C109.24 22.9539 109.173 23.4409 109.118 23.8726C109.074 24.2931 109.046 24.6418 109.035 24.9185C109.013 25.339 109.024 25.7319 109.068 26.0972C109.101 26.4181 109.168 26.7446 109.267 27.0767C109.367 27.4087 109.527 27.6743 109.749 27.8735L107.823 28.5044C107.69 28.3162 107.591 28.0617 107.524 27.7407C107.469 27.4308 107.43 27.1209 107.408 26.811C107.375 26.4458 107.369 26.0695 107.391 25.6821C107.413 25.2948 107.474 24.7912 107.574 24.1714C107.674 23.5405 107.784 22.8543 107.906 22.1128C107.685 22.0464 107.441 21.991 107.176 21.9468C106.921 21.9025 106.633 21.8804 106.312 21.8804C106.024 21.8804 105.72 21.8914 105.399 21.9136C105.089 21.9357 104.779 21.9634 104.469 21.9966C104.337 22.4836 104.204 22.9982 104.071 23.5405C103.927 24.1271 103.794 24.6252 103.673 25.0347C103.562 25.4552 103.451 25.8039 103.341 26.0806C103.241 26.3573 103.136 26.5786 103.025 26.7446C102.926 26.9106 102.815 27.0324 102.693 27.1099C102.56 27.1763 102.394 27.2371 102.195 27.2925C102.007 27.3478 101.769 27.4032 101.481 27.4585C101.193 27.5138 100.823 27.5581 100.369 27.5913C100.535 27.3921 100.679 27.2095 100.801 27.0435C100.922 26.8774 101.044 26.6727 101.166 26.4292C101.288 26.1857 101.426 25.8703 101.581 25.4829C101.725 25.1066 101.913 24.6086 102.145 23.9888C102.245 23.7342 102.344 23.4575 102.444 23.1587C102.555 22.8488 102.671 22.5334 102.793 22.2124C102.394 22.2677 102.057 22.3175 101.78 22.3618C101.503 22.4061 101.337 22.4393 101.282 22.4614C101.193 22.4725 101.121 22.4725 101.066 22.4614C100.922 22.4393 100.845 22.3674 100.834 22.2456C100.845 22.0907 100.9 21.9855 101 21.9302C101.088 21.8748 101.227 21.8084 101.415 21.731C101.503 21.6867 101.708 21.6092 102.029 21.4985C102.339 21.3768 102.721 21.2495 103.175 21.1167C103.341 20.6519 103.501 20.1925 103.656 19.7388C103.822 19.2739 103.982 18.8312 104.137 18.4106C104.292 17.9901 104.442 17.5972 104.586 17.2319C104.73 16.8556 104.862 16.5347 104.984 16.269C105.172 15.8595 105.41 15.4113 105.698 14.9243C105.997 14.4263 106.334 13.9614 106.711 13.5298C107.098 13.0981 107.519 12.7384 107.972 12.4507C108.437 12.1629 108.924 12.019 109.433 12.019ZM109.251 15.4722C109.372 14.9741 109.455 14.5646 109.5 14.2437C109.544 13.9227 109.561 13.6737 109.55 13.4966C109.538 13.3084 109.5 13.1812 109.433 13.1147C109.378 13.0373 109.306 12.9985 109.218 12.9985C109.074 12.9985 108.897 13.0539 108.686 13.1646C108.476 13.2752 108.255 13.4357 108.022 13.646C107.79 13.8452 107.557 14.0998 107.325 14.4097C107.104 14.7085 106.904 15.0516 106.727 15.439C106.473 16.0145 106.185 16.7228 105.864 17.564C105.543 18.394 105.194 19.4565 104.818 20.7515C105.039 20.7183 105.255 20.6906 105.466 20.6685C105.687 20.6463 105.903 20.6353 106.113 20.6353C106.489 20.6353 106.849 20.6519 107.192 20.6851C107.535 20.7072 107.851 20.7349 108.138 20.7681C108.238 20.2368 108.338 19.7166 108.437 19.2075C108.548 18.6873 108.653 18.1948 108.753 17.73C108.852 17.2651 108.941 16.839 109.018 16.4517C109.107 16.0643 109.184 15.7378 109.251 15.4722ZM111.52 24.437C111.443 24.5588 111.36 24.6362 111.271 24.6694C111.172 24.7137 111.089 24.7192 111.022 24.686C110.945 24.6639 110.895 24.6086 110.873 24.52C110.851 24.4315 110.873 24.3208 110.939 24.188C110.973 24.1216 111.05 23.9722 111.172 23.7397C111.283 23.5073 111.421 23.2306 111.587 22.9097C111.742 22.5776 111.913 22.2235 112.102 21.8472C112.29 21.4598 112.467 21.0946 112.633 20.7515C112.81 20.4084 112.97 20.104 113.114 19.8384C113.258 19.5617 113.363 19.3625 113.43 19.2407C113.308 19.13 113.225 19.0526 113.181 19.0083C113.136 18.953 113.103 18.8423 113.081 18.6763C113.059 18.5324 113.092 18.3442 113.181 18.1118C113.269 17.8794 113.385 17.658 113.529 17.4478C113.673 17.2264 113.834 17.0382 114.011 16.8833C114.188 16.7284 114.359 16.6509 114.525 16.6509C114.835 16.6509 115.051 16.7505 115.173 16.9497C115.306 17.1489 115.383 17.3537 115.405 17.564C115.427 17.7078 115.416 17.8905 115.372 18.1118C115.328 18.3332 115.245 18.5324 115.123 18.7095C115.156 18.7316 115.201 18.7593 115.256 18.7925C115.311 18.8146 115.4 18.8257 115.521 18.8257C115.699 18.8257 115.82 18.8146 115.887 18.7925C115.964 18.7703 116.08 18.7593 116.235 18.7593C116.423 18.7593 116.578 18.8091 116.7 18.9087C116.822 18.9972 116.922 19.1134 116.999 19.2573C117.076 19.3901 117.132 19.5396 117.165 19.7056C117.209 19.8605 117.237 20.0044 117.248 20.1372C117.281 20.4139 117.209 20.7017 117.032 21.0005C116.855 21.2993 116.639 21.6258 116.385 21.98C116.23 22.2013 116.075 22.4504 115.92 22.7271C115.765 23.0037 115.699 23.2528 115.721 23.4741C115.743 23.618 115.782 23.7342 115.837 23.8228C115.892 23.9113 116.047 23.9556 116.302 23.9556C116.49 23.9556 116.695 23.8892 116.916 23.7563C117.148 23.6125 117.381 23.4354 117.613 23.2251C117.857 23.0037 118.095 22.7658 118.327 22.5112C118.56 22.2456 118.775 21.991 118.975 21.7476C119.174 21.493 119.34 21.2661 119.473 21.0669C119.617 20.8677 119.722 20.7238 119.788 20.6353C119.843 20.5467 119.915 20.4858 120.004 20.4526C120.092 20.4194 120.17 20.4194 120.236 20.4526C120.303 20.4858 120.341 20.5522 120.353 20.6519C120.375 20.7515 120.336 20.8843 120.236 21.0503C120.17 21.161 120.054 21.3381 119.888 21.5815C119.733 21.825 119.539 22.0962 119.307 22.395C119.085 22.6938 118.836 23.0037 118.56 23.3247C118.283 23.6346 117.99 23.9224 117.68 24.188C117.381 24.4425 117.076 24.6528 116.767 24.8188C116.468 24.9849 116.18 25.0679 115.903 25.0679C115.616 25.0679 115.378 25.0125 115.189 24.9019C115.001 24.7912 114.846 24.6584 114.725 24.5034C114.614 24.3374 114.531 24.1603 114.476 23.9722C114.431 23.7729 114.415 23.5903 114.426 23.4243C114.437 23.2915 114.47 23.1532 114.525 23.0093C114.592 22.8543 114.664 22.6994 114.741 22.5444C114.83 22.3784 114.918 22.2179 115.007 22.063C115.106 21.897 115.195 21.7365 115.272 21.5815C115.461 21.2606 115.61 20.9894 115.721 20.7681C115.842 20.5356 115.903 20.342 115.903 20.187C115.903 20.0874 115.881 19.9989 115.837 19.9214C115.793 19.8439 115.721 19.8052 115.621 19.8052C115.555 19.8052 115.505 19.8107 115.472 19.8218C115.45 19.8218 115.422 19.8218 115.389 19.8218C115.367 19.8218 115.328 19.8273 115.272 19.8384C115.228 19.8384 115.156 19.8384 115.057 19.8384C114.913 19.8384 114.791 19.8162 114.691 19.772C114.592 19.7277 114.498 19.6945 114.409 19.6724C114.365 19.7498 114.265 19.9159 114.11 20.1704C113.955 20.425 113.773 20.7238 113.562 21.0669C113.363 21.41 113.147 21.7697 112.915 22.146C112.694 22.5223 112.483 22.8765 112.284 23.2085C112.085 23.5295 111.919 23.8062 111.786 24.0386C111.642 24.2599 111.554 24.3927 111.52 24.437ZM127.088 21.0669C126.756 21.5539 126.38 22.0298 125.959 22.4946C125.539 22.9484 125.09 23.3579 124.614 23.7231C124.15 24.0773 123.668 24.3651 123.17 24.5864C122.683 24.8078 122.207 24.9185 121.742 24.9185C121.499 24.9185 121.233 24.8576 120.946 24.7358C120.669 24.6252 120.414 24.4481 120.182 24.2046C119.949 23.9611 119.761 23.6457 119.617 23.2583C119.485 22.8709 119.446 22.4006 119.501 21.8472C119.545 21.3934 119.684 20.9175 119.916 20.4194C120.16 19.9103 120.453 19.4455 120.796 19.0249C121.15 18.6043 121.543 18.2557 121.975 17.979C122.418 17.7023 122.86 17.564 123.303 17.564C123.724 17.564 124.028 17.6691 124.216 17.8794C124.404 18.0897 124.487 18.3498 124.465 18.6597C124.432 19.0028 124.332 19.3182 124.166 19.606C124.011 19.8937 123.823 20.1538 123.602 20.3862C123.38 20.6187 123.142 20.8289 122.888 21.0171C122.644 21.2052 122.412 21.3768 122.191 21.5317C121.947 21.6978 121.715 21.8582 121.493 22.0132C121.272 22.1571 121.078 22.2899 120.912 22.4116C120.923 22.6883 120.973 22.9207 121.062 23.1089C121.15 23.297 121.261 23.452 121.394 23.5737C121.527 23.6844 121.676 23.7674 121.842 23.8228C122.019 23.867 122.196 23.8892 122.373 23.8892C122.75 23.8892 123.142 23.7729 123.552 23.5405C123.961 23.297 124.36 23.0093 124.747 22.6772C125.146 22.3341 125.511 21.98 125.843 21.6147C126.186 21.2495 126.468 20.9341 126.69 20.6685C126.767 20.5799 126.845 20.5301 126.922 20.519C127.011 20.4969 127.077 20.508 127.121 20.5522C127.177 20.5854 127.204 20.6519 127.204 20.7515C127.204 20.84 127.166 20.9451 127.088 21.0669ZM122.838 18.5103C122.705 18.5103 122.545 18.5767 122.357 18.7095C122.18 18.8423 122.002 19.036 121.825 19.2905C121.648 19.534 121.482 19.8384 121.327 20.2036C121.172 20.5578 121.056 20.9673 120.979 21.4321C121.112 21.3325 121.255 21.2329 121.41 21.1333C121.565 21.0226 121.72 20.9064 121.875 20.7847C122.351 20.4194 122.683 20.0985 122.871 19.8218C123.059 19.5451 123.165 19.3071 123.187 19.1079C123.209 18.8976 123.187 18.7482 123.12 18.6597C123.054 18.5601 122.96 18.5103 122.838 18.5103Z" fill="#63AB45"/>
</g>
<defs>
<clipPath id="clip0_1_2940">
<rect width="165.98" height="41" fill="white" transform="translate(0 0.52002)"/>
</clipPath>
<clipPath id="clip1_1_2940">
<rect width="165.98" height="45.474" fill="white" transform="translate(0 -1.71692)"/>
</clipPath>
</defs>
</svg>
